%TF.GenerationSoftware,KiCad,Pcbnew,10.0.5*%
%TF.CreationDate,2026-09-04T18:02:27-05:00*%
%TF.ProjectId,PVDX-ADCS-PMB,50564458-2d41-4444-9353-2d504d422e6b,rev?*%
%TF.SameCoordinates,Original*%
%TF.FileFunction,Soldermask,Bot*%
%TF.FilePolarity,Negative*%
%FSLAX46Y46*%
G04 Gerber Fmt 4.6, Leading zero omitted, Abs format (unit mm)*
G04 Created by KiCad (PCBNEW 10.0.5) date 2026-09-04 18:02:27*
%MOMM*%
%LPD*%
G01*
G04 APERTURE LIST*
%ADD10C,3.400000*%
%ADD11R,1.700000X1.700000*%
%ADD12C,1.700000*%
G04 APERTURE END LIST*
D10*
%TO.C,H4*%
X144750000Y-115250000D03*
%TD*%
%TO.C,H2*%
X217750000Y-42250000D03*
%TD*%
%TO.C,H1*%
X144750000Y-42250000D03*
%TD*%
D11*
%TO.C,J6*%
X178290000Y-41500000D03*
D12*
X175750000Y-41500000D03*
X173210000Y-41500000D03*
%TD*%
D11*
%TO.C,J1*%
X212120000Y-114000000D03*
D12*
X212120000Y-116540000D03*
X209580000Y-114000000D03*
X209580000Y-116540000D03*
X207040000Y-114000000D03*
X207040000Y-116540000D03*
X204500000Y-114000000D03*
X204500000Y-116540000D03*
X201960000Y-114000000D03*
X201960000Y-116540000D03*
X199420000Y-114000000D03*
X199420000Y-116540000D03*
X196880000Y-114000000D03*
X196880000Y-116540000D03*
X194340000Y-114000000D03*
X194340000Y-116540000D03*
X191800000Y-114000000D03*
X191800000Y-116540000D03*
X189260000Y-114000000D03*
X189260000Y-116540000D03*
X186720000Y-114000000D03*
X186720000Y-116540000D03*
X184180000Y-114000000D03*
X184180000Y-116540000D03*
X181640000Y-114000000D03*
X181640000Y-116540000D03*
X179100000Y-114000000D03*
X179100000Y-116540000D03*
X176560000Y-114000000D03*
X176560000Y-116540000D03*
X174020000Y-114000000D03*
X174020000Y-116540000D03*
X171480000Y-114000000D03*
X171480000Y-116540000D03*
X168940000Y-114000000D03*
X168940000Y-116540000D03*
%TD*%
D10*
%TO.C,H3*%
X217750000Y-115250000D03*
%TD*%
D11*
%TO.C,J4*%
X194775000Y-41500000D03*
D12*
X192235000Y-41500000D03*
%TD*%
D11*
%TO.C,J7*%
X143500000Y-91340000D03*
D12*
X143500000Y-88800000D03*
X143500000Y-86260000D03*
X143500000Y-83720000D03*
X143500000Y-81180000D03*
X143500000Y-78640000D03*
X143500000Y-76100000D03*
X143500000Y-73560000D03*
X143500000Y-71020000D03*
%TD*%
D11*
%TO.C,J5*%
X217250000Y-90000000D03*
D12*
X217250000Y-87460000D03*
X217250000Y-84920000D03*
X217250000Y-82380000D03*
X217250000Y-79840000D03*
X217250000Y-77300000D03*
X217250000Y-74760000D03*
X217250000Y-72220000D03*
X217250000Y-69680000D03*
X217250000Y-67140000D03*
X217250000Y-64600000D03*
X217250000Y-62060000D03*
X217250000Y-59520000D03*
X217250000Y-56980000D03*
X217250000Y-54440000D03*
X217250000Y-51900000D03*
X217250000Y-49360000D03*
%TD*%
D11*
%TO.C,J3*%
X143500000Y-97340000D03*
D12*
X143500000Y-99880000D03*
X143500000Y-102420000D03*
X143500000Y-104960000D03*
X143500000Y-107500000D03*
X143500000Y-110040000D03*
%TD*%
M02*
