%TF.GenerationSoftware,KiCad,Pcbnew,10.0.5*%
%TF.CreationDate,2026-09-04T18:02:26-05:00*%
%TF.ProjectId,PVDX-ADCS-PMB,50564458-2d41-4444-9353-2d504d422e6b,rev?*%
%TF.SameCoordinates,Original*%
%TF.FileFunction,Soldermask,Top*%
%TF.FilePolarity,Negative*%
%FSLAX46Y46*%
G04 Gerber Fmt 4.6, Leading zero omitted, Abs format (unit mm)*
G04 Created by KiCad (PCBNEW 10.0.5) date 2026-09-04 18:02:26*
%MOMM*%
%LPD*%
G01*
G04 APERTURE LIST*
G04 Aperture macros list*
%AMRoundRect*
0 Rectangle with rounded corners*
0 $1 Rounding radius*
0 $2 $3 $4 $5 $6 $7 $8 $9 X,Y pos of 4 corners*
0 Add a 4 corners polygon primitive as box body*
4,1,4,$2,$3,$4,$5,$6,$7,$8,$9,$2,$3,0*
0 Add four circle primitives for the rounded corners*
1,1,$1+$1,$2,$3*
1,1,$1+$1,$4,$5*
1,1,$1+$1,$6,$7*
1,1,$1+$1,$8,$9*
0 Add four rect primitives between the rounded corners*
20,1,$1+$1,$2,$3,$4,$5,0*
20,1,$1+$1,$4,$5,$6,$7,0*
20,1,$1+$1,$6,$7,$8,$9,0*
20,1,$1+$1,$8,$9,$2,$3,0*%
G04 Aperture macros list end*
%ADD10C,0.000000*%
%ADD11C,3.400000*%
%ADD12RoundRect,0.140000X0.140000X0.170000X-0.140000X0.170000X-0.140000X-0.170000X0.140000X-0.170000X0*%
%ADD13RoundRect,0.200000X0.200000X0.275000X-0.200000X0.275000X-0.200000X-0.275000X0.200000X-0.275000X0*%
%ADD14RoundRect,0.200000X0.275000X-0.200000X0.275000X0.200000X-0.275000X0.200000X-0.275000X-0.200000X0*%
%ADD15RoundRect,0.200000X-0.200000X-0.275000X0.200000X-0.275000X0.200000X0.275000X-0.200000X0.275000X0*%
%ADD16R,0.431800X1.422400*%
%ADD17RoundRect,0.150000X-0.150000X0.875000X-0.150000X-0.875000X0.150000X-0.875000X0.150000X0.875000X0*%
%ADD18RoundRect,0.225000X-0.225000X-0.250000X0.225000X-0.250000X0.225000X0.250000X-0.225000X0.250000X0*%
%ADD19RoundRect,0.225000X0.225000X0.250000X-0.225000X0.250000X-0.225000X-0.250000X0.225000X-0.250000X0*%
%ADD20R,0.500000X0.280000*%
%ADD21RoundRect,0.140000X-0.170000X0.140000X-0.170000X-0.140000X0.170000X-0.140000X0.170000X0.140000X0*%
%ADD22R,1.700000X1.700000*%
%ADD23C,1.700000*%
%ADD24R,0.300000X0.800000*%
%ADD25R,0.400000X0.800000*%
%ADD26RoundRect,0.087500X-0.087500X0.425000X-0.087500X-0.425000X0.087500X-0.425000X0.087500X0.425000X0*%
%ADD27R,0.355600X1.473200*%
%ADD28R,0.650000X0.700000*%
%ADD29RoundRect,0.225000X0.250000X-0.225000X0.250000X0.225000X-0.250000X0.225000X-0.250000X-0.225000X0*%
%ADD30RoundRect,0.075000X0.075000X-0.650000X0.075000X0.650000X-0.075000X0.650000X-0.075000X-0.650000X0*%
G04 APERTURE END LIST*
D10*
%TO.C,U10*%
G36*
X153424999Y-112688599D02*
G01*
X153116999Y-112688599D01*
X153116999Y-110961399D01*
X153424999Y-110961399D01*
X153424999Y-112688599D01*
G37*
G36*
X154132999Y-111231299D02*
G01*
X153116999Y-111231299D01*
X153116999Y-110961399D01*
X154132999Y-110961399D01*
X154132999Y-111231299D01*
G37*
G36*
X154132999Y-112018699D02*
G01*
X153116999Y-112018699D01*
X153116999Y-111631299D01*
X154132999Y-111631299D01*
X154132999Y-112018699D01*
G37*
G36*
X154132999Y-112688599D02*
G01*
X153116999Y-112688599D01*
X153116999Y-112418699D01*
X154132999Y-112418699D01*
X154132999Y-112688599D01*
G37*
G36*
X154132999Y-112688599D02*
G01*
X153824999Y-112688599D01*
X153824999Y-110961399D01*
X154132999Y-110961399D01*
X154132999Y-112688599D01*
G37*
%TO.C,U4*%
G36*
X153424999Y-104627586D02*
G01*
X153116999Y-104627586D01*
X153116999Y-102900386D01*
X153424999Y-102900386D01*
X153424999Y-104627586D01*
G37*
G36*
X154132999Y-103170286D02*
G01*
X153116999Y-103170286D01*
X153116999Y-102900386D01*
X154132999Y-102900386D01*
X154132999Y-103170286D01*
G37*
G36*
X154132999Y-103957686D02*
G01*
X153116999Y-103957686D01*
X153116999Y-103570286D01*
X154132999Y-103570286D01*
X154132999Y-103957686D01*
G37*
G36*
X154132999Y-104627586D02*
G01*
X153116999Y-104627586D01*
X153116999Y-104357686D01*
X154132999Y-104357686D01*
X154132999Y-104627586D01*
G37*
G36*
X154132999Y-104627586D02*
G01*
X153824999Y-104627586D01*
X153824999Y-102900386D01*
X154132999Y-102900386D01*
X154132999Y-104627586D01*
G37*
%TO.C,U3*%
G36*
X153424999Y-97188599D02*
G01*
X153116999Y-97188599D01*
X153116999Y-95461399D01*
X153424999Y-95461399D01*
X153424999Y-97188599D01*
G37*
G36*
X154132999Y-95731299D02*
G01*
X153116999Y-95731299D01*
X153116999Y-95461399D01*
X154132999Y-95461399D01*
X154132999Y-95731299D01*
G37*
G36*
X154132999Y-96518699D02*
G01*
X153116999Y-96518699D01*
X153116999Y-96131299D01*
X154132999Y-96131299D01*
X154132999Y-96518699D01*
G37*
G36*
X154132999Y-97188599D02*
G01*
X153116999Y-97188599D01*
X153116999Y-96918699D01*
X154132999Y-96918699D01*
X154132999Y-97188599D01*
G37*
G36*
X154132999Y-97188599D02*
G01*
X153824999Y-97188599D01*
X153824999Y-95461399D01*
X154132999Y-95461399D01*
X154132999Y-97188599D01*
G37*
%TD*%
D11*
%TO.C,H4*%
X144750000Y-115250000D03*
%TD*%
D12*
%TO.C,CBY5*%
X178680000Y-63800000D03*
X177720000Y-63800000D03*
%TD*%
D13*
%TO.C,R5*%
X201750000Y-87500000D03*
X200100000Y-87500000D03*
%TD*%
D14*
%TO.C,R37*%
X176450000Y-79375000D03*
X176450000Y-77725000D03*
%TD*%
D15*
%TO.C,R51*%
X184150000Y-108250000D03*
X185800000Y-108250000D03*
%TD*%
D16*
%TO.C,U19*%
X169369258Y-101653300D03*
X168719260Y-101653300D03*
X168069258Y-101653300D03*
X167419260Y-101653300D03*
X167419260Y-105996700D03*
X168069258Y-105996700D03*
X168719260Y-105996700D03*
X169369258Y-105996700D03*
%TD*%
D15*
%TO.C,R47*%
X195710000Y-108250000D03*
X197360000Y-108250000D03*
%TD*%
D13*
%TO.C,R1*%
X184350000Y-41662500D03*
X182700000Y-41662500D03*
%TD*%
D15*
%TO.C,R46*%
X198035000Y-99486600D03*
X199685000Y-99486600D03*
%TD*%
D13*
%TO.C,R6*%
X201750000Y-85500000D03*
X200100000Y-85500000D03*
%TD*%
D17*
%TO.C,U5*%
X188955000Y-65650000D03*
X187685000Y-65650000D03*
X186415000Y-65650000D03*
X185145000Y-65650000D03*
X183875000Y-65650000D03*
X182605000Y-65650000D03*
X181335000Y-65650000D03*
X180065000Y-65650000D03*
X178795000Y-65650000D03*
X177525000Y-65650000D03*
X176255000Y-65650000D03*
X174985000Y-65650000D03*
X173715000Y-65650000D03*
X172445000Y-65650000D03*
X172445000Y-74950000D03*
X173715000Y-74950000D03*
X174985000Y-74950000D03*
X176255000Y-74950000D03*
X177525000Y-74950000D03*
X178795000Y-74950000D03*
X180065000Y-74950000D03*
X181335000Y-74950000D03*
X182605000Y-74950000D03*
X183875000Y-74950000D03*
X185145000Y-74950000D03*
X186415000Y-74950000D03*
X187685000Y-74950000D03*
X188955000Y-74950000D03*
%TD*%
D18*
%TO.C,CBY6*%
X209650000Y-83250000D03*
X211200000Y-83250000D03*
%TD*%
D15*
%TO.C,R52*%
X180650000Y-99486600D03*
X182300000Y-99486600D03*
%TD*%
D11*
%TO.C,H2*%
X217750000Y-42250000D03*
%TD*%
D13*
%TO.C,R10*%
X201750000Y-72500000D03*
X200100000Y-72500000D03*
%TD*%
D18*
%TO.C,CBY8*%
X209725000Y-57750000D03*
X211275000Y-57750000D03*
%TD*%
D19*
%TO.C,C39*%
X157625000Y-102513986D03*
X156075000Y-102513986D03*
%TD*%
D15*
%TO.C,R57*%
X166764340Y-108250000D03*
X168414340Y-108250000D03*
%TD*%
D13*
%TO.C,R14*%
X201750000Y-60000000D03*
X200100000Y-60000000D03*
%TD*%
D15*
%TO.C,R41*%
X213100000Y-108250000D03*
X214750000Y-108250000D03*
%TD*%
D18*
%TO.C,C49*%
X203885000Y-97970000D03*
X205435000Y-97970000D03*
%TD*%
D20*
%TO.C,U10*%
X152674998Y-111074998D03*
X152674998Y-111574999D03*
X152674998Y-112074999D03*
X152674998Y-112575000D03*
X154575000Y-112575000D03*
X154575000Y-112074999D03*
X154575000Y-111574999D03*
X154575000Y-111074998D03*
%TD*%
D11*
%TO.C,H1*%
X144750000Y-42250000D03*
%TD*%
D21*
%TO.C,C3*%
X205688686Y-105020000D03*
X205688686Y-105980000D03*
%TD*%
D13*
%TO.C,RSH1*%
X182425000Y-48662500D03*
X180775000Y-48662500D03*
%TD*%
D16*
%TO.C,U18*%
X175160601Y-101653300D03*
X174510603Y-101653300D03*
X173860601Y-101653300D03*
X173210603Y-101653300D03*
X173210603Y-105996700D03*
X173860601Y-105996700D03*
X174510603Y-105996700D03*
X175160601Y-105996700D03*
%TD*%
D21*
%TO.C,C7*%
X182522001Y-105020000D03*
X182522001Y-105980000D03*
%TD*%
D22*
%TO.C,J6*%
X178290000Y-41500000D03*
D23*
X175750000Y-41500000D03*
X173210000Y-41500000D03*
%TD*%
D18*
%TO.C,C61*%
X169150000Y-97956600D03*
X170700000Y-97956600D03*
%TD*%
%TO.C,C55*%
X186500000Y-97956600D03*
X188050000Y-97956600D03*
%TD*%
D24*
%TO.C,J2*%
X162000000Y-41500000D03*
X161500000Y-41500000D03*
X161000000Y-41500000D03*
X160500000Y-41500000D03*
X160000000Y-41500000D03*
X159500000Y-41500000D03*
X159000000Y-41500000D03*
X158500000Y-41500000D03*
X158000000Y-41500000D03*
X157500000Y-41500000D03*
X157000000Y-41500000D03*
X156500000Y-41500000D03*
X156000000Y-41500000D03*
X155500000Y-41500000D03*
X155000000Y-41500000D03*
X154500000Y-41500000D03*
X154000000Y-41500000D03*
X153500000Y-41500000D03*
D25*
X163000000Y-44000000D03*
X152500000Y-44000000D03*
%TD*%
D21*
%TO.C,C5*%
X194106268Y-105020000D03*
X194106268Y-105980000D03*
%TD*%
D26*
%TO.C,U1*%
X184000000Y-45325000D03*
X183350000Y-45325000D03*
X182700000Y-45325000D03*
X182700000Y-47000000D03*
X184000000Y-47000000D03*
%TD*%
D27*
%TO.C,U9*%
X204349998Y-52638800D03*
X204999999Y-52638800D03*
X205649997Y-52638800D03*
X206299999Y-52638800D03*
X206949997Y-52638800D03*
X207599996Y-52638800D03*
X208249997Y-52638800D03*
X208899996Y-52638800D03*
X209549997Y-52638800D03*
X210199996Y-52638800D03*
X210199998Y-47000000D03*
X209550000Y-47000000D03*
X208899999Y-47000000D03*
X208250000Y-47000000D03*
X207599999Y-47000000D03*
X206950000Y-47000000D03*
X206299999Y-47000000D03*
X205650000Y-47000000D03*
X204999999Y-47000000D03*
X204350000Y-47000000D03*
%TD*%
D18*
%TO.C,C58*%
X178400000Y-109780000D03*
X179950000Y-109780000D03*
%TD*%
D15*
%TO.C,R45*%
X201510000Y-108250000D03*
X203160000Y-108250000D03*
%TD*%
D18*
%TO.C,C51*%
X198085000Y-97956600D03*
X199635000Y-97956600D03*
%TD*%
D21*
%TO.C,C9*%
X170933411Y-105020000D03*
X170933411Y-105980000D03*
%TD*%
D13*
%TO.C,R8*%
X201750000Y-76500000D03*
X200100000Y-76500000D03*
%TD*%
D16*
%TO.C,U15*%
X192534628Y-101653300D03*
X191884630Y-101653300D03*
X191234628Y-101653300D03*
X190584630Y-101653300D03*
X190584630Y-105996700D03*
X191234628Y-105996700D03*
X191884630Y-105996700D03*
X192534628Y-105996700D03*
%TD*%
D18*
%TO.C,CBY7*%
X209725000Y-70250000D03*
X211275000Y-70250000D03*
%TD*%
%TO.C,C56*%
X184200000Y-109780000D03*
X185750000Y-109780000D03*
%TD*%
D15*
%TO.C,R53*%
X178350000Y-108250000D03*
X180000000Y-108250000D03*
%TD*%
D16*
%TO.C,U17*%
X180951943Y-101653300D03*
X180301945Y-101653300D03*
X179651943Y-101653300D03*
X179001945Y-101653300D03*
X179001945Y-105996700D03*
X179651943Y-105996700D03*
X180301945Y-105996700D03*
X180951943Y-105996700D03*
%TD*%
D13*
%TO.C,R7*%
X201750000Y-78500000D03*
X200100000Y-78500000D03*
%TD*%
D18*
%TO.C,C47*%
X209685000Y-97970000D03*
X211235000Y-97970000D03*
%TD*%
%TO.C,CBY2*%
X184325000Y-48662500D03*
X185875000Y-48662500D03*
%TD*%
D21*
%TO.C,C8*%
X176723952Y-105020000D03*
X176723952Y-105980000D03*
%TD*%
D28*
%TO.C,CB2*%
X156170000Y-100688987D03*
X157520000Y-100688987D03*
%TD*%
D15*
%TO.C,R43*%
X207310000Y-108250000D03*
X208960000Y-108250000D03*
%TD*%
D18*
%TO.C,C59*%
X174950000Y-97956600D03*
X176500000Y-97956600D03*
%TD*%
D19*
%TO.C,C37*%
X157625000Y-95074999D03*
X156075000Y-95074999D03*
%TD*%
D16*
%TO.C,U13*%
X204117313Y-101653300D03*
X203467315Y-101653300D03*
X202817313Y-101653300D03*
X202167315Y-101653300D03*
X202167315Y-105996700D03*
X202817313Y-105996700D03*
X203467315Y-105996700D03*
X204117313Y-105996700D03*
%TD*%
D13*
%TO.C,R13*%
X201750000Y-62000000D03*
X200100000Y-62000000D03*
%TD*%
D22*
%TO.C,J1*%
X212120000Y-114000000D03*
D23*
X212120000Y-116540000D03*
X209580000Y-114000000D03*
X209580000Y-116540000D03*
X207040000Y-114000000D03*
X207040000Y-116540000D03*
X204500000Y-114000000D03*
X204500000Y-116540000D03*
X201960000Y-114000000D03*
X201960000Y-116540000D03*
X199420000Y-114000000D03*
X199420000Y-116540000D03*
X196880000Y-114000000D03*
X196880000Y-116540000D03*
X194340000Y-114000000D03*
X194340000Y-116540000D03*
X191800000Y-114000000D03*
X191800000Y-116540000D03*
X189260000Y-114000000D03*
X189260000Y-116540000D03*
X186720000Y-114000000D03*
X186720000Y-116540000D03*
X184180000Y-114000000D03*
X184180000Y-116540000D03*
X181640000Y-114000000D03*
X181640000Y-116540000D03*
X179100000Y-114000000D03*
X179100000Y-116540000D03*
X176560000Y-114000000D03*
X176560000Y-116540000D03*
X174020000Y-114000000D03*
X174020000Y-116540000D03*
X171480000Y-114000000D03*
X171480000Y-116540000D03*
X168940000Y-114000000D03*
X168940000Y-116540000D03*
%TD*%
D29*
%TO.C,C40*%
X152850000Y-101413987D03*
X152850000Y-99863987D03*
%TD*%
D18*
%TO.C,C46*%
X213150000Y-109780000D03*
X214700000Y-109780000D03*
%TD*%
D15*
%TO.C,R48*%
X192250000Y-99486600D03*
X193900000Y-99486600D03*
%TD*%
D13*
%TO.C,R12*%
X201750000Y-64000000D03*
X200100000Y-64000000D03*
%TD*%
%TO.C,R17*%
X201750000Y-48750000D03*
X200100000Y-48750000D03*
%TD*%
D16*
%TO.C,U16*%
X186743286Y-101653300D03*
X186093288Y-101653300D03*
X185443286Y-101653300D03*
X184793288Y-101653300D03*
X184793288Y-105996700D03*
X185443286Y-105996700D03*
X186093288Y-105996700D03*
X186743286Y-105996700D03*
%TD*%
D29*
%TO.C,C42*%
X152850000Y-109475000D03*
X152850000Y-107925000D03*
%TD*%
D18*
%TO.C,C53*%
X192300000Y-97956600D03*
X193850000Y-97956600D03*
%TD*%
%TO.C,C57*%
X180700000Y-97956600D03*
X182250000Y-97956600D03*
%TD*%
D15*
%TO.C,R49*%
X189950000Y-108250000D03*
X191600000Y-108250000D03*
%TD*%
D28*
%TO.C,CB3*%
X156170000Y-108750000D03*
X157520000Y-108750000D03*
%TD*%
D11*
%TO.C,H3*%
X217750000Y-115250000D03*
%TD*%
D22*
%TO.C,J4*%
X194775000Y-41500000D03*
D23*
X192235000Y-41500000D03*
%TD*%
D29*
%TO.C,C38*%
X152850000Y-93975000D03*
X152850000Y-92425000D03*
%TD*%
D21*
%TO.C,C6*%
X188326175Y-105020000D03*
X188326175Y-105980000D03*
%TD*%
D19*
%TO.C,CBY9*%
X211275000Y-44750000D03*
X209725000Y-44750000D03*
%TD*%
D21*
%TO.C,C4*%
X199900000Y-105020000D03*
X199900000Y-105980000D03*
%TD*%
D13*
%TO.C,R11*%
X201750000Y-66000000D03*
X200100000Y-66000000D03*
%TD*%
D18*
%TO.C,C60*%
X172610000Y-109780000D03*
X174160000Y-109780000D03*
%TD*%
D27*
%TO.C,U6*%
X204325000Y-91319400D03*
X204975001Y-91319400D03*
X205624999Y-91319400D03*
X206275001Y-91319400D03*
X206924999Y-91319400D03*
X207574998Y-91319400D03*
X208224999Y-91319400D03*
X208874998Y-91319400D03*
X209524999Y-91319400D03*
X210174998Y-91319400D03*
X210175000Y-85680600D03*
X209525002Y-85680600D03*
X208875001Y-85680600D03*
X208225002Y-85680600D03*
X207575001Y-85680600D03*
X206925002Y-85680600D03*
X206275001Y-85680600D03*
X205625002Y-85680600D03*
X204975001Y-85680600D03*
X204325002Y-85680600D03*
%TD*%
D13*
%TO.C,R18*%
X201750000Y-46750000D03*
X200100000Y-46750000D03*
%TD*%
D21*
%TO.C,C1*%
X217250000Y-105020000D03*
X217250000Y-105980000D03*
%TD*%
D18*
%TO.C,C45*%
X215475000Y-97970000D03*
X217025000Y-97970000D03*
%TD*%
D30*
%TO.C,U2*%
X181850000Y-55062500D03*
X182350000Y-55062500D03*
X182850000Y-55062500D03*
X183350000Y-55062500D03*
X183850000Y-55062500D03*
X183850000Y-50762500D03*
X183350000Y-50762500D03*
X182850000Y-50762500D03*
X182350000Y-50762500D03*
X181850000Y-50762500D03*
%TD*%
D16*
%TO.C,U11*%
X215699999Y-101653300D03*
X215050001Y-101653300D03*
X214399999Y-101653300D03*
X213750001Y-101653300D03*
X213750001Y-105996700D03*
X214399999Y-105996700D03*
X215050001Y-105996700D03*
X215699999Y-105996700D03*
%TD*%
D13*
%TO.C,R16*%
X201750000Y-50750000D03*
X200100000Y-50750000D03*
%TD*%
D15*
%TO.C,R40*%
X215425000Y-99500000D03*
X217075000Y-99500000D03*
%TD*%
%TO.C,R42*%
X209635000Y-99500000D03*
X211285000Y-99500000D03*
%TD*%
%TO.C,R56*%
X169100000Y-99486600D03*
X170750000Y-99486600D03*
%TD*%
D18*
%TO.C,C54*%
X190000000Y-109780000D03*
X191550000Y-109780000D03*
%TD*%
D22*
%TO.C,J7*%
X143500000Y-91340000D03*
D23*
X143500000Y-88800000D03*
X143500000Y-86260000D03*
X143500000Y-83720000D03*
X143500000Y-81180000D03*
X143500000Y-78640000D03*
X143500000Y-76100000D03*
X143500000Y-73560000D03*
X143500000Y-71020000D03*
%TD*%
D18*
%TO.C,C48*%
X207360000Y-109780000D03*
X208910000Y-109780000D03*
%TD*%
D15*
%TO.C,R54*%
X174900000Y-99486600D03*
X176550000Y-99486600D03*
%TD*%
D13*
%TO.C,R15*%
X201750000Y-52750000D03*
X200100000Y-52750000D03*
%TD*%
D18*
%TO.C,C62*%
X166814340Y-109780000D03*
X168364340Y-109780000D03*
%TD*%
D15*
%TO.C,R55*%
X172560000Y-108250000D03*
X174210000Y-108250000D03*
%TD*%
D22*
%TO.C,J5*%
X217250000Y-90000000D03*
D23*
X217250000Y-87460000D03*
X217250000Y-84920000D03*
X217250000Y-82380000D03*
X217250000Y-79840000D03*
X217250000Y-77300000D03*
X217250000Y-74760000D03*
X217250000Y-72220000D03*
X217250000Y-69680000D03*
X217250000Y-67140000D03*
X217250000Y-64600000D03*
X217250000Y-62060000D03*
X217250000Y-59520000D03*
X217250000Y-56980000D03*
X217250000Y-54440000D03*
X217250000Y-51900000D03*
X217250000Y-49360000D03*
%TD*%
D16*
%TO.C,U12*%
X209908656Y-101653300D03*
X209258658Y-101653300D03*
X208608656Y-101653300D03*
X207958658Y-101653300D03*
X207958658Y-105996700D03*
X208608656Y-105996700D03*
X209258658Y-105996700D03*
X209908656Y-105996700D03*
%TD*%
D13*
%TO.C,R9*%
X201750000Y-74500000D03*
X200100000Y-74500000D03*
%TD*%
D15*
%TO.C,R50*%
X186450000Y-99486600D03*
X188100000Y-99486600D03*
%TD*%
D22*
%TO.C,J3*%
X143500000Y-97340000D03*
D23*
X143500000Y-99880000D03*
X143500000Y-102420000D03*
X143500000Y-104960000D03*
X143500000Y-107500000D03*
X143500000Y-110040000D03*
%TD*%
D18*
%TO.C,C50*%
X201560000Y-109780000D03*
X203110000Y-109780000D03*
%TD*%
D27*
%TO.C,U7*%
X204325000Y-78319400D03*
X204975001Y-78319400D03*
X205624999Y-78319400D03*
X206275001Y-78319400D03*
X206924999Y-78319400D03*
X207574998Y-78319400D03*
X208224999Y-78319400D03*
X208874998Y-78319400D03*
X209524999Y-78319400D03*
X210174998Y-78319400D03*
X210175000Y-72680600D03*
X209525002Y-72680600D03*
X208875001Y-72680600D03*
X208225002Y-72680600D03*
X207575001Y-72680600D03*
X206925002Y-72680600D03*
X206275001Y-72680600D03*
X205625002Y-72680600D03*
X204975001Y-72680600D03*
X204325002Y-72680600D03*
%TD*%
D28*
%TO.C,CB1*%
X156170000Y-93250000D03*
X157520000Y-93250000D03*
%TD*%
D21*
%TO.C,C2*%
X211500000Y-105020000D03*
X211500000Y-105980000D03*
%TD*%
D15*
%TO.C,R44*%
X203835000Y-99500000D03*
X205485000Y-99500000D03*
%TD*%
%TO.C,R2*%
X182700000Y-43662500D03*
X184350000Y-43662500D03*
%TD*%
D19*
%TO.C,C41*%
X157625000Y-110574999D03*
X156075000Y-110574999D03*
%TD*%
D13*
%TO.C,R3*%
X201750000Y-91500000D03*
X200100000Y-91500000D03*
%TD*%
D16*
%TO.C,U14*%
X198325971Y-101653300D03*
X197675973Y-101653300D03*
X197025971Y-101653300D03*
X196375973Y-101653300D03*
X196375973Y-105996700D03*
X197025971Y-105996700D03*
X197675973Y-105996700D03*
X198325971Y-105996700D03*
%TD*%
D13*
%TO.C,R4*%
X201750000Y-89500000D03*
X200100000Y-89500000D03*
%TD*%
D20*
%TO.C,U4*%
X152674998Y-103013985D03*
X152674998Y-103513986D03*
X152674998Y-104013986D03*
X152674998Y-104513987D03*
X154575000Y-104513987D03*
X154575000Y-104013986D03*
X154575000Y-103513986D03*
X154575000Y-103013985D03*
%TD*%
%TO.C,U3*%
X152674998Y-95574998D03*
X152674998Y-96074999D03*
X152674998Y-96574999D03*
X152674998Y-97075000D03*
X154575000Y-97075000D03*
X154575000Y-96574999D03*
X154575000Y-96074999D03*
X154575000Y-95574998D03*
%TD*%
D27*
%TO.C,U8*%
X204325001Y-65776348D03*
X204975002Y-65776348D03*
X205625000Y-65776348D03*
X206275002Y-65776348D03*
X206925000Y-65776348D03*
X207574999Y-65776348D03*
X208225000Y-65776348D03*
X208874999Y-65776348D03*
X209525000Y-65776348D03*
X210174999Y-65776348D03*
X210175001Y-60137548D03*
X209525003Y-60137548D03*
X208875002Y-60137548D03*
X208225003Y-60137548D03*
X207575002Y-60137548D03*
X206925003Y-60137548D03*
X206275002Y-60137548D03*
X205625003Y-60137548D03*
X204975002Y-60137548D03*
X204325003Y-60137548D03*
%TD*%
D18*
%TO.C,C52*%
X195760000Y-109780000D03*
X197310000Y-109780000D03*
%TD*%
M02*
