%TF.GenerationSoftware,KiCad,Pcbnew,10.0.5*%
%TF.CreationDate,2026-09-04T18:04:20-05:00*%
%TF.ProjectId,PVDX-ADCS-PMB,50564458-2d41-4444-9353-2d504d422e6b,rev?*%
%TF.SameCoordinates,Original*%
%TF.FileFunction,Drillmap*%
%TF.FilePolarity,Positive*%
%FSLAX45Y45*%
G04 Gerber Fmt 4.5, Leading zero omitted, Abs format (unit mm)*
G04 Created by KiCad (PCBNEW 10.0.5) date 2026-09-04 18:04:20*
%MOMM*%
%LPD*%
G01*
G04 APERTURE LIST*
%ADD10C,0.050000*%
%ADD11C,0.200000*%
%ADD12C,0.340000*%
G04 APERTURE END LIST*
D10*
X14000000Y-3750000D02*
X22250000Y-3750000D01*
X22250000Y-12000000D01*
X14000000Y-12000000D01*
X14000000Y-3750000D01*
D11*
D12*
X14305000Y-4055000D02*
X14645000Y-4395000D01*
X14645000Y-4055000D02*
X14305000Y-4395000D01*
X14305000Y-11355000D02*
X14645000Y-11695000D01*
X14645000Y-11355000D02*
X14305000Y-11695000D01*
X21605000Y-4055000D02*
X21945000Y-4395000D01*
X21945000Y-4055000D02*
X21605000Y-4395000D01*
X21605000Y-11355000D02*
X21945000Y-11695000D01*
X21945000Y-11355000D02*
X21605000Y-11695000D01*
D11*
X14258277Y-12313984D02*
X14258277Y-12113984D01*
X14258277Y-12113984D02*
X14305896Y-12113984D01*
X14305896Y-12113984D02*
X14334467Y-12123508D01*
X14334467Y-12123508D02*
X14353515Y-12142555D01*
X14353515Y-12142555D02*
X14363039Y-12161603D01*
X14363039Y-12161603D02*
X14372562Y-12199698D01*
X14372562Y-12199698D02*
X14372562Y-12228269D01*
X14372562Y-12228269D02*
X14363039Y-12266365D01*
X14363039Y-12266365D02*
X14353515Y-12285412D01*
X14353515Y-12285412D02*
X14334467Y-12304460D01*
X14334467Y-12304460D02*
X14305896Y-12313984D01*
X14305896Y-12313984D02*
X14258277Y-12313984D01*
X14458277Y-12313984D02*
X14458277Y-12180650D01*
X14458277Y-12218746D02*
X14467801Y-12199698D01*
X14467801Y-12199698D02*
X14477324Y-12190174D01*
X14477324Y-12190174D02*
X14496372Y-12180650D01*
X14496372Y-12180650D02*
X14515420Y-12180650D01*
X14582086Y-12313984D02*
X14582086Y-12180650D01*
X14582086Y-12113984D02*
X14572562Y-12123508D01*
X14572562Y-12123508D02*
X14582086Y-12133031D01*
X14582086Y-12133031D02*
X14591610Y-12123508D01*
X14591610Y-12123508D02*
X14582086Y-12113984D01*
X14582086Y-12113984D02*
X14582086Y-12133031D01*
X14705896Y-12313984D02*
X14686848Y-12304460D01*
X14686848Y-12304460D02*
X14677324Y-12285412D01*
X14677324Y-12285412D02*
X14677324Y-12113984D01*
X14810658Y-12313984D02*
X14791610Y-12304460D01*
X14791610Y-12304460D02*
X14782086Y-12285412D01*
X14782086Y-12285412D02*
X14782086Y-12113984D01*
X15039229Y-12313984D02*
X15039229Y-12113984D01*
X15039229Y-12113984D02*
X15105896Y-12256841D01*
X15105896Y-12256841D02*
X15172562Y-12113984D01*
X15172562Y-12113984D02*
X15172562Y-12313984D01*
X15353515Y-12313984D02*
X15353515Y-12209222D01*
X15353515Y-12209222D02*
X15343991Y-12190174D01*
X15343991Y-12190174D02*
X15324943Y-12180650D01*
X15324943Y-12180650D02*
X15286848Y-12180650D01*
X15286848Y-12180650D02*
X15267801Y-12190174D01*
X15353515Y-12304460D02*
X15334467Y-12313984D01*
X15334467Y-12313984D02*
X15286848Y-12313984D01*
X15286848Y-12313984D02*
X15267801Y-12304460D01*
X15267801Y-12304460D02*
X15258277Y-12285412D01*
X15258277Y-12285412D02*
X15258277Y-12266365D01*
X15258277Y-12266365D02*
X15267801Y-12247317D01*
X15267801Y-12247317D02*
X15286848Y-12237793D01*
X15286848Y-12237793D02*
X15334467Y-12237793D01*
X15334467Y-12237793D02*
X15353515Y-12228269D01*
X15448753Y-12180650D02*
X15448753Y-12380650D01*
X15448753Y-12190174D02*
X15467801Y-12180650D01*
X15467801Y-12180650D02*
X15505896Y-12180650D01*
X15505896Y-12180650D02*
X15524943Y-12190174D01*
X15524943Y-12190174D02*
X15534467Y-12199698D01*
X15534467Y-12199698D02*
X15543991Y-12218746D01*
X15543991Y-12218746D02*
X15543991Y-12275888D01*
X15543991Y-12275888D02*
X15534467Y-12294936D01*
X15534467Y-12294936D02*
X15524943Y-12304460D01*
X15524943Y-12304460D02*
X15505896Y-12313984D01*
X15505896Y-12313984D02*
X15467801Y-12313984D01*
X15467801Y-12313984D02*
X15448753Y-12304460D01*
X15629705Y-12294936D02*
X15639229Y-12304460D01*
X15639229Y-12304460D02*
X15629705Y-12313984D01*
X15629705Y-12313984D02*
X15620182Y-12304460D01*
X15620182Y-12304460D02*
X15629705Y-12294936D01*
X15629705Y-12294936D02*
X15629705Y-12313984D01*
X15629705Y-12190174D02*
X15639229Y-12199698D01*
X15639229Y-12199698D02*
X15629705Y-12209222D01*
X15629705Y-12209222D02*
X15620182Y-12199698D01*
X15620182Y-12199698D02*
X15629705Y-12190174D01*
X15629705Y-12190174D02*
X15629705Y-12209222D01*
X13797500Y-12542500D02*
X13997500Y-12742500D01*
X13997500Y-12542500D02*
X13797500Y-12742500D01*
X14239229Y-12533984D02*
X14363039Y-12533984D01*
X14363039Y-12533984D02*
X14296372Y-12610174D01*
X14296372Y-12610174D02*
X14324943Y-12610174D01*
X14324943Y-12610174D02*
X14343991Y-12619698D01*
X14343991Y-12619698D02*
X14353515Y-12629222D01*
X14353515Y-12629222D02*
X14363039Y-12648269D01*
X14363039Y-12648269D02*
X14363039Y-12695888D01*
X14363039Y-12695888D02*
X14353515Y-12714936D01*
X14353515Y-12714936D02*
X14343991Y-12724460D01*
X14343991Y-12724460D02*
X14324943Y-12733984D01*
X14324943Y-12733984D02*
X14267801Y-12733984D01*
X14267801Y-12733984D02*
X14248753Y-12724460D01*
X14248753Y-12724460D02*
X14239229Y-12714936D01*
X14448753Y-12714936D02*
X14458277Y-12724460D01*
X14458277Y-12724460D02*
X14448753Y-12733984D01*
X14448753Y-12733984D02*
X14439229Y-12724460D01*
X14439229Y-12724460D02*
X14448753Y-12714936D01*
X14448753Y-12714936D02*
X14448753Y-12733984D01*
X14629705Y-12600650D02*
X14629705Y-12733984D01*
X14582086Y-12524460D02*
X14534467Y-12667317D01*
X14534467Y-12667317D02*
X14658277Y-12667317D01*
X14772562Y-12533984D02*
X14791610Y-12533984D01*
X14791610Y-12533984D02*
X14810658Y-12543508D01*
X14810658Y-12543508D02*
X14820182Y-12553031D01*
X14820182Y-12553031D02*
X14829705Y-12572079D01*
X14829705Y-12572079D02*
X14839229Y-12610174D01*
X14839229Y-12610174D02*
X14839229Y-12657793D01*
X14839229Y-12657793D02*
X14829705Y-12695888D01*
X14829705Y-12695888D02*
X14820182Y-12714936D01*
X14820182Y-12714936D02*
X14810658Y-12724460D01*
X14810658Y-12724460D02*
X14791610Y-12733984D01*
X14791610Y-12733984D02*
X14772562Y-12733984D01*
X14772562Y-12733984D02*
X14753515Y-12724460D01*
X14753515Y-12724460D02*
X14743991Y-12714936D01*
X14743991Y-12714936D02*
X14734467Y-12695888D01*
X14734467Y-12695888D02*
X14724943Y-12657793D01*
X14724943Y-12657793D02*
X14724943Y-12610174D01*
X14724943Y-12610174D02*
X14734467Y-12572079D01*
X14734467Y-12572079D02*
X14743991Y-12553031D01*
X14743991Y-12553031D02*
X14753515Y-12543508D01*
X14753515Y-12543508D02*
X14772562Y-12533984D01*
X14963039Y-12533984D02*
X14982086Y-12533984D01*
X14982086Y-12533984D02*
X15001134Y-12543508D01*
X15001134Y-12543508D02*
X15010658Y-12553031D01*
X15010658Y-12553031D02*
X15020182Y-12572079D01*
X15020182Y-12572079D02*
X15029705Y-12610174D01*
X15029705Y-12610174D02*
X15029705Y-12657793D01*
X15029705Y-12657793D02*
X15020182Y-12695888D01*
X15020182Y-12695888D02*
X15010658Y-12714936D01*
X15010658Y-12714936D02*
X15001134Y-12724460D01*
X15001134Y-12724460D02*
X14982086Y-12733984D01*
X14982086Y-12733984D02*
X14963039Y-12733984D01*
X14963039Y-12733984D02*
X14943991Y-12724460D01*
X14943991Y-12724460D02*
X14934467Y-12714936D01*
X14934467Y-12714936D02*
X14924943Y-12695888D01*
X14924943Y-12695888D02*
X14915420Y-12657793D01*
X14915420Y-12657793D02*
X14915420Y-12610174D01*
X14915420Y-12610174D02*
X14924943Y-12572079D01*
X14924943Y-12572079D02*
X14934467Y-12553031D01*
X14934467Y-12553031D02*
X14943991Y-12543508D01*
X14943991Y-12543508D02*
X14963039Y-12533984D01*
X15115420Y-12733984D02*
X15115420Y-12600650D01*
X15115420Y-12619698D02*
X15124943Y-12610174D01*
X15124943Y-12610174D02*
X15143991Y-12600650D01*
X15143991Y-12600650D02*
X15172563Y-12600650D01*
X15172563Y-12600650D02*
X15191610Y-12610174D01*
X15191610Y-12610174D02*
X15201134Y-12629222D01*
X15201134Y-12629222D02*
X15201134Y-12733984D01*
X15201134Y-12629222D02*
X15210658Y-12610174D01*
X15210658Y-12610174D02*
X15229705Y-12600650D01*
X15229705Y-12600650D02*
X15258277Y-12600650D01*
X15258277Y-12600650D02*
X15277324Y-12610174D01*
X15277324Y-12610174D02*
X15286848Y-12629222D01*
X15286848Y-12629222D02*
X15286848Y-12733984D01*
X15382086Y-12733984D02*
X15382086Y-12600650D01*
X15382086Y-12619698D02*
X15391610Y-12610174D01*
X15391610Y-12610174D02*
X15410658Y-12600650D01*
X15410658Y-12600650D02*
X15439229Y-12600650D01*
X15439229Y-12600650D02*
X15458277Y-12610174D01*
X15458277Y-12610174D02*
X15467801Y-12629222D01*
X15467801Y-12629222D02*
X15467801Y-12733984D01*
X15467801Y-12629222D02*
X15477324Y-12610174D01*
X15477324Y-12610174D02*
X15496372Y-12600650D01*
X15496372Y-12600650D02*
X15524943Y-12600650D01*
X15524943Y-12600650D02*
X15543991Y-12610174D01*
X15543991Y-12610174D02*
X15553515Y-12629222D01*
X15553515Y-12629222D02*
X15553515Y-12733984D01*
X15943991Y-12524460D02*
X15772563Y-12781603D01*
X16201134Y-12533984D02*
X16220182Y-12533984D01*
X16220182Y-12533984D02*
X16239229Y-12543508D01*
X16239229Y-12543508D02*
X16248753Y-12553031D01*
X16248753Y-12553031D02*
X16258277Y-12572079D01*
X16258277Y-12572079D02*
X16267801Y-12610174D01*
X16267801Y-12610174D02*
X16267801Y-12657793D01*
X16267801Y-12657793D02*
X16258277Y-12695888D01*
X16258277Y-12695888D02*
X16248753Y-12714936D01*
X16248753Y-12714936D02*
X16239229Y-12724460D01*
X16239229Y-12724460D02*
X16220182Y-12733984D01*
X16220182Y-12733984D02*
X16201134Y-12733984D01*
X16201134Y-12733984D02*
X16182086Y-12724460D01*
X16182086Y-12724460D02*
X16172563Y-12714936D01*
X16172563Y-12714936D02*
X16163039Y-12695888D01*
X16163039Y-12695888D02*
X16153515Y-12657793D01*
X16153515Y-12657793D02*
X16153515Y-12610174D01*
X16153515Y-12610174D02*
X16163039Y-12572079D01*
X16163039Y-12572079D02*
X16172563Y-12553031D01*
X16172563Y-12553031D02*
X16182086Y-12543508D01*
X16182086Y-12543508D02*
X16201134Y-12533984D01*
X16353515Y-12714936D02*
X16363039Y-12724460D01*
X16363039Y-12724460D02*
X16353515Y-12733984D01*
X16353515Y-12733984D02*
X16343991Y-12724460D01*
X16343991Y-12724460D02*
X16353515Y-12714936D01*
X16353515Y-12714936D02*
X16353515Y-12733984D01*
X16553515Y-12733984D02*
X16439229Y-12733984D01*
X16496372Y-12733984D02*
X16496372Y-12533984D01*
X16496372Y-12533984D02*
X16477325Y-12562555D01*
X16477325Y-12562555D02*
X16458277Y-12581603D01*
X16458277Y-12581603D02*
X16439229Y-12591127D01*
X16620182Y-12533984D02*
X16743991Y-12533984D01*
X16743991Y-12533984D02*
X16677325Y-12610174D01*
X16677325Y-12610174D02*
X16705896Y-12610174D01*
X16705896Y-12610174D02*
X16724944Y-12619698D01*
X16724944Y-12619698D02*
X16734467Y-12629222D01*
X16734467Y-12629222D02*
X16743991Y-12648269D01*
X16743991Y-12648269D02*
X16743991Y-12695888D01*
X16743991Y-12695888D02*
X16734467Y-12714936D01*
X16734467Y-12714936D02*
X16724944Y-12724460D01*
X16724944Y-12724460D02*
X16705896Y-12733984D01*
X16705896Y-12733984D02*
X16648753Y-12733984D01*
X16648753Y-12733984D02*
X16629706Y-12724460D01*
X16629706Y-12724460D02*
X16620182Y-12714936D01*
X16810658Y-12533984D02*
X16934468Y-12533984D01*
X16934468Y-12533984D02*
X16867801Y-12610174D01*
X16867801Y-12610174D02*
X16896372Y-12610174D01*
X16896372Y-12610174D02*
X16915420Y-12619698D01*
X16915420Y-12619698D02*
X16924944Y-12629222D01*
X16924944Y-12629222D02*
X16934468Y-12648269D01*
X16934468Y-12648269D02*
X16934468Y-12695888D01*
X16934468Y-12695888D02*
X16924944Y-12714936D01*
X16924944Y-12714936D02*
X16915420Y-12724460D01*
X16915420Y-12724460D02*
X16896372Y-12733984D01*
X16896372Y-12733984D02*
X16839229Y-12733984D01*
X16839229Y-12733984D02*
X16820182Y-12724460D01*
X16820182Y-12724460D02*
X16810658Y-12714936D01*
X17029706Y-12733984D02*
X17067801Y-12733984D01*
X17067801Y-12733984D02*
X17086849Y-12724460D01*
X17086849Y-12724460D02*
X17096372Y-12714936D01*
X17096372Y-12714936D02*
X17115420Y-12686365D01*
X17115420Y-12686365D02*
X17124944Y-12648269D01*
X17124944Y-12648269D02*
X17124944Y-12572079D01*
X17124944Y-12572079D02*
X17115420Y-12553031D01*
X17115420Y-12553031D02*
X17105896Y-12543508D01*
X17105896Y-12543508D02*
X17086849Y-12533984D01*
X17086849Y-12533984D02*
X17048753Y-12533984D01*
X17048753Y-12533984D02*
X17029706Y-12543508D01*
X17029706Y-12543508D02*
X17020182Y-12553031D01*
X17020182Y-12553031D02*
X17010658Y-12572079D01*
X17010658Y-12572079D02*
X17010658Y-12619698D01*
X17010658Y-12619698D02*
X17020182Y-12638746D01*
X17020182Y-12638746D02*
X17029706Y-12648269D01*
X17029706Y-12648269D02*
X17048753Y-12657793D01*
X17048753Y-12657793D02*
X17086849Y-12657793D01*
X17086849Y-12657793D02*
X17105896Y-12648269D01*
X17105896Y-12648269D02*
X17115420Y-12638746D01*
X17115420Y-12638746D02*
X17124944Y-12619698D01*
X17201134Y-12533984D02*
X17201134Y-12572079D01*
X17277325Y-12533984D02*
X17277325Y-12572079D01*
X17572563Y-12810174D02*
X17563039Y-12800650D01*
X17563039Y-12800650D02*
X17543991Y-12772079D01*
X17543991Y-12772079D02*
X17534468Y-12753031D01*
X17534468Y-12753031D02*
X17524944Y-12724460D01*
X17524944Y-12724460D02*
X17515420Y-12676841D01*
X17515420Y-12676841D02*
X17515420Y-12638746D01*
X17515420Y-12638746D02*
X17524944Y-12591127D01*
X17524944Y-12591127D02*
X17534468Y-12562555D01*
X17534468Y-12562555D02*
X17543991Y-12543508D01*
X17543991Y-12543508D02*
X17563039Y-12514936D01*
X17563039Y-12514936D02*
X17572563Y-12505412D01*
X17734468Y-12600650D02*
X17734468Y-12733984D01*
X17686849Y-12524460D02*
X17639230Y-12667317D01*
X17639230Y-12667317D02*
X17763039Y-12667317D01*
X17991611Y-12733984D02*
X17991611Y-12533984D01*
X18077325Y-12733984D02*
X18077325Y-12629222D01*
X18077325Y-12629222D02*
X18067801Y-12610174D01*
X18067801Y-12610174D02*
X18048753Y-12600650D01*
X18048753Y-12600650D02*
X18020182Y-12600650D01*
X18020182Y-12600650D02*
X18001134Y-12610174D01*
X18001134Y-12610174D02*
X17991611Y-12619698D01*
X18201134Y-12733984D02*
X18182087Y-12724460D01*
X18182087Y-12724460D02*
X18172563Y-12714936D01*
X18172563Y-12714936D02*
X18163039Y-12695888D01*
X18163039Y-12695888D02*
X18163039Y-12638746D01*
X18163039Y-12638746D02*
X18172563Y-12619698D01*
X18172563Y-12619698D02*
X18182087Y-12610174D01*
X18182087Y-12610174D02*
X18201134Y-12600650D01*
X18201134Y-12600650D02*
X18229706Y-12600650D01*
X18229706Y-12600650D02*
X18248753Y-12610174D01*
X18248753Y-12610174D02*
X18258277Y-12619698D01*
X18258277Y-12619698D02*
X18267801Y-12638746D01*
X18267801Y-12638746D02*
X18267801Y-12695888D01*
X18267801Y-12695888D02*
X18258277Y-12714936D01*
X18258277Y-12714936D02*
X18248753Y-12724460D01*
X18248753Y-12724460D02*
X18229706Y-12733984D01*
X18229706Y-12733984D02*
X18201134Y-12733984D01*
X18382087Y-12733984D02*
X18363039Y-12724460D01*
X18363039Y-12724460D02*
X18353515Y-12705412D01*
X18353515Y-12705412D02*
X18353515Y-12533984D01*
X18534468Y-12724460D02*
X18515420Y-12733984D01*
X18515420Y-12733984D02*
X18477325Y-12733984D01*
X18477325Y-12733984D02*
X18458277Y-12724460D01*
X18458277Y-12724460D02*
X18448753Y-12705412D01*
X18448753Y-12705412D02*
X18448753Y-12629222D01*
X18448753Y-12629222D02*
X18458277Y-12610174D01*
X18458277Y-12610174D02*
X18477325Y-12600650D01*
X18477325Y-12600650D02*
X18515420Y-12600650D01*
X18515420Y-12600650D02*
X18534468Y-12610174D01*
X18534468Y-12610174D02*
X18543992Y-12629222D01*
X18543992Y-12629222D02*
X18543992Y-12648269D01*
X18543992Y-12648269D02*
X18448753Y-12667317D01*
X18620182Y-12724460D02*
X18639230Y-12733984D01*
X18639230Y-12733984D02*
X18677325Y-12733984D01*
X18677325Y-12733984D02*
X18696373Y-12724460D01*
X18696373Y-12724460D02*
X18705896Y-12705412D01*
X18705896Y-12705412D02*
X18705896Y-12695888D01*
X18705896Y-12695888D02*
X18696373Y-12676841D01*
X18696373Y-12676841D02*
X18677325Y-12667317D01*
X18677325Y-12667317D02*
X18648753Y-12667317D01*
X18648753Y-12667317D02*
X18629706Y-12657793D01*
X18629706Y-12657793D02*
X18620182Y-12638746D01*
X18620182Y-12638746D02*
X18620182Y-12629222D01*
X18620182Y-12629222D02*
X18629706Y-12610174D01*
X18629706Y-12610174D02*
X18648753Y-12600650D01*
X18648753Y-12600650D02*
X18677325Y-12600650D01*
X18677325Y-12600650D02*
X18696373Y-12610174D01*
X18772563Y-12810174D02*
X18782087Y-12800650D01*
X18782087Y-12800650D02*
X18801134Y-12772079D01*
X18801134Y-12772079D02*
X18810658Y-12753031D01*
X18810658Y-12753031D02*
X18820182Y-12724460D01*
X18820182Y-12724460D02*
X18829706Y-12676841D01*
X18829706Y-12676841D02*
X18829706Y-12638746D01*
X18829706Y-12638746D02*
X18820182Y-12591127D01*
X18820182Y-12591127D02*
X18810658Y-12562555D01*
X18810658Y-12562555D02*
X18801134Y-12543508D01*
X18801134Y-12543508D02*
X18782087Y-12514936D01*
X18782087Y-12514936D02*
X18772563Y-12505412D01*
X19134468Y-12810174D02*
X19124944Y-12800650D01*
X19124944Y-12800650D02*
X19105896Y-12772079D01*
X19105896Y-12772079D02*
X19096373Y-12753031D01*
X19096373Y-12753031D02*
X19086849Y-12724460D01*
X19086849Y-12724460D02*
X19077325Y-12676841D01*
X19077325Y-12676841D02*
X19077325Y-12638746D01*
X19077325Y-12638746D02*
X19086849Y-12591127D01*
X19086849Y-12591127D02*
X19096373Y-12562555D01*
X19096373Y-12562555D02*
X19105896Y-12543508D01*
X19105896Y-12543508D02*
X19124944Y-12514936D01*
X19124944Y-12514936D02*
X19134468Y-12505412D01*
X19210658Y-12600650D02*
X19210658Y-12733984D01*
X19210658Y-12619698D02*
X19220182Y-12610174D01*
X19220182Y-12610174D02*
X19239230Y-12600650D01*
X19239230Y-12600650D02*
X19267801Y-12600650D01*
X19267801Y-12600650D02*
X19286849Y-12610174D01*
X19286849Y-12610174D02*
X19296373Y-12629222D01*
X19296373Y-12629222D02*
X19296373Y-12733984D01*
X19420182Y-12733984D02*
X19401134Y-12724460D01*
X19401134Y-12724460D02*
X19391611Y-12714936D01*
X19391611Y-12714936D02*
X19382087Y-12695888D01*
X19382087Y-12695888D02*
X19382087Y-12638746D01*
X19382087Y-12638746D02*
X19391611Y-12619698D01*
X19391611Y-12619698D02*
X19401134Y-12610174D01*
X19401134Y-12610174D02*
X19420182Y-12600650D01*
X19420182Y-12600650D02*
X19448754Y-12600650D01*
X19448754Y-12600650D02*
X19467801Y-12610174D01*
X19467801Y-12610174D02*
X19477325Y-12619698D01*
X19477325Y-12619698D02*
X19486849Y-12638746D01*
X19486849Y-12638746D02*
X19486849Y-12695888D01*
X19486849Y-12695888D02*
X19477325Y-12714936D01*
X19477325Y-12714936D02*
X19467801Y-12724460D01*
X19467801Y-12724460D02*
X19448754Y-12733984D01*
X19448754Y-12733984D02*
X19420182Y-12733984D01*
X19543992Y-12600650D02*
X19620182Y-12600650D01*
X19572563Y-12533984D02*
X19572563Y-12705412D01*
X19572563Y-12705412D02*
X19582087Y-12724460D01*
X19582087Y-12724460D02*
X19601134Y-12733984D01*
X19601134Y-12733984D02*
X19620182Y-12733984D01*
X19839230Y-12600650D02*
X19839230Y-12800650D01*
X19839230Y-12610174D02*
X19858277Y-12600650D01*
X19858277Y-12600650D02*
X19896373Y-12600650D01*
X19896373Y-12600650D02*
X19915420Y-12610174D01*
X19915420Y-12610174D02*
X19924944Y-12619698D01*
X19924944Y-12619698D02*
X19934468Y-12638746D01*
X19934468Y-12638746D02*
X19934468Y-12695888D01*
X19934468Y-12695888D02*
X19924944Y-12714936D01*
X19924944Y-12714936D02*
X19915420Y-12724460D01*
X19915420Y-12724460D02*
X19896373Y-12733984D01*
X19896373Y-12733984D02*
X19858277Y-12733984D01*
X19858277Y-12733984D02*
X19839230Y-12724460D01*
X20048754Y-12733984D02*
X20029706Y-12724460D01*
X20029706Y-12724460D02*
X20020182Y-12705412D01*
X20020182Y-12705412D02*
X20020182Y-12533984D01*
X20210658Y-12733984D02*
X20210658Y-12629222D01*
X20210658Y-12629222D02*
X20201135Y-12610174D01*
X20201135Y-12610174D02*
X20182087Y-12600650D01*
X20182087Y-12600650D02*
X20143992Y-12600650D01*
X20143992Y-12600650D02*
X20124944Y-12610174D01*
X20210658Y-12724460D02*
X20191611Y-12733984D01*
X20191611Y-12733984D02*
X20143992Y-12733984D01*
X20143992Y-12733984D02*
X20124944Y-12724460D01*
X20124944Y-12724460D02*
X20115420Y-12705412D01*
X20115420Y-12705412D02*
X20115420Y-12686365D01*
X20115420Y-12686365D02*
X20124944Y-12667317D01*
X20124944Y-12667317D02*
X20143992Y-12657793D01*
X20143992Y-12657793D02*
X20191611Y-12657793D01*
X20191611Y-12657793D02*
X20210658Y-12648269D01*
X20277325Y-12600650D02*
X20353515Y-12600650D01*
X20305896Y-12533984D02*
X20305896Y-12705412D01*
X20305896Y-12705412D02*
X20315420Y-12724460D01*
X20315420Y-12724460D02*
X20334468Y-12733984D01*
X20334468Y-12733984D02*
X20353515Y-12733984D01*
X20496373Y-12724460D02*
X20477325Y-12733984D01*
X20477325Y-12733984D02*
X20439230Y-12733984D01*
X20439230Y-12733984D02*
X20420182Y-12724460D01*
X20420182Y-12724460D02*
X20410658Y-12705412D01*
X20410658Y-12705412D02*
X20410658Y-12629222D01*
X20410658Y-12629222D02*
X20420182Y-12610174D01*
X20420182Y-12610174D02*
X20439230Y-12600650D01*
X20439230Y-12600650D02*
X20477325Y-12600650D01*
X20477325Y-12600650D02*
X20496373Y-12610174D01*
X20496373Y-12610174D02*
X20505896Y-12629222D01*
X20505896Y-12629222D02*
X20505896Y-12648269D01*
X20505896Y-12648269D02*
X20410658Y-12667317D01*
X20677325Y-12733984D02*
X20677325Y-12533984D01*
X20677325Y-12724460D02*
X20658277Y-12733984D01*
X20658277Y-12733984D02*
X20620182Y-12733984D01*
X20620182Y-12733984D02*
X20601135Y-12724460D01*
X20601135Y-12724460D02*
X20591611Y-12714936D01*
X20591611Y-12714936D02*
X20582087Y-12695888D01*
X20582087Y-12695888D02*
X20582087Y-12638746D01*
X20582087Y-12638746D02*
X20591611Y-12619698D01*
X20591611Y-12619698D02*
X20601135Y-12610174D01*
X20601135Y-12610174D02*
X20620182Y-12600650D01*
X20620182Y-12600650D02*
X20658277Y-12600650D01*
X20658277Y-12600650D02*
X20677325Y-12610174D01*
X20753516Y-12810174D02*
X20763039Y-12800650D01*
X20763039Y-12800650D02*
X20782087Y-12772079D01*
X20782087Y-12772079D02*
X20791611Y-12753031D01*
X20791611Y-12753031D02*
X20801135Y-12724460D01*
X20801135Y-12724460D02*
X20810658Y-12676841D01*
X20810658Y-12676841D02*
X20810658Y-12638746D01*
X20810658Y-12638746D02*
X20801135Y-12591127D01*
X20801135Y-12591127D02*
X20791611Y-12562555D01*
X20791611Y-12562555D02*
X20782087Y-12543508D01*
X20782087Y-12543508D02*
X20763039Y-12514936D01*
X20763039Y-12514936D02*
X20753516Y-12505412D01*
M02*
