M48
; DRILL file KiCad 10.0.5 date 2026-09-04T18:04:20
; FORMAT={-:-/ absolute / metric / decimal}
; #@! TF.CreationDate,2026-09-04T18:04:20-05:00
; #@! TF.GenerationSoftware,Kicad,Pcbnew,10.0.5
; #@! TF.FileFunction,Plated,1,4,PTH
FMAT,2
METRIC
; #@! TA.AperFunction,Plated,PTH,ViaDrill
T1C0.300
; #@! TA.AperFunction,Plated,PTH,ComponentDrill
T2C1.000
%
G90
G05
T1
X152.5Y-44.0
X153.5Y-45.9
X153.625Y-96.725
X153.625Y-104.164
X153.625Y-112.225
X153.625Y-95.925
X153.625Y-103.364
X153.625Y-111.425
X154.3Y-45.9
X154.5Y-92.25
X154.5Y-93.75
X154.5Y-99.689
X154.5Y-101.189
X154.5Y-107.75
X154.5Y-109.25
X155.1Y-45.9
X155.9Y-45.9
X156.7Y-45.9
X156.75Y-96.5
X156.75Y-103.939
X156.75Y-112.0
X157.5Y-45.9
X158.3Y-45.9
X159.0Y-94.75
X159.0Y-102.189
X159.0Y-110.25
X159.1Y-45.9
X159.9Y-45.9
X160.7Y-45.9
X161.5Y-45.9
X162.3Y-45.9
X163.0Y-44.0
X163.1Y-45.9
X163.9Y-45.9
X164.7Y-45.9
X165.5Y-114.0
X165.5Y-45.9
X166.0Y-101.75
X166.0Y-103.0
X166.0Y-104.5
X166.0Y-107.0
X166.3Y-45.9
X167.1Y-45.9
X167.75Y-99.75
X169.9Y-111.1
X170.933Y-104.0
X171.2Y-75.3
X171.4Y-96.4
X171.4Y-107.3
X171.8Y-103.1
X171.899Y-101.849
X171.9Y-104.75
X171.933Y-106.0
X172.0Y-100.4
X173.4Y-111.1
X174.6Y-78.5
X175.9Y-96.4
X176.724Y-104.0
X177.3Y-107.1
X177.45Y-62.8
X177.6Y-102.9
X177.7Y-100.4
X177.7Y-104.7
X177.724Y-106.0
X177.75Y-101.75
X178.95Y-62.8
X179.6Y-49.5
X179.7Y-111.2
X181.4Y-56.6
X181.5Y-43.7
X181.8Y-96.4
X182.522Y-104.0
X183.2Y-107.2
X183.4Y-102.9
X183.5Y-100.4
X183.5Y-104.8
X183.514Y-101.747
X183.522Y-106.0
X185.0Y-50.03
X185.4Y-111.2
X187.25Y-48.675
X187.3Y-96.4
X188.326Y-104.0
X188.8Y-107.2
X189.2Y-102.875
X189.3Y-100.4
X189.3Y-104.8
X189.314Y-101.747
X189.326Y-106.0
X191.4Y-111.2
X193.0Y-96.4
X194.106Y-104.0
X194.7Y-107.2
X195.0Y-102.8
X195.1Y-100.4
X195.1Y-104.8
X195.106Y-106.0
X195.114Y-101.647
X197.1Y-111.2
X198.8Y-96.4
X199.5Y-54.25
X199.5Y-67.5
X199.5Y-80.0
X199.5Y-93.1
X199.9Y-104.0
X200.6Y-107.3
X200.8Y-102.8
X200.889Y-101.647
X200.9Y-100.4
X200.9Y-104.8
X200.9Y-106.0
X202.975Y-72.525
X202.975Y-76.525
X202.975Y-78.525
X203.0Y-46.794
X203.0Y-48.794
X203.0Y-50.794
X203.0Y-52.794
X203.0Y-59.994
X203.0Y-61.994
X203.0Y-63.994
X203.0Y-65.994
X203.0Y-74.5
X203.0Y-85.5
X203.0Y-87.5
X203.0Y-89.5
X203.0Y-91.5
X204.0Y-111.2
X204.7Y-96.4
X205.689Y-104.0
X206.256Y-70.75
X206.264Y-58.25
X206.275Y-83.75
X206.299Y-45.139
X206.4Y-107.3
X206.6Y-102.8
X206.689Y-106.0
X206.689Y-101.622
X206.7Y-100.4
X206.7Y-104.8
X206.75Y-93.25
X206.755Y-80.25
X206.762Y-67.688
X206.784Y-54.443
X207.2Y-48.4
X207.2Y-61.5
X207.2Y-74.1
X207.2Y-87.0
X207.3Y-51.2
X207.3Y-64.4
X207.3Y-76.9
X207.3Y-90.0
X207.731Y-69.9
X207.739Y-57.4
X207.75Y-82.9
X207.774Y-44.289
X207.801Y-93.65
X207.806Y-80.65
X207.814Y-68.087
X207.835Y-54.843
X208.356Y-70.85
X208.364Y-58.35
X208.375Y-83.85
X208.399Y-45.239
X208.971Y-54.606
X209.0Y-67.8
X209.0Y-111.2
X209.1Y-93.65
X209.105Y-80.65
X210.6Y-96.4
X211.5Y-104.0
X212.2Y-107.2
X212.4Y-102.8
X212.481Y-70.25
X212.489Y-101.647
X212.489Y-57.75
X212.5Y-83.25
X212.5Y-100.4
X212.5Y-104.8
X212.5Y-106.0
X212.524Y-44.639
X215.7Y-111.2
X216.2Y-96.4
X217.25Y-104.0
X218.25Y-106.0
T2
X143.5Y-71.02
X143.5Y-73.56
X143.5Y-76.1
X143.5Y-78.64
X143.5Y-81.18
X143.5Y-83.72
X143.5Y-86.26
X143.5Y-88.8
X143.5Y-91.34
X143.5Y-97.34
X143.5Y-99.88
X143.5Y-102.42
X143.5Y-104.96
X143.5Y-107.5
X143.5Y-110.04
X168.94Y-114.0
X168.94Y-116.54
X171.48Y-114.0
X171.48Y-116.54
X173.21Y-41.5
X174.02Y-114.0
X174.02Y-116.54
X175.75Y-41.5
X176.56Y-114.0
X176.56Y-116.54
X178.29Y-41.5
X179.1Y-114.0
X179.1Y-116.54
X181.64Y-114.0
X181.64Y-116.54
X184.18Y-114.0
X184.18Y-116.54
X186.72Y-114.0
X186.72Y-116.54
X189.26Y-114.0
X189.26Y-116.54
X191.8Y-114.0
X191.8Y-116.54
X192.235Y-41.5
X194.34Y-114.0
X194.34Y-116.54
X194.775Y-41.5
X196.88Y-114.0
X196.88Y-116.54
X199.42Y-114.0
X199.42Y-116.54
X201.96Y-114.0
X201.96Y-116.54
X204.5Y-114.0
X204.5Y-116.54
X207.04Y-114.0
X207.04Y-116.54
X209.58Y-114.0
X209.58Y-116.54
X212.12Y-114.0
X212.12Y-116.54
X217.25Y-49.36
X217.25Y-51.9
X217.25Y-54.44
X217.25Y-56.98
X217.25Y-59.52
X217.25Y-62.06
X217.25Y-64.6
X217.25Y-67.14
X217.25Y-69.68
X217.25Y-72.22
X217.25Y-74.76
X217.25Y-77.3
X217.25Y-79.84
X217.25Y-82.38
X217.25Y-84.92
X217.25Y-87.46
X217.25Y-90.0
M30
