%TF.GenerationSoftware,KiCad,Pcbnew,10.0.5*%
%TF.CreationDate,2026-09-04T18:02:26-05:00*%
%TF.ProjectId,PVDX-ADCS-PMB,50564458-2d41-4444-9353-2d504d422e6b,rev?*%
%TF.SameCoordinates,Original*%
%TF.FileFunction,Copper,L4,Bot*%
%TF.FilePolarity,Positive*%
%FSLAX46Y46*%
G04 Gerber Fmt 4.6, Leading zero omitted, Abs format (unit mm)*
G04 Created by KiCad (PCBNEW 10.0.5) date 2026-09-04 18:02:26*
%MOMM*%
%LPD*%
G01*
G04 APERTURE LIST*
%TA.AperFunction,ComponentPad*%
%ADD10R,1.700000X1.700000*%
%TD*%
%TA.AperFunction,ComponentPad*%
%ADD11C,1.700000*%
%TD*%
%TA.AperFunction,ViaPad*%
%ADD12C,0.600000*%
%TD*%
%TA.AperFunction,Conductor*%
%ADD13C,0.200000*%
%TD*%
G04 APERTURE END LIST*
D10*
%TO.P,J6,1,Pin_1_1*%
%TO.N,VDAC*%
X178290000Y-41500000D03*
D11*
%TO.P,J6,2,Pin_2_2*%
%TO.N,SDA*%
X175750000Y-41500000D03*
%TO.P,J6,3,Pin_3_3*%
%TO.N,SCK*%
X173210000Y-41500000D03*
%TD*%
D10*
%TO.P,J1,1,Pin_1_1*%
%TO.N,PDGND*%
X212120000Y-114000000D03*
D11*
%TO.P,J1,2,Pin_2_2*%
%TO.N,PD1*%
X212120000Y-116540000D03*
%TO.P,J1,3,Pin_3_3*%
%TO.N,PDGND*%
X209580000Y-114000000D03*
%TO.P,J1,4,Pin_4_4*%
%TO.N,PD2*%
X209580000Y-116540000D03*
%TO.P,J1,5,Pin_5_5*%
%TO.N,PDGND*%
X207040000Y-114000000D03*
%TO.P,J1,6,Pin_6_6*%
%TO.N,PD3*%
X207040000Y-116540000D03*
%TO.P,J1,7,Pin_7_7*%
%TO.N,PDGND*%
X204500000Y-114000000D03*
%TO.P,J1,8,Pin_8_8*%
%TO.N,PD4*%
X204500000Y-116540000D03*
%TO.P,J1,9,Pin_9_9*%
%TO.N,PDGND*%
X201960000Y-114000000D03*
%TO.P,J1,10,Pin_10_10*%
%TO.N,PD5*%
X201960000Y-116540000D03*
%TO.P,J1,11,Pin_11_11*%
%TO.N,PDGND*%
X199420000Y-114000000D03*
%TO.P,J1,12,Pin_12_12*%
%TO.N,PD6*%
X199420000Y-116540000D03*
%TO.P,J1,13,Pin_13_13*%
%TO.N,PDGND*%
X196880000Y-114000000D03*
%TO.P,J1,14,Pin_14_14*%
%TO.N,PD7*%
X196880000Y-116540000D03*
%TO.P,J1,15,Pin_15_15*%
%TO.N,PDGND*%
X194340000Y-114000000D03*
%TO.P,J1,16,Pin_16_16*%
%TO.N,PD8*%
X194340000Y-116540000D03*
%TO.P,J1,17,Pin_17_17*%
%TO.N,PDGND*%
X191800000Y-114000000D03*
%TO.P,J1,18,Pin_18_18*%
%TO.N,PD9*%
X191800000Y-116540000D03*
%TO.P,J1,19,Pin_19_19*%
%TO.N,PDGND*%
X189260000Y-114000000D03*
%TO.P,J1,20,Pin_20_20*%
%TO.N,PD10*%
X189260000Y-116540000D03*
%TO.P,J1,21,Pin_21_21*%
%TO.N,PDGND*%
X186720000Y-114000000D03*
%TO.P,J1,22,Pin_22_22*%
%TO.N,PD11*%
X186720000Y-116540000D03*
%TO.P,J1,23,Pin_23_23*%
%TO.N,PDGND*%
X184180000Y-114000000D03*
%TO.P,J1,24,Pin_24_24*%
%TO.N,PD12*%
X184180000Y-116540000D03*
%TO.P,J1,25,Pin_25_25*%
%TO.N,PDGND*%
X181640000Y-114000000D03*
%TO.P,J1,26,Pin_26_26*%
%TO.N,PD13*%
X181640000Y-116540000D03*
%TO.P,J1,27,Pin_27_27*%
%TO.N,PDGND*%
X179100000Y-114000000D03*
%TO.P,J1,28,Pin_28_28*%
%TO.N,PD14*%
X179100000Y-116540000D03*
%TO.P,J1,29,Pin_29_29*%
%TO.N,PDGND*%
X176560000Y-114000000D03*
%TO.P,J1,30,Pin_30_30*%
%TO.N,PD15*%
X176560000Y-116540000D03*
%TO.P,J1,31,Pin_31_31*%
%TO.N,PDGND*%
X174020000Y-114000000D03*
%TO.P,J1,32,Pin_32_32*%
%TO.N,PD16*%
X174020000Y-116540000D03*
%TO.P,J1,33,Pin_33_33*%
%TO.N,PDGND*%
X171480000Y-114000000D03*
%TO.P,J1,34,Pin_34_34*%
%TO.N,PD17*%
X171480000Y-116540000D03*
%TO.P,J1,35,Pin_35_35*%
%TO.N,PDGND*%
X168940000Y-114000000D03*
%TO.P,J1,36,Pin_36_36*%
%TO.N,PD18*%
X168940000Y-116540000D03*
%TD*%
D10*
%TO.P,J4,1,Pin_1_1*%
%TO.N,GND*%
X194775000Y-41500000D03*
D11*
%TO.P,J4,2,Pin_2_2*%
%TO.N,+3V3*%
X192235000Y-41500000D03*
%TD*%
D10*
%TO.P,J7,1,Pin_1_1*%
%TO.N,MSLEEP1*%
X143500000Y-91340000D03*
D11*
%TO.P,J7,2,Pin_2_2*%
%TO.N,MCTRL1_1*%
X143500000Y-88800000D03*
%TO.P,J7,3,Pin_3_3*%
%TO.N,MCTRL1_2*%
X143500000Y-86260000D03*
%TO.P,J7,4,Pin_4_4*%
%TO.N,MSLEEP2*%
X143500000Y-83720000D03*
%TO.P,J7,5,Pin_5_5*%
%TO.N,MCTRL2_1*%
X143500000Y-81180000D03*
%TO.P,J7,6,Pin_6_6*%
%TO.N,MCTRL2_2*%
X143500000Y-78640000D03*
%TO.P,J7,7,Pin_7_7*%
%TO.N,MSLEEP3*%
X143500000Y-76100000D03*
%TO.P,J7,8,Pin_8_8*%
%TO.N,MCTRL3_1*%
X143500000Y-73560000D03*
%TO.P,J7,9,Pin_9_9*%
%TO.N,MCTRL3_2*%
X143500000Y-71020000D03*
%TD*%
D10*
%TO.P,J5,1,Pin_1_1*%
%TO.N,PIXEL1+*%
X217250000Y-90000000D03*
D11*
%TO.P,J5,2,Pin_2_2*%
%TO.N,PIXEL2+*%
X217250000Y-87460000D03*
%TO.P,J5,3,Pin_3_3*%
%TO.N,PIXEL3+*%
X217250000Y-84920000D03*
%TO.P,J5,4,Pin_4_4*%
%TO.N,PIXEL4+*%
X217250000Y-82380000D03*
%TO.P,J5,5,Pin_5_5*%
%TO.N,PIXEL5+*%
X217250000Y-79840000D03*
%TO.P,J5,6,Pin_6_6*%
%TO.N,PIXEL6+*%
X217250000Y-77300000D03*
%TO.P,J5,7,Pin_7_7*%
%TO.N,PIXEL7+*%
X217250000Y-74760000D03*
%TO.P,J5,8,Pin_8_8*%
%TO.N,PIXEL8+*%
X217250000Y-72220000D03*
%TO.P,J5,9,Pin_9_9*%
%TO.N,GND*%
X217250000Y-69680000D03*
%TO.P,J5,10,Pin_10_10*%
%TO.N,PIXEL9+*%
X217250000Y-67140000D03*
%TO.P,J5,11,Pin_11_11*%
%TO.N,PIXEL10+*%
X217250000Y-64600000D03*
%TO.P,J5,12,Pin_12_12*%
%TO.N,PIXEL11+*%
X217250000Y-62060000D03*
%TO.P,J5,13,Pin_13_13*%
%TO.N,PIXEL12+*%
X217250000Y-59520000D03*
%TO.P,J5,14,Pin_14_14*%
%TO.N,PIXEL13+*%
X217250000Y-56980000D03*
%TO.P,J5,15,Pin_15_15*%
%TO.N,PIXEL14+*%
X217250000Y-54440000D03*
%TO.P,J5,16,Pin_16_16*%
%TO.N,PIXEL15+*%
X217250000Y-51900000D03*
%TO.P,J5,17,Pin_17_17*%
%TO.N,PIXEL16+*%
X217250000Y-49360000D03*
%TD*%
D10*
%TO.P,J3,1,Pin_1_1*%
%TO.N,MTQ1+*%
X143500000Y-97340000D03*
D11*
%TO.P,J3,2,Pin_2_2*%
%TO.N,MTQ1-*%
X143500000Y-99880000D03*
%TO.P,J3,3,Pin_3_3*%
%TO.N,MTQ2+*%
X143500000Y-102420000D03*
%TO.P,J3,4,Pin_4_4*%
%TO.N,MTQ2-*%
X143500000Y-104960000D03*
%TO.P,J3,5,Pin_5_5*%
%TO.N,MTQ3+*%
X143500000Y-107500000D03*
%TO.P,J3,6,Pin_6_6*%
%TO.N,MTQ3-*%
X143500000Y-110040000D03*
%TD*%
D12*
%TO.N,+3V3*%
X207731424Y-69900000D03*
X218250000Y-106000000D03*
X156750000Y-112000000D03*
X206688686Y-106000000D03*
X156750000Y-103938987D03*
X177723952Y-106000000D03*
X154500000Y-93750000D03*
X171933411Y-106000000D03*
X207774397Y-44289052D03*
X189326175Y-106000000D03*
X207739399Y-57400000D03*
X200900000Y-106000000D03*
X212500000Y-106000000D03*
X207750000Y-82900000D03*
X195106268Y-106000000D03*
X178950000Y-62800000D03*
X156750000Y-96500000D03*
X183522001Y-106000000D03*
X154500000Y-109250000D03*
X154500000Y-101188987D03*
X174600000Y-78500000D03*
X187250000Y-48675000D03*
%TO.N,GND*%
X199900000Y-104000000D03*
X166000000Y-101750000D03*
X181500000Y-43700000D03*
X206688959Y-101621700D03*
X212488959Y-101646700D03*
X194106268Y-104000000D03*
X185000000Y-50030000D03*
X154500000Y-107750000D03*
X199500000Y-80000000D03*
X154500000Y-99688987D03*
X212489399Y-57750000D03*
X199500000Y-67500000D03*
X159000000Y-102188987D03*
X212500000Y-83250000D03*
X212481424Y-70250000D03*
X183513959Y-101746700D03*
X153625000Y-111424999D03*
X159000000Y-110250000D03*
X212524397Y-44639052D03*
X211500000Y-104000000D03*
X153624999Y-96724999D03*
X200888959Y-101646700D03*
X159000000Y-94750000D03*
X170933411Y-104000000D03*
X154500000Y-92250000D03*
X182522001Y-104000000D03*
X207806473Y-80650000D03*
X153625000Y-103363986D03*
X188326175Y-104000000D03*
X217250000Y-104000000D03*
X189313959Y-101746700D03*
X163000000Y-44000000D03*
X195113959Y-101646700D03*
X153624999Y-112224999D03*
X152500000Y-44000000D03*
X205688686Y-104000000D03*
X177750000Y-101750000D03*
X199500000Y-54250000D03*
X153624999Y-104163986D03*
X207813973Y-68087500D03*
X181400000Y-56600000D03*
X199500000Y-93100000D03*
X207835320Y-54843099D03*
X171200000Y-75300000D03*
X176723952Y-104000000D03*
X153625000Y-95924999D03*
X171899265Y-101849265D03*
X207801473Y-93650000D03*
X177450000Y-62800000D03*
X165500000Y-114000000D03*
%TO.N,Net-(U6-S3B)*%
X208375000Y-83850000D03*
X203000000Y-87500000D03*
%TO.N,PD12*%
X183500000Y-104800000D03*
%TO.N,PD12_OUT*%
X185400000Y-111200000D03*
X158300006Y-45900000D03*
%TO.N,PD17_OUT*%
X171400000Y-96400000D03*
X154300000Y-45900000D03*
%TO.N,PD17*%
X166000000Y-103000000D03*
%TO.N,PDGND*%
X177300000Y-107100000D03*
X183200000Y-107200000D03*
X166000000Y-107000000D03*
X212200000Y-107200000D03*
X200900000Y-100400000D03*
X183500000Y-100400000D03*
X212500000Y-100400000D03*
X171400000Y-107300000D03*
X206700000Y-100400000D03*
X167750000Y-99750000D03*
X189300000Y-100400000D03*
X188800000Y-107200000D03*
X194700000Y-107200000D03*
X200600000Y-107300000D03*
X206400000Y-107300000D03*
X195100000Y-100400000D03*
X172000000Y-100400000D03*
X177700000Y-100400000D03*
%TO.N,PD18*%
X166000000Y-104500000D03*
%TO.N,PD18_OUT*%
X169900000Y-111100000D03*
X153500000Y-45900000D03*
%TO.N,PD8*%
X195100000Y-104800000D03*
%TO.N,PD8_OUT*%
X161500018Y-45900000D03*
X197100000Y-111200000D03*
%TO.N,PD7*%
X195000000Y-102800000D03*
%TO.N,PD7_OUT*%
X162300021Y-45900000D03*
X198800000Y-96400000D03*
%TO.N,Net-(U6-S4B)*%
X206275001Y-83750000D03*
X203000000Y-85500000D03*
%TO.N,PD13*%
X177600000Y-102900000D03*
%TO.N,PD13_OUT*%
X157500003Y-45900000D03*
X181800000Y-96400000D03*
%TO.N,Net-(U7-S4B)*%
X206256425Y-70750000D03*
X202974998Y-72525001D03*
%TO.N,Net-(U8-S4B)*%
X206264400Y-58250000D03*
X202999997Y-59994401D03*
%TO.N,PD2*%
X212500000Y-104800000D03*
%TO.N,PD2_OUT*%
X166300036Y-45900000D03*
X215700000Y-111200000D03*
%TO.N,PD5*%
X200800000Y-102800000D03*
%TO.N,PD5_OUT*%
X163900027Y-45900000D03*
X204700000Y-96400000D03*
%TO.N,PIXEL+*%
X207200000Y-61500000D03*
X207300000Y-76900000D03*
X207300000Y-90000000D03*
X207300000Y-51200000D03*
X207300000Y-64400000D03*
X207200000Y-48400000D03*
X207200000Y-87000000D03*
X179600000Y-49500000D03*
X207200000Y-74100000D03*
%TO.N,PD15_OUT*%
X175900000Y-96400000D03*
X155900000Y-45900000D03*
%TO.N,PD15*%
X171800000Y-103100000D03*
%TO.N,PD16*%
X171900000Y-104750000D03*
%TO.N,PD16_OUT*%
X155100000Y-45900000D03*
X173400000Y-111100000D03*
%TO.N,PD11*%
X183400000Y-102900000D03*
%TO.N,PD11_OUT*%
X187300000Y-96400000D03*
X159100009Y-45900000D03*
%TO.N,PD1_OUT*%
X167100039Y-45900000D03*
X216200000Y-96400000D03*
%TO.N,PD3_OUT*%
X210600000Y-96400000D03*
X165500033Y-45900000D03*
%TO.N,PD4_OUT*%
X164700030Y-45900000D03*
X209000000Y-111200000D03*
%TO.N,PD6_OUT*%
X204000000Y-111200000D03*
X163100024Y-45900000D03*
%TO.N,PD9_OUT*%
X193000000Y-96400000D03*
X160700015Y-45900000D03*
%TO.N,PD10_OUT*%
X159900012Y-45900000D03*
X191400000Y-111200000D03*
%TO.N,PD14_OUT*%
X179700000Y-111200000D03*
X156700000Y-45900000D03*
%TO.N,Net-(U9-S1B)*%
X206783847Y-54443099D03*
X202999997Y-52794401D03*
%TO.N,Net-(U9-S2B)*%
X208971347Y-54605599D03*
X202999997Y-50794401D03*
%TO.N,Net-(U9-S3B)*%
X208399397Y-45239052D03*
X202999997Y-48794401D03*
%TO.N,Net-(U9-S4B)*%
X206299398Y-45139052D03*
X202999997Y-46794401D03*
%TO.N,PD14*%
X177700000Y-104700000D03*
%TO.N,PD6*%
X200900000Y-104800000D03*
%TO.N,Net-(U7-S2B)*%
X209105000Y-80650000D03*
X202974998Y-76525001D03*
%TO.N,PD9*%
X189200000Y-102875000D03*
%TO.N,PD10*%
X189300000Y-104800000D03*
%TO.N,Net-(U7-S1B)*%
X202974998Y-78525001D03*
X206755000Y-80250000D03*
%TO.N,PD3*%
X206600000Y-102800000D03*
%TO.N,PD4*%
X206700000Y-104800000D03*
%TO.N,Net-(U8-S3B)*%
X208364399Y-58350000D03*
X202999997Y-61994401D03*
%TO.N,PD1*%
X212400000Y-102800000D03*
%TO.N,Net-(U8-S2B)*%
X209000000Y-67800000D03*
X202999997Y-63994401D03*
%TO.N,Net-(U8-S1B)*%
X202999997Y-65994401D03*
X206762500Y-67687500D03*
%TO.N,Net-(U6-S1B)*%
X206750000Y-93250000D03*
X203000000Y-91500000D03*
%TO.N,Net-(U6-S2B)*%
X203000000Y-89500000D03*
X209100000Y-93650000D03*
%TO.N,Net-(U7-S3B)*%
X203000000Y-74500000D03*
X208356424Y-70850000D03*
%TD*%
%TO.N,Net-(U6-S3B)*%
D13*
X203000000Y-87500000D02*
X204725000Y-87500000D01*
X204725000Y-87500000D02*
X208375000Y-83850000D01*
X208225002Y-83750000D02*
X208225002Y-83874998D01*
%TO.N,PD12*%
X186100000Y-107400000D02*
X183500000Y-104800000D01*
X184180000Y-116540000D02*
X185500000Y-115220000D01*
X185500000Y-113353654D02*
X186100000Y-112753654D01*
X186100000Y-112753654D02*
X186100000Y-107400000D01*
X185500000Y-115220000D02*
X185500000Y-113353654D01*
%TO.N,PD12_OUT*%
X183448529Y-106600000D02*
X182100000Y-106600000D01*
X185400000Y-108551471D02*
X183448529Y-106600000D01*
X158300006Y-75500006D02*
X158300006Y-45900000D01*
X183300000Y-96900000D02*
X182100000Y-95700000D01*
X178500000Y-95700000D02*
X158300006Y-75500006D01*
X182100000Y-106600000D02*
X180900000Y-105400000D01*
X183300000Y-98900000D02*
X183300000Y-96900000D01*
X180900000Y-105400000D02*
X180900000Y-101300000D01*
X180900000Y-101300000D02*
X183300000Y-98900000D01*
X185400000Y-111200000D02*
X185400000Y-108551471D01*
X182100000Y-95700000D02*
X178500000Y-95700000D01*
%TO.N,PD17_OUT*%
X171400000Y-94100000D02*
X154300000Y-77000000D01*
X171400000Y-96400000D02*
X171400000Y-94100000D01*
X154300000Y-77000000D02*
X154300000Y-45900000D01*
%TO.N,PD17*%
X167350000Y-110435685D02*
X167350000Y-104350000D01*
X167350000Y-104350000D02*
X166000000Y-103000000D01*
X170200000Y-115260000D02*
X170200000Y-113285685D01*
X170200000Y-113285685D02*
X167350000Y-110435685D01*
X171480000Y-116540000D02*
X170200000Y-115260000D01*
%TO.N,PDGND*%
X178900000Y-108700000D02*
X177300000Y-107100000D01*
X199420000Y-114000000D02*
X200600000Y-112820000D01*
X184300000Y-108300000D02*
X183200000Y-107200000D01*
X188550000Y-103125000D02*
X188975000Y-103550000D01*
X211800000Y-101100000D02*
X212500000Y-100400000D01*
X207890000Y-104938529D02*
X206000000Y-103048529D01*
X212120000Y-114000000D02*
X213967157Y-112152843D01*
X182800000Y-103251471D02*
X186720000Y-107171471D01*
X213967157Y-105215686D02*
X211800000Y-103048529D01*
X194300000Y-102948529D02*
X194300000Y-101200000D01*
X204500000Y-114000000D02*
X204500000Y-113500000D01*
X172000000Y-100400000D02*
X172000000Y-100800000D01*
X182800000Y-101500000D02*
X182800000Y-103251471D01*
X168940000Y-114000000D02*
X166000000Y-111060000D01*
X174020000Y-114000000D02*
X171400000Y-111380000D01*
X192500000Y-105700000D02*
X192500000Y-113300000D01*
X201960000Y-105011471D02*
X200200000Y-103251471D01*
X194300000Y-101200000D02*
X195100000Y-100400000D01*
X188975000Y-103550000D02*
X190350000Y-103550000D01*
X171551471Y-103700000D02*
X172048529Y-103700000D01*
X176560000Y-108211471D02*
X176560000Y-114000000D01*
X206400000Y-111600000D02*
X206400000Y-107300000D01*
X190350000Y-103550000D02*
X192500000Y-105700000D01*
X198200000Y-112680000D02*
X198200000Y-106000000D01*
X167750000Y-110270000D02*
X167750000Y-99750000D01*
X200200000Y-103251471D02*
X200200000Y-101100000D01*
X183500000Y-100800000D02*
X182800000Y-101500000D01*
X207040000Y-114000000D02*
X207890000Y-113150000D01*
X200600000Y-112820000D02*
X200600000Y-107300000D01*
X204500000Y-113500000D02*
X206400000Y-111600000D01*
X200200000Y-101100000D02*
X200900000Y-100400000D01*
X196880000Y-114000000D02*
X198200000Y-112680000D01*
X171200000Y-103348529D02*
X171551471Y-103700000D01*
X209600000Y-109800000D02*
X212200000Y-107200000D01*
X206000000Y-101100000D02*
X206700000Y-100400000D01*
X192500000Y-113300000D02*
X191800000Y-114000000D01*
X207890000Y-113150000D02*
X207890000Y-104938529D01*
X181640000Y-107791471D02*
X181640000Y-114000000D01*
X171200000Y-101600000D02*
X171200000Y-103348529D01*
X177700000Y-100800000D02*
X177000000Y-101500000D01*
X171480000Y-114000000D02*
X167750000Y-110270000D01*
X194340000Y-114000000D02*
X194340000Y-107560000D01*
X172048529Y-103700000D02*
X176560000Y-108211471D01*
X189260000Y-107660000D02*
X188800000Y-107200000D01*
X213967157Y-112152843D02*
X213967157Y-105215686D01*
X189300000Y-100825000D02*
X188550000Y-101575000D01*
X209600000Y-113980000D02*
X209600000Y-109800000D01*
X188550000Y-101575000D02*
X188550000Y-103125000D01*
X198200000Y-106000000D02*
X195700000Y-103500000D01*
X194340000Y-107560000D02*
X194700000Y-107200000D01*
X201960000Y-114000000D02*
X201960000Y-105011471D01*
X177700000Y-100400000D02*
X177700000Y-100800000D01*
X206000000Y-103048529D02*
X206000000Y-101100000D01*
X189300000Y-100400000D02*
X189300000Y-100825000D01*
X195700000Y-103500000D02*
X194851471Y-103500000D01*
X172000000Y-100800000D02*
X171200000Y-101600000D01*
X186720000Y-107171471D02*
X186720000Y-114000000D01*
X189260000Y-114000000D02*
X189260000Y-107660000D01*
X184180000Y-114000000D02*
X184300000Y-113880000D01*
X184300000Y-113880000D02*
X184300000Y-108300000D01*
X178900000Y-113800000D02*
X178900000Y-108700000D01*
X166000000Y-111060000D02*
X166000000Y-107000000D01*
X194851471Y-103500000D02*
X194300000Y-102948529D01*
X177000000Y-101500000D02*
X177000000Y-103151471D01*
X211800000Y-103048529D02*
X211800000Y-101100000D01*
X179100000Y-114000000D02*
X178900000Y-113800000D01*
X177000000Y-103151471D02*
X181640000Y-107791471D01*
X171400000Y-111380000D02*
X171400000Y-107300000D01*
X183500000Y-100400000D02*
X183500000Y-100800000D01*
X209580000Y-114000000D02*
X209600000Y-113980000D01*
%TO.N,PD18*%
X168940000Y-116540000D02*
X165400000Y-113000000D01*
X165400000Y-105100000D02*
X166000000Y-104500000D01*
X165400000Y-113000000D02*
X165400000Y-105100000D01*
%TO.N,PD18_OUT*%
X169900000Y-111100000D02*
X169900000Y-93700000D01*
X153500000Y-77300000D02*
X153500000Y-45900000D01*
X169900000Y-93700000D02*
X153500000Y-77300000D01*
%TO.N,PD8*%
X195706268Y-115173732D02*
X195706268Y-105406268D01*
X194340000Y-116540000D02*
X195706268Y-115173732D01*
X195706268Y-105406268D02*
X195100000Y-104800000D01*
%TO.N,PD8_OUT*%
X161500018Y-74300018D02*
X161500018Y-45900000D01*
X180100000Y-92900000D02*
X161500018Y-74300018D01*
X193800000Y-104600000D02*
X192900000Y-103700000D01*
X194400000Y-104600000D02*
X193800000Y-104600000D01*
X197100000Y-105951471D02*
X195348529Y-104200000D01*
X190700000Y-92900000D02*
X180100000Y-92900000D01*
X194000000Y-96200000D02*
X190700000Y-92900000D01*
X192900000Y-101800000D02*
X194000000Y-100700000D01*
X197100000Y-111200000D02*
X197100000Y-105951471D01*
X195348529Y-104200000D02*
X194800000Y-104200000D01*
X194000000Y-100700000D02*
X194000000Y-96200000D01*
X194800000Y-104200000D02*
X194400000Y-104600000D01*
X192900000Y-103700000D02*
X192900000Y-101800000D01*
%TO.N,PD7*%
X196880000Y-116540000D02*
X198100000Y-115320000D01*
X198100000Y-115320000D02*
X198100000Y-113693654D01*
X198900000Y-105700000D02*
X196000000Y-102800000D01*
X198900000Y-112893654D02*
X198900000Y-105700000D01*
X198100000Y-113693654D02*
X198900000Y-112893654D01*
X196000000Y-102800000D02*
X195000000Y-102800000D01*
%TO.N,PD7_OUT*%
X195400000Y-96400000D02*
X191200000Y-92200000D01*
X198800000Y-96400000D02*
X195400000Y-96400000D01*
X162300021Y-74000021D02*
X162300021Y-45900000D01*
X180500000Y-92200000D02*
X162300021Y-74000021D01*
X191200000Y-92200000D02*
X180500000Y-92200000D01*
%TO.N,Net-(U6-S4B)*%
X204750000Y-83750000D02*
X203000000Y-85500000D01*
X206275001Y-83750000D02*
X204750000Y-83750000D01*
%TO.N,PD13*%
X181640000Y-116540000D02*
X182900000Y-115280000D01*
X182900000Y-108200000D02*
X177600000Y-102900000D01*
X182900000Y-115280000D02*
X182900000Y-108200000D01*
%TO.N,PD13_OUT*%
X157500003Y-75800003D02*
X157500003Y-45900000D01*
X181800000Y-96400000D02*
X178100000Y-96400000D01*
X178100000Y-96400000D02*
X157500003Y-75800003D01*
%TO.N,Net-(U7-S4B)*%
X206267023Y-70744401D02*
X204742022Y-70744401D01*
X206256425Y-70750000D02*
X204731424Y-70750000D01*
X204742022Y-70744401D02*
X202992022Y-72494401D01*
X204731424Y-70750000D02*
X202981424Y-72500000D01*
%TO.N,Net-(U8-S4B)*%
X204749997Y-58244401D02*
X202999997Y-59994401D01*
X204739399Y-58250000D02*
X202989399Y-60000000D01*
X206274998Y-58244401D02*
X204749997Y-58244401D01*
X206264400Y-58250000D02*
X204739399Y-58250000D01*
%TO.N,PD2*%
X209580000Y-116540000D02*
X210850000Y-115270000D01*
X210850000Y-109398529D02*
X213500000Y-106748529D01*
X213500000Y-106748529D02*
X213500000Y-105400000D01*
X213500000Y-105400000D02*
X212900000Y-104800000D01*
X212900000Y-104800000D02*
X212500000Y-104800000D01*
X210850000Y-115270000D02*
X210850000Y-109398529D01*
%TO.N,PD2_OUT*%
X182500000Y-88700000D02*
X166300036Y-72500036D01*
X207200000Y-95700000D02*
X204400000Y-92900000D01*
X204400000Y-92900000D02*
X201800000Y-92900000D01*
X211100000Y-95700000D02*
X207200000Y-95700000D01*
X215700000Y-111200000D02*
X215700000Y-100300000D01*
X166300036Y-72500036D02*
X166300036Y-45900000D01*
X197600000Y-88700000D02*
X182500000Y-88700000D01*
X215700000Y-100300000D02*
X211100000Y-95700000D01*
X201800000Y-92900000D02*
X197600000Y-88700000D01*
%TO.N,PD5*%
X203200000Y-113613654D02*
X202900000Y-113313654D01*
X202900000Y-104900000D02*
X200800000Y-102800000D01*
X201960000Y-116540000D02*
X203200000Y-115300000D01*
X203200000Y-115300000D02*
X203200000Y-113613654D01*
X202900000Y-113313654D02*
X202900000Y-104900000D01*
%TO.N,PD5_OUT*%
X204700000Y-96400000D02*
X201400000Y-96400000D01*
X181300000Y-90800000D02*
X163900027Y-73400027D01*
X200000000Y-95000000D02*
X196200000Y-95000000D01*
X196200000Y-95000000D02*
X192000000Y-90800000D01*
X163900027Y-73400027D02*
X163900027Y-45900000D01*
X201400000Y-96400000D02*
X200000000Y-95000000D01*
X192000000Y-90800000D02*
X181300000Y-90800000D01*
%TO.N,PIXEL+*%
X207200000Y-48400000D02*
X207700000Y-48900000D01*
X191300000Y-58500000D02*
X188600000Y-58500000D01*
X193805599Y-63394401D02*
X193800000Y-63400000D01*
X205500000Y-88100000D02*
X202400000Y-88100000D01*
X202400000Y-88100000D02*
X193800000Y-79500000D01*
X193800000Y-61000000D02*
X191300000Y-58500000D01*
X193405599Y-50194401D02*
X186850000Y-56750000D01*
X206600000Y-87000000D02*
X205500000Y-88100000D01*
X207200000Y-61500000D02*
X206400000Y-61500000D01*
X204805599Y-50194401D02*
X193405599Y-50194401D01*
X193800000Y-63400000D02*
X193800000Y-61000000D01*
X206400000Y-61500000D02*
X204505599Y-63394401D01*
X193800000Y-79500000D02*
X193800000Y-75900000D01*
X207200000Y-61500000D02*
X207800000Y-62100000D01*
X207700000Y-50800000D02*
X207300000Y-51200000D01*
X207800000Y-63900000D02*
X207300000Y-64400000D01*
X204674999Y-75925001D02*
X193825001Y-75925001D01*
X188600000Y-58500000D02*
X186850000Y-56750000D01*
X193800000Y-75900000D02*
X193800000Y-63400000D01*
X207800000Y-62100000D02*
X207800000Y-63900000D01*
X207200000Y-48400000D02*
X206600000Y-48400000D01*
X207700000Y-48900000D02*
X207700000Y-50800000D01*
X193825001Y-75925001D02*
X193800000Y-75900000D01*
X207800000Y-76400000D02*
X207800000Y-74700000D01*
X207300000Y-76900000D02*
X207800000Y-76400000D01*
X207200000Y-87000000D02*
X206600000Y-87000000D01*
X207900000Y-87700000D02*
X207200000Y-87000000D01*
X207800000Y-74700000D02*
X207200000Y-74100000D01*
X207300000Y-90000000D02*
X207900000Y-89400000D01*
X207200000Y-74100000D02*
X206500000Y-74100000D01*
X186850000Y-56750000D02*
X179600000Y-49500000D01*
X206500000Y-74100000D02*
X204674999Y-75925001D01*
X207900000Y-89400000D02*
X207900000Y-87700000D01*
X206600000Y-48400000D02*
X204805599Y-50194401D01*
X204505599Y-63394401D02*
X193805599Y-63394401D01*
%TO.N,PD15_OUT*%
X175900000Y-96400000D02*
X155900000Y-76400000D01*
X155900000Y-76400000D02*
X155900000Y-45900000D01*
%TO.N,PD15*%
X177710000Y-108795785D02*
X176600000Y-107685785D01*
X177710000Y-115390000D02*
X177710000Y-108795785D01*
X176600000Y-106500000D02*
X173200000Y-103100000D01*
X176600000Y-107685785D02*
X176600000Y-106500000D01*
X173200000Y-103100000D02*
X171800000Y-103100000D01*
X176560000Y-116540000D02*
X177710000Y-115390000D01*
%TO.N,PD16*%
X171900000Y-104750000D02*
X172250000Y-104750000D01*
X175300000Y-107800000D02*
X175300000Y-115260000D01*
X175300000Y-115260000D02*
X174020000Y-116540000D01*
X172250000Y-104750000D02*
X175300000Y-107800000D01*
%TO.N,PD16_OUT*%
X172148529Y-105350000D02*
X171434882Y-105350000D01*
X172900000Y-94500000D02*
X155100000Y-76700000D01*
X173400000Y-106601471D02*
X172148529Y-105350000D01*
X170333411Y-104248529D02*
X170333411Y-98666589D01*
X170333411Y-98666589D02*
X172900000Y-96100000D01*
X172900000Y-96100000D02*
X172900000Y-94500000D01*
X173400000Y-111100000D02*
X173400000Y-106601471D01*
X171434882Y-105350000D02*
X170333411Y-104248529D01*
X155100000Y-76700000D02*
X155100000Y-45900000D01*
%TO.N,PD11*%
X183400000Y-102900000D02*
X183400000Y-103100000D01*
X183400000Y-103100000D02*
X188000000Y-107700000D01*
X188000000Y-107700000D02*
X188000000Y-115260000D01*
X188000000Y-115260000D02*
X186720000Y-116540000D01*
%TO.N,PD11_OUT*%
X159100009Y-75200009D02*
X159100009Y-45900000D01*
X187300000Y-96400000D02*
X185900000Y-95000000D01*
X178900000Y-95000000D02*
X159100009Y-75200009D01*
X185900000Y-95000000D02*
X178900000Y-95000000D01*
%TO.N,PD1_OUT*%
X214700000Y-94900000D02*
X207500000Y-94900000D01*
X198100000Y-88000000D02*
X182900000Y-88000000D01*
X207500000Y-94900000D02*
X204800000Y-92200000D01*
X182900000Y-88000000D02*
X167100039Y-72200039D01*
X167100039Y-72200039D02*
X167100039Y-45900000D01*
X216200000Y-96400000D02*
X214700000Y-94900000D01*
X202300000Y-92200000D02*
X198100000Y-88000000D01*
X204800000Y-92200000D02*
X202300000Y-92200000D01*
%TO.N,PD3_OUT*%
X201400000Y-93600000D02*
X197200000Y-89400000D01*
X210600000Y-96400000D02*
X206800000Y-96400000D01*
X206800000Y-96400000D02*
X204000000Y-93600000D01*
X204000000Y-93600000D02*
X201400000Y-93600000D01*
X182100000Y-89400000D02*
X165500033Y-72800033D01*
X165500033Y-72800033D02*
X165500033Y-45900000D01*
X197200000Y-89400000D02*
X182100000Y-89400000D01*
%TO.N,PD4_OUT*%
X209000000Y-101200000D02*
X207300000Y-99500000D01*
X203600000Y-94300000D02*
X196550000Y-94300000D01*
X209000000Y-111200000D02*
X209000000Y-101200000D01*
X207300000Y-98000000D02*
X203600000Y-94300000D01*
X207300000Y-99500000D02*
X207300000Y-98000000D01*
X164700030Y-73100030D02*
X164700030Y-45900000D01*
X196550000Y-94300000D02*
X192350000Y-90100000D01*
X192350000Y-90100000D02*
X181700000Y-90100000D01*
X181700000Y-90100000D02*
X164700030Y-73100030D01*
%TO.N,PD6_OUT*%
X204000000Y-111200000D02*
X204000000Y-100100000D01*
X195800000Y-95700000D02*
X191600000Y-91500000D01*
X163100024Y-73700024D02*
X163100024Y-45900000D01*
X199600000Y-95700000D02*
X195800000Y-95700000D01*
X204000000Y-100100000D02*
X199600000Y-95700000D01*
X180900000Y-91500000D02*
X163100024Y-73700024D01*
X191600000Y-91500000D02*
X180900000Y-91500000D01*
%TO.N,PD9_OUT*%
X179700000Y-93600000D02*
X160700015Y-74600015D01*
X190200000Y-93600000D02*
X179700000Y-93600000D01*
X160700015Y-74600015D02*
X160700015Y-45900000D01*
X193000000Y-96400000D02*
X190200000Y-93600000D01*
%TO.N,PD10_OUT*%
X188600000Y-95900000D02*
X187000000Y-94300000D01*
X191400000Y-105700000D02*
X189800000Y-104100000D01*
X186100000Y-102800000D02*
X186100000Y-100200000D01*
X189100000Y-104100000D02*
X188600000Y-104600000D01*
X186100000Y-100200000D02*
X188600000Y-97700000D01*
X189800000Y-104100000D02*
X189100000Y-104100000D01*
X179300000Y-94300000D02*
X159900012Y-74900012D01*
X187000000Y-94300000D02*
X179300000Y-94300000D01*
X188600000Y-97700000D02*
X188600000Y-95900000D01*
X188600000Y-104600000D02*
X187900000Y-104600000D01*
X191400000Y-111200000D02*
X191400000Y-105700000D01*
X187900000Y-104600000D02*
X186100000Y-102800000D01*
X159900012Y-74900012D02*
X159900012Y-45900000D01*
%TO.N,PD14_OUT*%
X156700000Y-76100000D02*
X156700000Y-45900000D01*
X179700000Y-107051471D02*
X177948529Y-105300000D01*
X176123952Y-100176048D02*
X177800000Y-98500000D01*
X177800000Y-98500000D02*
X177800000Y-97200000D01*
X177948529Y-105300000D02*
X177175423Y-105300000D01*
X177800000Y-97200000D02*
X156700000Y-76100000D01*
X176123952Y-104248529D02*
X176123952Y-100176048D01*
X179700000Y-111200000D02*
X179700000Y-107051471D01*
X177175423Y-105300000D02*
X176123952Y-104248529D01*
%TO.N,Net-(U9-S1B)*%
X205135149Y-52794401D02*
X206783847Y-54443099D01*
X202999997Y-52794401D02*
X205135149Y-52794401D01*
%TO.N,Net-(U9-S2B)*%
X202999997Y-50794401D02*
X205160149Y-50794401D01*
X205160149Y-50794401D02*
X208971347Y-54605599D01*
%TO.N,Net-(U9-S3B)*%
X202999997Y-48794401D02*
X204844048Y-48794401D01*
X204844048Y-48794401D02*
X208399397Y-45239052D01*
X208249399Y-45139052D02*
X208249399Y-45264050D01*
%TO.N,Net-(U9-S4B)*%
X204644049Y-46794401D02*
X206299398Y-45139052D01*
X202999997Y-46794401D02*
X204644049Y-46794401D01*
%TO.N,PD14*%
X177982843Y-104700000D02*
X177700000Y-104700000D01*
X179100000Y-116540000D02*
X180400000Y-115240000D01*
X180400000Y-107117157D02*
X177982843Y-104700000D01*
X180400000Y-115240000D02*
X180400000Y-107117157D01*
%TO.N,PD6*%
X200700000Y-115260000D02*
X200700000Y-113285686D01*
X200700000Y-113285686D02*
X201507371Y-112478315D01*
X199420000Y-116540000D02*
X200700000Y-115260000D01*
X201507371Y-105407371D02*
X200900000Y-104800000D01*
X201507371Y-112478315D02*
X201507371Y-105407371D01*
%TO.N,Net-(U7-S2B)*%
X204980001Y-76525001D02*
X209105000Y-80650000D01*
X202974998Y-76525001D02*
X204980001Y-76525001D01*
%TO.N,PD9*%
X193100000Y-105200000D02*
X190700000Y-102800000D01*
X193100000Y-115240000D02*
X193100000Y-105200000D01*
X191800000Y-116540000D02*
X193100000Y-115240000D01*
X190700000Y-102800000D02*
X189200000Y-102800000D01*
%TO.N,PD10*%
X190500000Y-115300000D02*
X190500000Y-106000000D01*
X189260000Y-116540000D02*
X190500000Y-115300000D01*
X190500000Y-106000000D02*
X189300000Y-104800000D01*
%TO.N,Net-(U7-S1B)*%
X204724998Y-80275001D02*
X202974998Y-78525001D01*
X206724998Y-80275001D02*
X204724998Y-80275001D01*
%TO.N,PD3*%
X208300000Y-104500000D02*
X206600000Y-102800000D01*
X207040000Y-116540000D02*
X208300000Y-115280000D01*
X208300000Y-115280000D02*
X208300000Y-104500000D01*
%TO.N,PD4*%
X205800000Y-115240000D02*
X205800000Y-113265685D01*
X207288686Y-111776999D02*
X207288686Y-105388686D01*
X207288686Y-105388686D02*
X206700000Y-104800000D01*
X205800000Y-113265685D02*
X207288686Y-111776999D01*
X204500000Y-116540000D02*
X205800000Y-115240000D01*
%TO.N,Net-(U8-S3B)*%
X202999997Y-61994401D02*
X204719998Y-61994401D01*
X204719998Y-61994401D02*
X208364399Y-58350000D01*
X208214401Y-58250000D02*
X208214401Y-58374998D01*
%TO.N,PD1*%
X214100000Y-113600000D02*
X214500000Y-113200000D01*
X214100000Y-114560000D02*
X214100000Y-113600000D01*
X214500000Y-104900000D02*
X212400000Y-102800000D01*
X212120000Y-116540000D02*
X214100000Y-114560000D01*
X214500000Y-113200000D02*
X214500000Y-104900000D01*
%TO.N,Net-(U8-S2B)*%
X202999997Y-63994401D02*
X205194401Y-63994401D01*
X205194401Y-63994401D02*
X209000000Y-67800000D01*
%TO.N,Net-(U8-S1B)*%
X206749997Y-67744401D02*
X204749997Y-67744401D01*
X204749997Y-67744401D02*
X202999997Y-65994401D01*
%TO.N,Net-(U6-S1B)*%
X206750000Y-93250000D02*
X205000000Y-91500000D01*
X205000000Y-91500000D02*
X203000000Y-91500000D01*
%TO.N,Net-(U6-S2B)*%
X208650000Y-93650000D02*
X204500000Y-89500000D01*
X204500000Y-89500000D02*
X203000000Y-89500000D01*
X209100000Y-93650000D02*
X208650000Y-93650000D01*
%TO.N,Net-(U7-S3B)*%
X203005599Y-74494401D02*
X203000000Y-74500000D01*
X204712023Y-74494401D02*
X208356424Y-70850000D01*
X204712023Y-74494401D02*
X203005599Y-74494401D01*
X208206426Y-70750000D02*
X208206426Y-70874998D01*
%TD*%
M02*
