%TF.GenerationSoftware,KiCad,Pcbnew,10.0.5*%
%TF.CreationDate,2026-09-04T18:02:26-05:00*%
%TF.ProjectId,PVDX-ADCS-PMB,50564458-2d41-4444-9353-2d504d422e6b,rev?*%
%TF.SameCoordinates,Original*%
%TF.FileFunction,Copper,L1,Top*%
%TF.FilePolarity,Positive*%
%FSLAX46Y46*%
G04 Gerber Fmt 4.6, Leading zero omitted, Abs format (unit mm)*
G04 Created by KiCad (PCBNEW 10.0.5) date 2026-09-04 18:02:26*
%MOMM*%
%LPD*%
G01*
G04 APERTURE LIST*
G04 Aperture macros list*
%AMRoundRect*
0 Rectangle with rounded corners*
0 $1 Rounding radius*
0 $2 $3 $4 $5 $6 $7 $8 $9 X,Y pos of 4 corners*
0 Add a 4 corners polygon primitive as box body*
4,1,4,$2,$3,$4,$5,$6,$7,$8,$9,$2,$3,0*
0 Add four circle primitives for the rounded corners*
1,1,$1+$1,$2,$3*
1,1,$1+$1,$4,$5*
1,1,$1+$1,$6,$7*
1,1,$1+$1,$8,$9*
0 Add four rect primitives between the rounded corners*
20,1,$1+$1,$2,$3,$4,$5,0*
20,1,$1+$1,$4,$5,$6,$7,0*
20,1,$1+$1,$6,$7,$8,$9,0*
20,1,$1+$1,$8,$9,$2,$3,0*%
G04 Aperture macros list end*
%TA.AperFunction,EtchedComponent*%
%ADD10C,0.000000*%
%TD*%
%TA.AperFunction,SMDPad,CuDef*%
%ADD11RoundRect,0.140000X0.140000X0.170000X-0.140000X0.170000X-0.140000X-0.170000X0.140000X-0.170000X0*%
%TD*%
%TA.AperFunction,SMDPad,CuDef*%
%ADD12RoundRect,0.200000X0.200000X0.275000X-0.200000X0.275000X-0.200000X-0.275000X0.200000X-0.275000X0*%
%TD*%
%TA.AperFunction,SMDPad,CuDef*%
%ADD13RoundRect,0.200000X0.275000X-0.200000X0.275000X0.200000X-0.275000X0.200000X-0.275000X-0.200000X0*%
%TD*%
%TA.AperFunction,SMDPad,CuDef*%
%ADD14RoundRect,0.200000X-0.200000X-0.275000X0.200000X-0.275000X0.200000X0.275000X-0.200000X0.275000X0*%
%TD*%
%TA.AperFunction,SMDPad,CuDef*%
%ADD15R,0.431800X1.422400*%
%TD*%
%TA.AperFunction,SMDPad,CuDef*%
%ADD16RoundRect,0.150000X-0.150000X0.875000X-0.150000X-0.875000X0.150000X-0.875000X0.150000X0.875000X0*%
%TD*%
%TA.AperFunction,SMDPad,CuDef*%
%ADD17RoundRect,0.225000X-0.225000X-0.250000X0.225000X-0.250000X0.225000X0.250000X-0.225000X0.250000X0*%
%TD*%
%TA.AperFunction,SMDPad,CuDef*%
%ADD18RoundRect,0.225000X0.225000X0.250000X-0.225000X0.250000X-0.225000X-0.250000X0.225000X-0.250000X0*%
%TD*%
%TA.AperFunction,SMDPad,CuDef*%
%ADD19R,0.500000X0.280000*%
%TD*%
%TA.AperFunction,SMDPad,CuDef*%
%ADD20R,0.889000X1.600200*%
%TD*%
%TA.AperFunction,SMDPad,CuDef*%
%ADD21RoundRect,0.140000X-0.170000X0.140000X-0.170000X-0.140000X0.170000X-0.140000X0.170000X0.140000X0*%
%TD*%
%TA.AperFunction,ComponentPad*%
%ADD22R,1.700000X1.700000*%
%TD*%
%TA.AperFunction,ComponentPad*%
%ADD23C,1.700000*%
%TD*%
%TA.AperFunction,SMDPad,CuDef*%
%ADD24R,0.300000X0.800000*%
%TD*%
%TA.AperFunction,SMDPad,CuDef*%
%ADD25R,0.400000X0.800000*%
%TD*%
%TA.AperFunction,SMDPad,CuDef*%
%ADD26RoundRect,0.087500X-0.087500X0.425000X-0.087500X-0.425000X0.087500X-0.425000X0.087500X0.425000X0*%
%TD*%
%TA.AperFunction,SMDPad,CuDef*%
%ADD27R,0.355600X1.473200*%
%TD*%
%TA.AperFunction,SMDPad,CuDef*%
%ADD28R,0.650000X0.700000*%
%TD*%
%TA.AperFunction,SMDPad,CuDef*%
%ADD29RoundRect,0.225000X0.250000X-0.225000X0.250000X0.225000X-0.250000X0.225000X-0.250000X-0.225000X0*%
%TD*%
%TA.AperFunction,SMDPad,CuDef*%
%ADD30C,0.500000*%
%TD*%
%TA.AperFunction,SMDPad,CuDef*%
%ADD31RoundRect,0.075000X0.075000X-0.650000X0.075000X0.650000X-0.075000X0.650000X-0.075000X-0.650000X0*%
%TD*%
%TA.AperFunction,ViaPad*%
%ADD32C,0.600000*%
%TD*%
%TA.AperFunction,Conductor*%
%ADD33C,0.500000*%
%TD*%
%TA.AperFunction,Conductor*%
%ADD34C,0.200000*%
%TD*%
%TA.AperFunction,Conductor*%
%ADD35C,0.250000*%
%TD*%
%TA.AperFunction,Conductor*%
%ADD36C,1.000000*%
%TD*%
G04 APERTURE END LIST*
D10*
%TA.AperFunction,EtchedComponent*%
%TO.C,NT1*%
G36*
X168000000Y-114250000D02*
G01*
X167000000Y-114250000D01*
X167000000Y-113750000D01*
X168000000Y-113750000D01*
X168000000Y-114250000D01*
G37*
%TD.AperFunction*%
%TD*%
D11*
%TO.P,CBY5,1*%
%TO.N,+3V3*%
X178680000Y-63800000D03*
%TO.P,CBY5,2*%
%TO.N,GND*%
X177720000Y-63800000D03*
%TD*%
D12*
%TO.P,R5,1*%
%TO.N,Net-(U6-S3B)*%
X201750000Y-87500000D03*
%TO.P,R5,2*%
%TO.N,GND*%
X200100000Y-87500000D03*
%TD*%
D13*
%TO.P,R37,1*%
%TO.N,+3V3*%
X176450000Y-79375000D03*
%TO.P,R37,2*%
%TO.N,Net-(U5-~{RESET})*%
X176450000Y-77725000D03*
%TD*%
D14*
%TO.P,R51,1*%
%TO.N,PD12*%
X184150000Y-108250000D03*
%TO.P,R51,2*%
%TO.N,PD12_OUT*%
X185800000Y-108250000D03*
%TD*%
D15*
%TO.P,U19,1,OUTA_1*%
%TO.N,PD17_OUT*%
X169369258Y-101653300D03*
%TO.P,U19,2,INA-_2*%
%TO.N,PD17*%
X168719260Y-101653300D03*
%TO.P,U19,3,INA+_3*%
%TO.N,PDGND*%
X168069258Y-101653300D03*
%TO.P,U19,4,V-_4*%
%TO.N,GND*%
X167419260Y-101653300D03*
%TO.P,U19,5,INB+_5*%
%TO.N,PDGND*%
X167419260Y-105996700D03*
%TO.P,U19,6,INB-_6*%
%TO.N,PD18*%
X168069258Y-105996700D03*
%TO.P,U19,7,OUTB_7*%
%TO.N,PD18_OUT*%
X168719260Y-105996700D03*
%TO.P,U19,8,V+_8*%
%TO.N,+3V3*%
X169369258Y-105996700D03*
%TD*%
D14*
%TO.P,R47,1*%
%TO.N,PD8*%
X195710000Y-108250000D03*
%TO.P,R47,2*%
%TO.N,PD8_OUT*%
X197360000Y-108250000D03*
%TD*%
D12*
%TO.P,R1,1*%
%TO.N,Net-(U1-+)*%
X184350000Y-41662500D03*
%TO.P,R1,2*%
%TO.N,VDAC*%
X182700000Y-41662500D03*
%TD*%
D14*
%TO.P,R46,1*%
%TO.N,PD7*%
X198035000Y-99486600D03*
%TO.P,R46,2*%
%TO.N,PD7_OUT*%
X199685000Y-99486600D03*
%TD*%
D12*
%TO.P,R6,1*%
%TO.N,Net-(U6-S4B)*%
X201750000Y-85500000D03*
%TO.P,R6,2*%
%TO.N,GND*%
X200100000Y-85500000D03*
%TD*%
D16*
%TO.P,U5,1,GPB0_1*%
%TO.N,Net-(U5-GPB0)*%
X188955000Y-65650000D03*
%TO.P,U5,2,GPB1_2*%
%TO.N,Net-(U5-GPB1)*%
X187685000Y-65650000D03*
%TO.P,U5,3,GPB2_3*%
%TO.N,Net-(U5-GPB2)*%
X186415000Y-65650000D03*
%TO.P,U5,4,GPB3_4*%
%TO.N,Net-(U5-GPB3)*%
X185145000Y-65650000D03*
%TO.P,U5,5,GPB4_5*%
%TO.N,Net-(U5-GPB4)*%
X183875000Y-65650000D03*
%TO.P,U5,6,GPB5_6*%
%TO.N,Net-(U5-GPB5)*%
X182605000Y-65650000D03*
%TO.P,U5,7,GPB6_7*%
%TO.N,Net-(U5-GPB6)*%
X181335000Y-65650000D03*
%TO.P,U5,8,GPB7_8*%
%TO.N,Net-(U5-GPB7)*%
X180065000Y-65650000D03*
%TO.P,U5,9,V_{DD}_9*%
%TO.N,+3V3*%
X178795000Y-65650000D03*
%TO.P,U5,10,V_{SS}_10*%
%TO.N,GND*%
X177525000Y-65650000D03*
%TO.P,U5,11,NC_11*%
X176255000Y-65650000D03*
%TO.P,U5,12,SCK_12*%
%TO.N,SCK*%
X174985000Y-65650000D03*
%TO.P,U5,13,SDA_13*%
%TO.N,SDA*%
X173715000Y-65650000D03*
%TO.P,U5,14,NC_14*%
%TO.N,GND*%
X172445000Y-65650000D03*
%TO.P,U5,15,A0_15*%
X172445000Y-74950000D03*
%TO.P,U5,16,A1_16*%
X173715000Y-74950000D03*
%TO.P,U5,17,A2_17*%
X174985000Y-74950000D03*
%TO.P,U5,18,~{RESET}_18*%
%TO.N,Net-(U5-~{RESET})*%
X176255000Y-74950000D03*
%TO.P,U5,19,INTB_19*%
%TO.N,unconnected-(U5-INTB-Pad19)*%
X177525000Y-74950000D03*
%TO.P,U5,20,INTA_20*%
%TO.N,unconnected-(U5-INTA-Pad20)*%
X178795000Y-74950000D03*
%TO.P,U5,21,GPA0_21*%
%TO.N,Net-(U5-GPA0)*%
X180065000Y-74950000D03*
%TO.P,U5,22,GPA1_22*%
%TO.N,Net-(U5-GPA1)*%
X181335000Y-74950000D03*
%TO.P,U5,23,GPA2_23*%
%TO.N,Net-(U5-GPA2)*%
X182605000Y-74950000D03*
%TO.P,U5,24,GPA3_24*%
%TO.N,Net-(U5-GPA3)*%
X183875000Y-74950000D03*
%TO.P,U5,25,GPA4_25*%
%TO.N,Net-(U5-GPA4)*%
X185145000Y-74950000D03*
%TO.P,U5,26,GPA5_26*%
%TO.N,Net-(U5-GPA5)*%
X186415000Y-74950000D03*
%TO.P,U5,27,GPA6_27*%
%TO.N,Net-(U5-GPA6)*%
X187685000Y-74950000D03*
%TO.P,U5,28,GPA7_28*%
%TO.N,Net-(U5-GPA7)*%
X188955000Y-74950000D03*
%TD*%
D17*
%TO.P,CBY6,1*%
%TO.N,+3V3*%
X209650000Y-83250000D03*
%TO.P,CBY6,2*%
%TO.N,GND*%
X211200000Y-83250000D03*
%TD*%
D14*
%TO.P,R52,1*%
%TO.N,PD13*%
X180650000Y-99486600D03*
%TO.P,R52,2*%
%TO.N,PD13_OUT*%
X182300000Y-99486600D03*
%TD*%
D12*
%TO.P,R10,1*%
%TO.N,Net-(U7-S4B)*%
X201750000Y-72500000D03*
%TO.P,R10,2*%
%TO.N,GND*%
X200100000Y-72500000D03*
%TD*%
D17*
%TO.P,CBY8,1*%
%TO.N,+3V3*%
X209725000Y-57750000D03*
%TO.P,CBY8,2*%
%TO.N,GND*%
X211275000Y-57750000D03*
%TD*%
D18*
%TO.P,C39,1*%
%TO.N,GND*%
X157625000Y-102513986D03*
%TO.P,C39,2*%
%TO.N,+3V3*%
X156075000Y-102513986D03*
%TD*%
D14*
%TO.P,R57,1*%
%TO.N,PD18*%
X166764340Y-108250000D03*
%TO.P,R57,2*%
%TO.N,PD18_OUT*%
X168414340Y-108250000D03*
%TD*%
D12*
%TO.P,R14,1*%
%TO.N,Net-(U8-S4B)*%
X201750000Y-60000000D03*
%TO.P,R14,2*%
%TO.N,GND*%
X200100000Y-60000000D03*
%TD*%
D14*
%TO.P,R41,1*%
%TO.N,PD2*%
X213100000Y-108250000D03*
%TO.P,R41,2*%
%TO.N,PD2_OUT*%
X214750000Y-108250000D03*
%TD*%
D17*
%TO.P,C49,1*%
%TO.N,PD5*%
X203885000Y-97970000D03*
%TO.P,C49,2*%
%TO.N,PD5_OUT*%
X205435000Y-97970000D03*
%TD*%
D19*
%TO.P,U10,1,VM_1*%
%TO.N,+3V3*%
X152674998Y-111074998D03*
%TO.P,U10,2,OUT1_2*%
%TO.N,MTQ3+*%
X152674998Y-111574999D03*
%TO.P,U10,3,OUT2_3*%
%TO.N,MTQ3-*%
X152674998Y-112074999D03*
%TO.P,U10,4,GND_4*%
%TO.N,GND*%
X152674998Y-112575000D03*
%TO.P,U10,5,IN2_5*%
%TO.N,MCTRL3_2*%
X154575000Y-112575000D03*
%TO.P,U10,6,IN1_6*%
%TO.N,MCTRL3_1*%
X154575000Y-112074999D03*
%TO.P,U10,7,~{SLEEP}_7*%
%TO.N,MSLEEP3*%
X154575000Y-111574999D03*
%TO.P,U10,8,VCC_8*%
%TO.N,+3V3*%
X154575000Y-111074998D03*
D20*
%TO.P,U10,9,GND_9*%
%TO.N,GND*%
X153624999Y-111824999D03*
%TD*%
D21*
%TO.P,C3,1*%
%TO.N,GND*%
X205688686Y-105020000D03*
%TO.P,C3,2*%
%TO.N,+3V3*%
X205688686Y-105980000D03*
%TD*%
D12*
%TO.P,RSH1,1*%
%TO.N,FOLLOW*%
X182425000Y-48662500D03*
%TO.P,RSH1,2*%
%TO.N,PIXEL+*%
X180775000Y-48662500D03*
%TD*%
D15*
%TO.P,U18,1,OUTA_1*%
%TO.N,PD15_OUT*%
X175160601Y-101653300D03*
%TO.P,U18,2,INA-_2*%
%TO.N,PD15*%
X174510603Y-101653300D03*
%TO.P,U18,3,INA+_3*%
%TO.N,PDGND*%
X173860601Y-101653300D03*
%TO.P,U18,4,V-_4*%
%TO.N,GND*%
X173210603Y-101653300D03*
%TO.P,U18,5,INB+_5*%
%TO.N,PDGND*%
X173210603Y-105996700D03*
%TO.P,U18,6,INB-_6*%
%TO.N,PD16*%
X173860601Y-105996700D03*
%TO.P,U18,7,OUTB_7*%
%TO.N,PD16_OUT*%
X174510603Y-105996700D03*
%TO.P,U18,8,V+_8*%
%TO.N,+3V3*%
X175160601Y-105996700D03*
%TD*%
D21*
%TO.P,C7,1*%
%TO.N,GND*%
X182522001Y-105020000D03*
%TO.P,C7,2*%
%TO.N,+3V3*%
X182522001Y-105980000D03*
%TD*%
D22*
%TO.P,J6,1,Pin_1_1*%
%TO.N,VDAC*%
X178290000Y-41500000D03*
D23*
%TO.P,J6,2,Pin_2_2*%
%TO.N,SDA*%
X175750000Y-41500000D03*
%TO.P,J6,3,Pin_3_3*%
%TO.N,SCK*%
X173210000Y-41500000D03*
%TD*%
D17*
%TO.P,C61,1*%
%TO.N,PD17*%
X169150000Y-97956600D03*
%TO.P,C61,2*%
%TO.N,PD17_OUT*%
X170700000Y-97956600D03*
%TD*%
%TO.P,C55,1*%
%TO.N,PD11*%
X186500000Y-97956600D03*
%TO.P,C55,2*%
%TO.N,PD11_OUT*%
X188050000Y-97956600D03*
%TD*%
D24*
%TO.P,J2,1,1_1*%
%TO.N,PD1_OUT*%
X162000000Y-41500000D03*
%TO.P,J2,2,2_2*%
%TO.N,PD2_OUT*%
X161500000Y-41500000D03*
%TO.P,J2,3,3_3*%
%TO.N,PD3_OUT*%
X161000000Y-41500000D03*
%TO.P,J2,4,4_4*%
%TO.N,PD4_OUT*%
X160500000Y-41500000D03*
%TO.P,J2,5,5_5*%
%TO.N,PD5_OUT*%
X160000000Y-41500000D03*
%TO.P,J2,6,6_6*%
%TO.N,PD6_OUT*%
X159500000Y-41500000D03*
%TO.P,J2,7,7_7*%
%TO.N,PD7_OUT*%
X159000000Y-41500000D03*
%TO.P,J2,8,8_8*%
%TO.N,PD8_OUT*%
X158500000Y-41500000D03*
%TO.P,J2,9,9_9*%
%TO.N,PD9_OUT*%
X158000000Y-41500000D03*
%TO.P,J2,10,10_10*%
%TO.N,PD10_OUT*%
X157500000Y-41500000D03*
%TO.P,J2,11,11_11*%
%TO.N,PD11_OUT*%
X157000000Y-41500000D03*
%TO.P,J2,12,12_12*%
%TO.N,PD12_OUT*%
X156500000Y-41500000D03*
%TO.P,J2,13,13_13*%
%TO.N,PD13_OUT*%
X156000000Y-41500000D03*
%TO.P,J2,14,14_14*%
%TO.N,PD14_OUT*%
X155500000Y-41500000D03*
%TO.P,J2,15,15_15*%
%TO.N,PD15_OUT*%
X155000000Y-41500000D03*
%TO.P,J2,16,16_16*%
%TO.N,PD16_OUT*%
X154500000Y-41500000D03*
%TO.P,J2,17,17_17*%
%TO.N,PD17_OUT*%
X154000000Y-41500000D03*
%TO.P,J2,18,18_18*%
%TO.N,PD18_OUT*%
X153500000Y-41500000D03*
D25*
%TO.P,J2,MP1,MP1_MP1*%
%TO.N,GND*%
X163000000Y-44000000D03*
%TO.P,J2,MP2,MP2_MP2*%
X152500000Y-44000000D03*
%TD*%
D21*
%TO.P,C5,1*%
%TO.N,GND*%
X194106268Y-105020000D03*
%TO.P,C5,2*%
%TO.N,+3V3*%
X194106268Y-105980000D03*
%TD*%
D26*
%TO.P,U1,1,+_1*%
%TO.N,Net-(U1-+)*%
X184000000Y-45325000D03*
%TO.P,U1,2,V-_2*%
%TO.N,GND*%
X183350000Y-45325000D03*
%TO.P,U1,3,-_3*%
%TO.N,FOLLOW*%
X182700000Y-45325000D03*
%TO.P,U1,4*%
X182700000Y-47000000D03*
%TO.P,U1,5,V+_5*%
%TO.N,+3V3*%
X184000000Y-47000000D03*
%TD*%
D27*
%TO.P,U9,1,IN1_1*%
%TO.N,Net-(U5-GPB4)*%
X204349998Y-52638800D03*
%TO.P,U9,2,S1A_2*%
%TO.N,PIXEL+*%
X204999999Y-52638800D03*
%TO.P,U9,3,D1_3*%
%TO.N,PIXEL13+*%
X205649997Y-52638800D03*
%TO.P,U9,4,S1B_4*%
%TO.N,Net-(U9-S1B)*%
X206299999Y-52638800D03*
%TO.P,U9,5,VSS_5*%
%TO.N,GND*%
X206949997Y-52638800D03*
%TO.P,U9,6,GND_6*%
X207599996Y-52638800D03*
%TO.P,U9,7,S2B_7*%
%TO.N,Net-(U9-S2B)*%
X208249997Y-52638800D03*
%TO.P,U9,8,D2_8*%
%TO.N,PIXEL14+*%
X208899996Y-52638800D03*
%TO.P,U9,9,S2A_9*%
%TO.N,PIXEL+*%
X209549997Y-52638800D03*
%TO.P,U9,10,IN2_10*%
%TO.N,Net-(U5-GPB5)*%
X210199996Y-52638800D03*
%TO.P,U9,11,IN3_11*%
%TO.N,Net-(U5-GPB6)*%
X210199998Y-47000000D03*
%TO.P,U9,12,S3A_12*%
%TO.N,PIXEL+*%
X209550000Y-47000000D03*
%TO.P,U9,13,D3_13*%
%TO.N,PIXEL15+*%
X208899999Y-47000000D03*
%TO.P,U9,14,S3B_14*%
%TO.N,Net-(U9-S3B)*%
X208250000Y-47000000D03*
%TO.P,U9,15,NC_15*%
%TO.N,+3V3*%
X207599999Y-47000000D03*
%TO.P,U9,16,VDD_16*%
X206950000Y-47000000D03*
%TO.P,U9,17,S4B_17*%
%TO.N,Net-(U9-S4B)*%
X206299999Y-47000000D03*
%TO.P,U9,18,D4_18*%
%TO.N,PIXEL16+*%
X205650000Y-47000000D03*
%TO.P,U9,19,S4A_19*%
%TO.N,PIXEL+*%
X204999999Y-47000000D03*
%TO.P,U9,20,IN4_20*%
%TO.N,Net-(U5-GPB7)*%
X204350000Y-47000000D03*
%TD*%
D17*
%TO.P,C58,1*%
%TO.N,PD14*%
X178400000Y-109780000D03*
%TO.P,C58,2*%
%TO.N,PD14_OUT*%
X179950000Y-109780000D03*
%TD*%
D14*
%TO.P,R45,1*%
%TO.N,PD6*%
X201510000Y-108250000D03*
%TO.P,R45,2*%
%TO.N,PD6_OUT*%
X203160000Y-108250000D03*
%TD*%
D17*
%TO.P,C51,1*%
%TO.N,PD7*%
X198085000Y-97956600D03*
%TO.P,C51,2*%
%TO.N,PD7_OUT*%
X199635000Y-97956600D03*
%TD*%
D21*
%TO.P,C9,1*%
%TO.N,GND*%
X170933411Y-105020000D03*
%TO.P,C9,2*%
%TO.N,+3V3*%
X170933411Y-105980000D03*
%TD*%
D12*
%TO.P,R8,1*%
%TO.N,Net-(U7-S2B)*%
X201750000Y-76500000D03*
%TO.P,R8,2*%
%TO.N,GND*%
X200100000Y-76500000D03*
%TD*%
D15*
%TO.P,U15,1,OUTA_1*%
%TO.N,PD9_OUT*%
X192534628Y-101653300D03*
%TO.P,U15,2,INA-_2*%
%TO.N,PD9*%
X191884630Y-101653300D03*
%TO.P,U15,3,INA+_3*%
%TO.N,PDGND*%
X191234628Y-101653300D03*
%TO.P,U15,4,V-_4*%
%TO.N,GND*%
X190584630Y-101653300D03*
%TO.P,U15,5,INB+_5*%
%TO.N,PDGND*%
X190584630Y-105996700D03*
%TO.P,U15,6,INB-_6*%
%TO.N,PD10*%
X191234628Y-105996700D03*
%TO.P,U15,7,OUTB_7*%
%TO.N,PD10_OUT*%
X191884630Y-105996700D03*
%TO.P,U15,8,V+_8*%
%TO.N,+3V3*%
X192534628Y-105996700D03*
%TD*%
D17*
%TO.P,CBY7,1*%
%TO.N,+3V3*%
X209725000Y-70250000D03*
%TO.P,CBY7,2*%
%TO.N,GND*%
X211275000Y-70250000D03*
%TD*%
%TO.P,C56,1*%
%TO.N,PD12*%
X184200000Y-109780000D03*
%TO.P,C56,2*%
%TO.N,PD12_OUT*%
X185750000Y-109780000D03*
%TD*%
D14*
%TO.P,R53,1*%
%TO.N,PD14*%
X178350000Y-108250000D03*
%TO.P,R53,2*%
%TO.N,PD14_OUT*%
X180000000Y-108250000D03*
%TD*%
D15*
%TO.P,U17,1,OUTA_1*%
%TO.N,PD13_OUT*%
X180951943Y-101653300D03*
%TO.P,U17,2,INA-_2*%
%TO.N,PD13*%
X180301945Y-101653300D03*
%TO.P,U17,3,INA+_3*%
%TO.N,PDGND*%
X179651943Y-101653300D03*
%TO.P,U17,4,V-_4*%
%TO.N,GND*%
X179001945Y-101653300D03*
%TO.P,U17,5,INB+_5*%
%TO.N,PDGND*%
X179001945Y-105996700D03*
%TO.P,U17,6,INB-_6*%
%TO.N,PD14*%
X179651943Y-105996700D03*
%TO.P,U17,7,OUTB_7*%
%TO.N,PD14_OUT*%
X180301945Y-105996700D03*
%TO.P,U17,8,V+_8*%
%TO.N,+3V3*%
X180951943Y-105996700D03*
%TD*%
D12*
%TO.P,R7,1*%
%TO.N,Net-(U7-S1B)*%
X201750000Y-78500000D03*
%TO.P,R7,2*%
%TO.N,GND*%
X200100000Y-78500000D03*
%TD*%
D17*
%TO.P,C47,1*%
%TO.N,PD3*%
X209685000Y-97970000D03*
%TO.P,C47,2*%
%TO.N,PD3_OUT*%
X211235000Y-97970000D03*
%TD*%
%TO.P,CBY2,1*%
%TO.N,GND*%
X184325000Y-48662500D03*
%TO.P,CBY2,2*%
%TO.N,+3V3*%
X185875000Y-48662500D03*
%TD*%
D21*
%TO.P,C8,1*%
%TO.N,GND*%
X176723952Y-105020000D03*
%TO.P,C8,2*%
%TO.N,+3V3*%
X176723952Y-105980000D03*
%TD*%
D28*
%TO.P,CB2,1,1_1*%
%TO.N,+3V3*%
X156170000Y-100688987D03*
%TO.P,CB2,2,2_2*%
%TO.N,GND*%
X157520000Y-100688987D03*
%TD*%
D14*
%TO.P,R43,1*%
%TO.N,PD4*%
X207310000Y-108250000D03*
%TO.P,R43,2*%
%TO.N,PD4_OUT*%
X208960000Y-108250000D03*
%TD*%
D17*
%TO.P,C59,1*%
%TO.N,PD15*%
X174950000Y-97956600D03*
%TO.P,C59,2*%
%TO.N,PD15_OUT*%
X176500000Y-97956600D03*
%TD*%
D18*
%TO.P,C37,1*%
%TO.N,GND*%
X157625000Y-95074999D03*
%TO.P,C37,2*%
%TO.N,+3V3*%
X156075000Y-95074999D03*
%TD*%
D15*
%TO.P,U13,1,OUTA_1*%
%TO.N,PD5_OUT*%
X204117313Y-101653300D03*
%TO.P,U13,2,INA-_2*%
%TO.N,PD5*%
X203467315Y-101653300D03*
%TO.P,U13,3,INA+_3*%
%TO.N,PDGND*%
X202817313Y-101653300D03*
%TO.P,U13,4,V-_4*%
%TO.N,GND*%
X202167315Y-101653300D03*
%TO.P,U13,5,INB+_5*%
%TO.N,PDGND*%
X202167315Y-105996700D03*
%TO.P,U13,6,INB-_6*%
%TO.N,PD6*%
X202817313Y-105996700D03*
%TO.P,U13,7,OUTB_7*%
%TO.N,PD6_OUT*%
X203467315Y-105996700D03*
%TO.P,U13,8,V+_8*%
%TO.N,+3V3*%
X204117313Y-105996700D03*
%TD*%
D12*
%TO.P,R13,1*%
%TO.N,Net-(U8-S3B)*%
X201750000Y-62000000D03*
%TO.P,R13,2*%
%TO.N,GND*%
X200100000Y-62000000D03*
%TD*%
D22*
%TO.P,J1,1,Pin_1_1*%
%TO.N,PDGND*%
X212120000Y-114000000D03*
D23*
%TO.P,J1,2,Pin_2_2*%
%TO.N,PD1*%
X212120000Y-116540000D03*
%TO.P,J1,3,Pin_3_3*%
%TO.N,PDGND*%
X209580000Y-114000000D03*
%TO.P,J1,4,Pin_4_4*%
%TO.N,PD2*%
X209580000Y-116540000D03*
%TO.P,J1,5,Pin_5_5*%
%TO.N,PDGND*%
X207040000Y-114000000D03*
%TO.P,J1,6,Pin_6_6*%
%TO.N,PD3*%
X207040000Y-116540000D03*
%TO.P,J1,7,Pin_7_7*%
%TO.N,PDGND*%
X204500000Y-114000000D03*
%TO.P,J1,8,Pin_8_8*%
%TO.N,PD4*%
X204500000Y-116540000D03*
%TO.P,J1,9,Pin_9_9*%
%TO.N,PDGND*%
X201960000Y-114000000D03*
%TO.P,J1,10,Pin_10_10*%
%TO.N,PD5*%
X201960000Y-116540000D03*
%TO.P,J1,11,Pin_11_11*%
%TO.N,PDGND*%
X199420000Y-114000000D03*
%TO.P,J1,12,Pin_12_12*%
%TO.N,PD6*%
X199420000Y-116540000D03*
%TO.P,J1,13,Pin_13_13*%
%TO.N,PDGND*%
X196880000Y-114000000D03*
%TO.P,J1,14,Pin_14_14*%
%TO.N,PD7*%
X196880000Y-116540000D03*
%TO.P,J1,15,Pin_15_15*%
%TO.N,PDGND*%
X194340000Y-114000000D03*
%TO.P,J1,16,Pin_16_16*%
%TO.N,PD8*%
X194340000Y-116540000D03*
%TO.P,J1,17,Pin_17_17*%
%TO.N,PDGND*%
X191800000Y-114000000D03*
%TO.P,J1,18,Pin_18_18*%
%TO.N,PD9*%
X191800000Y-116540000D03*
%TO.P,J1,19,Pin_19_19*%
%TO.N,PDGND*%
X189260000Y-114000000D03*
%TO.P,J1,20,Pin_20_20*%
%TO.N,PD10*%
X189260000Y-116540000D03*
%TO.P,J1,21,Pin_21_21*%
%TO.N,PDGND*%
X186720000Y-114000000D03*
%TO.P,J1,22,Pin_22_22*%
%TO.N,PD11*%
X186720000Y-116540000D03*
%TO.P,J1,23,Pin_23_23*%
%TO.N,PDGND*%
X184180000Y-114000000D03*
%TO.P,J1,24,Pin_24_24*%
%TO.N,PD12*%
X184180000Y-116540000D03*
%TO.P,J1,25,Pin_25_25*%
%TO.N,PDGND*%
X181640000Y-114000000D03*
%TO.P,J1,26,Pin_26_26*%
%TO.N,PD13*%
X181640000Y-116540000D03*
%TO.P,J1,27,Pin_27_27*%
%TO.N,PDGND*%
X179100000Y-114000000D03*
%TO.P,J1,28,Pin_28_28*%
%TO.N,PD14*%
X179100000Y-116540000D03*
%TO.P,J1,29,Pin_29_29*%
%TO.N,PDGND*%
X176560000Y-114000000D03*
%TO.P,J1,30,Pin_30_30*%
%TO.N,PD15*%
X176560000Y-116540000D03*
%TO.P,J1,31,Pin_31_31*%
%TO.N,PDGND*%
X174020000Y-114000000D03*
%TO.P,J1,32,Pin_32_32*%
%TO.N,PD16*%
X174020000Y-116540000D03*
%TO.P,J1,33,Pin_33_33*%
%TO.N,PDGND*%
X171480000Y-114000000D03*
%TO.P,J1,34,Pin_34_34*%
%TO.N,PD17*%
X171480000Y-116540000D03*
%TO.P,J1,35,Pin_35_35*%
%TO.N,PDGND*%
X168940000Y-114000000D03*
%TO.P,J1,36,Pin_36_36*%
%TO.N,PD18*%
X168940000Y-116540000D03*
%TD*%
D29*
%TO.P,C40,1*%
%TO.N,+3V3*%
X152850000Y-101413987D03*
%TO.P,C40,2*%
%TO.N,GND*%
X152850000Y-99863987D03*
%TD*%
D17*
%TO.P,C46,1*%
%TO.N,PD2*%
X213150000Y-109780000D03*
%TO.P,C46,2*%
%TO.N,PD2_OUT*%
X214700000Y-109780000D03*
%TD*%
D14*
%TO.P,R48,1*%
%TO.N,PD9*%
X192250000Y-99486600D03*
%TO.P,R48,2*%
%TO.N,PD9_OUT*%
X193900000Y-99486600D03*
%TD*%
D12*
%TO.P,R12,1*%
%TO.N,Net-(U8-S2B)*%
X201750000Y-64000000D03*
%TO.P,R12,2*%
%TO.N,GND*%
X200100000Y-64000000D03*
%TD*%
%TO.P,R17,1*%
%TO.N,Net-(U9-S3B)*%
X201750000Y-48750000D03*
%TO.P,R17,2*%
%TO.N,GND*%
X200100000Y-48750000D03*
%TD*%
D15*
%TO.P,U16,1,OUTA_1*%
%TO.N,PD11_OUT*%
X186743286Y-101653300D03*
%TO.P,U16,2,INA-_2*%
%TO.N,PD11*%
X186093288Y-101653300D03*
%TO.P,U16,3,INA+_3*%
%TO.N,PDGND*%
X185443286Y-101653300D03*
%TO.P,U16,4,V-_4*%
%TO.N,GND*%
X184793288Y-101653300D03*
%TO.P,U16,5,INB+_5*%
%TO.N,PDGND*%
X184793288Y-105996700D03*
%TO.P,U16,6,INB-_6*%
%TO.N,PD12*%
X185443286Y-105996700D03*
%TO.P,U16,7,OUTB_7*%
%TO.N,PD12_OUT*%
X186093288Y-105996700D03*
%TO.P,U16,8,V+_8*%
%TO.N,+3V3*%
X186743286Y-105996700D03*
%TD*%
D29*
%TO.P,C42,1*%
%TO.N,+3V3*%
X152850000Y-109475000D03*
%TO.P,C42,2*%
%TO.N,GND*%
X152850000Y-107925000D03*
%TD*%
D17*
%TO.P,C53,1*%
%TO.N,PD9*%
X192300000Y-97956600D03*
%TO.P,C53,2*%
%TO.N,PD9_OUT*%
X193850000Y-97956600D03*
%TD*%
%TO.P,C57,1*%
%TO.N,PD13*%
X180700000Y-97956600D03*
%TO.P,C57,2*%
%TO.N,PD13_OUT*%
X182250000Y-97956600D03*
%TD*%
D14*
%TO.P,R49,1*%
%TO.N,PD10*%
X189950000Y-108250000D03*
%TO.P,R49,2*%
%TO.N,PD10_OUT*%
X191600000Y-108250000D03*
%TD*%
D28*
%TO.P,CB3,1,1_1*%
%TO.N,+3V3*%
X156170000Y-108750000D03*
%TO.P,CB3,2,2_2*%
%TO.N,GND*%
X157520000Y-108750000D03*
%TD*%
D30*
%TO.P,NT1,1,1_1*%
%TO.N,PDGND*%
X168000000Y-114000000D03*
%TO.P,NT1,2,2_2*%
%TO.N,GND*%
X167000000Y-114000000D03*
%TD*%
D22*
%TO.P,J4,1,Pin_1_1*%
%TO.N,GND*%
X194775000Y-41500000D03*
D23*
%TO.P,J4,2,Pin_2_2*%
%TO.N,+3V3*%
X192235000Y-41500000D03*
%TD*%
D29*
%TO.P,C38,1*%
%TO.N,+3V3*%
X152850000Y-93975000D03*
%TO.P,C38,2*%
%TO.N,GND*%
X152850000Y-92425000D03*
%TD*%
D21*
%TO.P,C6,1*%
%TO.N,GND*%
X188326175Y-105020000D03*
%TO.P,C6,2*%
%TO.N,+3V3*%
X188326175Y-105980000D03*
%TD*%
D18*
%TO.P,CBY9,1*%
%TO.N,GND*%
X211275000Y-44750000D03*
%TO.P,CBY9,2*%
%TO.N,+3V3*%
X209725000Y-44750000D03*
%TD*%
D21*
%TO.P,C4,1*%
%TO.N,GND*%
X199900000Y-105020000D03*
%TO.P,C4,2*%
%TO.N,+3V3*%
X199900000Y-105980000D03*
%TD*%
D12*
%TO.P,R11,1*%
%TO.N,Net-(U8-S1B)*%
X201750000Y-66000000D03*
%TO.P,R11,2*%
%TO.N,GND*%
X200100000Y-66000000D03*
%TD*%
D17*
%TO.P,C60,1*%
%TO.N,PD16*%
X172610000Y-109780000D03*
%TO.P,C60,2*%
%TO.N,PD16_OUT*%
X174160000Y-109780000D03*
%TD*%
D27*
%TO.P,U6,1,IN1_1*%
%TO.N,Net-(U5-GPA0)*%
X204325000Y-91319400D03*
%TO.P,U6,2,S1A_2*%
%TO.N,PIXEL+*%
X204975001Y-91319400D03*
%TO.P,U6,3,D1_3*%
%TO.N,PIXEL1+*%
X205624999Y-91319400D03*
%TO.P,U6,4,S1B_4*%
%TO.N,Net-(U6-S1B)*%
X206275001Y-91319400D03*
%TO.P,U6,5,VSS_5*%
%TO.N,GND*%
X206924999Y-91319400D03*
%TO.P,U6,6,GND_6*%
X207574998Y-91319400D03*
%TO.P,U6,7,S2B_7*%
%TO.N,Net-(U6-S2B)*%
X208224999Y-91319400D03*
%TO.P,U6,8,D2_8*%
%TO.N,PIXEL2+*%
X208874998Y-91319400D03*
%TO.P,U6,9,S2A_9*%
%TO.N,PIXEL+*%
X209524999Y-91319400D03*
%TO.P,U6,10,IN2_10*%
%TO.N,Net-(U5-GPA1)*%
X210174998Y-91319400D03*
%TO.P,U6,11,IN3_11*%
%TO.N,Net-(U5-GPA2)*%
X210175000Y-85680600D03*
%TO.P,U6,12,S3A_12*%
%TO.N,PIXEL+*%
X209525002Y-85680600D03*
%TO.P,U6,13,D3_13*%
%TO.N,PIXEL3+*%
X208875001Y-85680600D03*
%TO.P,U6,14,S3B_14*%
%TO.N,Net-(U6-S3B)*%
X208225002Y-85680600D03*
%TO.P,U6,15,NC_15*%
%TO.N,+3V3*%
X207575001Y-85680600D03*
%TO.P,U6,16,VDD_16*%
X206925002Y-85680600D03*
%TO.P,U6,17,S4B_17*%
%TO.N,Net-(U6-S4B)*%
X206275001Y-85680600D03*
%TO.P,U6,18,D4_18*%
%TO.N,PIXEL4+*%
X205625002Y-85680600D03*
%TO.P,U6,19,S4A_19*%
%TO.N,PIXEL+*%
X204975001Y-85680600D03*
%TO.P,U6,20,IN4_20*%
%TO.N,Net-(U5-GPA3)*%
X204325002Y-85680600D03*
%TD*%
D12*
%TO.P,R18,1*%
%TO.N,Net-(U9-S4B)*%
X201750000Y-46750000D03*
%TO.P,R18,2*%
%TO.N,GND*%
X200100000Y-46750000D03*
%TD*%
D21*
%TO.P,C1,1*%
%TO.N,GND*%
X217250000Y-105020000D03*
%TO.P,C1,2*%
%TO.N,+3V3*%
X217250000Y-105980000D03*
%TD*%
D17*
%TO.P,C45,1*%
%TO.N,PD1*%
X215475000Y-97970000D03*
%TO.P,C45,2*%
%TO.N,PD1_OUT*%
X217025000Y-97970000D03*
%TD*%
D31*
%TO.P,U2,1,A1_1*%
%TO.N,GND*%
X181850000Y-55062500D03*
%TO.P,U2,2,A0_2*%
X182350000Y-55062500D03*
%TO.P,U2,3,~{Alert}_3*%
%TO.N,unconnected-(U2-~{Alert}-Pad3)*%
X182850000Y-55062500D03*
%TO.P,U2,4,SDA_4*%
%TO.N,SDA*%
X183350000Y-55062500D03*
%TO.P,U2,5,SCL_5*%
%TO.N,SCK*%
X183850000Y-55062500D03*
%TO.P,U2,6,VS_6*%
%TO.N,+3V3*%
X183850000Y-50762500D03*
%TO.P,U2,7,GND_7*%
%TO.N,GND*%
X183350000Y-50762500D03*
%TO.P,U2,8,Vbus_8*%
%TO.N,PIXEL+*%
X182850000Y-50762500D03*
%TO.P,U2,9,Vin-_9*%
%TO.N,FOLLOW*%
X182350000Y-50762500D03*
%TO.P,U2,10,Vin+_10*%
%TO.N,PIXEL+*%
X181850000Y-50762500D03*
%TD*%
D15*
%TO.P,U11,1,OUTA_1*%
%TO.N,PD1_OUT*%
X215699999Y-101653300D03*
%TO.P,U11,2,INA-_2*%
%TO.N,PD1*%
X215050001Y-101653300D03*
%TO.P,U11,3,INA+_3*%
%TO.N,PDGND*%
X214399999Y-101653300D03*
%TO.P,U11,4,V-_4*%
%TO.N,GND*%
X213750001Y-101653300D03*
%TO.P,U11,5,INB+_5*%
%TO.N,PDGND*%
X213750001Y-105996700D03*
%TO.P,U11,6,INB-_6*%
%TO.N,PD2*%
X214399999Y-105996700D03*
%TO.P,U11,7,OUTB_7*%
%TO.N,PD2_OUT*%
X215050001Y-105996700D03*
%TO.P,U11,8,V+_8*%
%TO.N,+3V3*%
X215699999Y-105996700D03*
%TD*%
D12*
%TO.P,R16,1*%
%TO.N,Net-(U9-S2B)*%
X201750000Y-50750000D03*
%TO.P,R16,2*%
%TO.N,GND*%
X200100000Y-50750000D03*
%TD*%
D14*
%TO.P,R40,1*%
%TO.N,PD1*%
X215425000Y-99500000D03*
%TO.P,R40,2*%
%TO.N,PD1_OUT*%
X217075000Y-99500000D03*
%TD*%
%TO.P,R42,1*%
%TO.N,PD3*%
X209635000Y-99500000D03*
%TO.P,R42,2*%
%TO.N,PD3_OUT*%
X211285000Y-99500000D03*
%TD*%
%TO.P,R56,1*%
%TO.N,PD17*%
X169100000Y-99486600D03*
%TO.P,R56,2*%
%TO.N,PD17_OUT*%
X170750000Y-99486600D03*
%TD*%
D17*
%TO.P,C54,1*%
%TO.N,PD10*%
X190000000Y-109780000D03*
%TO.P,C54,2*%
%TO.N,PD10_OUT*%
X191550000Y-109780000D03*
%TD*%
D22*
%TO.P,J7,1,Pin_1_1*%
%TO.N,MSLEEP1*%
X143500000Y-91340000D03*
D23*
%TO.P,J7,2,Pin_2_2*%
%TO.N,MCTRL1_1*%
X143500000Y-88800000D03*
%TO.P,J7,3,Pin_3_3*%
%TO.N,MCTRL1_2*%
X143500000Y-86260000D03*
%TO.P,J7,4,Pin_4_4*%
%TO.N,MSLEEP2*%
X143500000Y-83720000D03*
%TO.P,J7,5,Pin_5_5*%
%TO.N,MCTRL2_1*%
X143500000Y-81180000D03*
%TO.P,J7,6,Pin_6_6*%
%TO.N,MCTRL2_2*%
X143500000Y-78640000D03*
%TO.P,J7,7,Pin_7_7*%
%TO.N,MSLEEP3*%
X143500000Y-76100000D03*
%TO.P,J7,8,Pin_8_8*%
%TO.N,MCTRL3_1*%
X143500000Y-73560000D03*
%TO.P,J7,9,Pin_9_9*%
%TO.N,MCTRL3_2*%
X143500000Y-71020000D03*
%TD*%
D17*
%TO.P,C48,1*%
%TO.N,PD4*%
X207360000Y-109780000D03*
%TO.P,C48,2*%
%TO.N,PD4_OUT*%
X208910000Y-109780000D03*
%TD*%
D14*
%TO.P,R54,1*%
%TO.N,PD15*%
X174900000Y-99486600D03*
%TO.P,R54,2*%
%TO.N,PD15_OUT*%
X176550000Y-99486600D03*
%TD*%
D12*
%TO.P,R15,1*%
%TO.N,Net-(U9-S1B)*%
X201750000Y-52750000D03*
%TO.P,R15,2*%
%TO.N,GND*%
X200100000Y-52750000D03*
%TD*%
D17*
%TO.P,C62,1*%
%TO.N,PD18*%
X166814340Y-109780000D03*
%TO.P,C62,2*%
%TO.N,PD18_OUT*%
X168364340Y-109780000D03*
%TD*%
D14*
%TO.P,R55,1*%
%TO.N,PD16*%
X172560000Y-108250000D03*
%TO.P,R55,2*%
%TO.N,PD16_OUT*%
X174210000Y-108250000D03*
%TD*%
D22*
%TO.P,J5,1,Pin_1_1*%
%TO.N,PIXEL1+*%
X217250000Y-90000000D03*
D23*
%TO.P,J5,2,Pin_2_2*%
%TO.N,PIXEL2+*%
X217250000Y-87460000D03*
%TO.P,J5,3,Pin_3_3*%
%TO.N,PIXEL3+*%
X217250000Y-84920000D03*
%TO.P,J5,4,Pin_4_4*%
%TO.N,PIXEL4+*%
X217250000Y-82380000D03*
%TO.P,J5,5,Pin_5_5*%
%TO.N,PIXEL5+*%
X217250000Y-79840000D03*
%TO.P,J5,6,Pin_6_6*%
%TO.N,PIXEL6+*%
X217250000Y-77300000D03*
%TO.P,J5,7,Pin_7_7*%
%TO.N,PIXEL7+*%
X217250000Y-74760000D03*
%TO.P,J5,8,Pin_8_8*%
%TO.N,PIXEL8+*%
X217250000Y-72220000D03*
%TO.P,J5,9,Pin_9_9*%
%TO.N,GND*%
X217250000Y-69680000D03*
%TO.P,J5,10,Pin_10_10*%
%TO.N,PIXEL9+*%
X217250000Y-67140000D03*
%TO.P,J5,11,Pin_11_11*%
%TO.N,PIXEL10+*%
X217250000Y-64600000D03*
%TO.P,J5,12,Pin_12_12*%
%TO.N,PIXEL11+*%
X217250000Y-62060000D03*
%TO.P,J5,13,Pin_13_13*%
%TO.N,PIXEL12+*%
X217250000Y-59520000D03*
%TO.P,J5,14,Pin_14_14*%
%TO.N,PIXEL13+*%
X217250000Y-56980000D03*
%TO.P,J5,15,Pin_15_15*%
%TO.N,PIXEL14+*%
X217250000Y-54440000D03*
%TO.P,J5,16,Pin_16_16*%
%TO.N,PIXEL15+*%
X217250000Y-51900000D03*
%TO.P,J5,17,Pin_17_17*%
%TO.N,PIXEL16+*%
X217250000Y-49360000D03*
%TD*%
D15*
%TO.P,U12,1,OUTA_1*%
%TO.N,PD3_OUT*%
X209908656Y-101653300D03*
%TO.P,U12,2,INA-_2*%
%TO.N,PD3*%
X209258658Y-101653300D03*
%TO.P,U12,3,INA+_3*%
%TO.N,PDGND*%
X208608656Y-101653300D03*
%TO.P,U12,4,V-_4*%
%TO.N,GND*%
X207958658Y-101653300D03*
%TO.P,U12,5,INB+_5*%
%TO.N,PDGND*%
X207958658Y-105996700D03*
%TO.P,U12,6,INB-_6*%
%TO.N,PD4*%
X208608656Y-105996700D03*
%TO.P,U12,7,OUTB_7*%
%TO.N,PD4_OUT*%
X209258658Y-105996700D03*
%TO.P,U12,8,V+_8*%
%TO.N,+3V3*%
X209908656Y-105996700D03*
%TD*%
D12*
%TO.P,R9,1*%
%TO.N,Net-(U7-S3B)*%
X201750000Y-74500000D03*
%TO.P,R9,2*%
%TO.N,GND*%
X200100000Y-74500000D03*
%TD*%
D14*
%TO.P,R50,1*%
%TO.N,PD11*%
X186450000Y-99486600D03*
%TO.P,R50,2*%
%TO.N,PD11_OUT*%
X188100000Y-99486600D03*
%TD*%
D22*
%TO.P,J3,1,Pin_1_1*%
%TO.N,MTQ1+*%
X143500000Y-97340000D03*
D23*
%TO.P,J3,2,Pin_2_2*%
%TO.N,MTQ1-*%
X143500000Y-99880000D03*
%TO.P,J3,3,Pin_3_3*%
%TO.N,MTQ2+*%
X143500000Y-102420000D03*
%TO.P,J3,4,Pin_4_4*%
%TO.N,MTQ2-*%
X143500000Y-104960000D03*
%TO.P,J3,5,Pin_5_5*%
%TO.N,MTQ3+*%
X143500000Y-107500000D03*
%TO.P,J3,6,Pin_6_6*%
%TO.N,MTQ3-*%
X143500000Y-110040000D03*
%TD*%
D17*
%TO.P,C50,1*%
%TO.N,PD6*%
X201560000Y-109780000D03*
%TO.P,C50,2*%
%TO.N,PD6_OUT*%
X203110000Y-109780000D03*
%TD*%
D27*
%TO.P,U7,1,IN1_1*%
%TO.N,Net-(U5-GPA4)*%
X204325000Y-78319400D03*
%TO.P,U7,2,S1A_2*%
%TO.N,PIXEL+*%
X204975001Y-78319400D03*
%TO.P,U7,3,D1_3*%
%TO.N,PIXEL5+*%
X205624999Y-78319400D03*
%TO.P,U7,4,S1B_4*%
%TO.N,Net-(U7-S1B)*%
X206275001Y-78319400D03*
%TO.P,U7,5,VSS_5*%
%TO.N,GND*%
X206924999Y-78319400D03*
%TO.P,U7,6,GND_6*%
X207574998Y-78319400D03*
%TO.P,U7,7,S2B_7*%
%TO.N,Net-(U7-S2B)*%
X208224999Y-78319400D03*
%TO.P,U7,8,D2_8*%
%TO.N,PIXEL6+*%
X208874998Y-78319400D03*
%TO.P,U7,9,S2A_9*%
%TO.N,PIXEL+*%
X209524999Y-78319400D03*
%TO.P,U7,10,IN2_10*%
%TO.N,Net-(U5-GPA5)*%
X210174998Y-78319400D03*
%TO.P,U7,11,IN3_11*%
%TO.N,Net-(U5-GPA6)*%
X210175000Y-72680600D03*
%TO.P,U7,12,S3A_12*%
%TO.N,PIXEL+*%
X209525002Y-72680600D03*
%TO.P,U7,13,D3_13*%
%TO.N,PIXEL7+*%
X208875001Y-72680600D03*
%TO.P,U7,14,S3B_14*%
%TO.N,Net-(U7-S3B)*%
X208225002Y-72680600D03*
%TO.P,U7,15,NC_15*%
%TO.N,+3V3*%
X207575001Y-72680600D03*
%TO.P,U7,16,VDD_16*%
X206925002Y-72680600D03*
%TO.P,U7,17,S4B_17*%
%TO.N,Net-(U7-S4B)*%
X206275001Y-72680600D03*
%TO.P,U7,18,D4_18*%
%TO.N,PIXEL8+*%
X205625002Y-72680600D03*
%TO.P,U7,19,S4A_19*%
%TO.N,PIXEL+*%
X204975001Y-72680600D03*
%TO.P,U7,20,IN4_20*%
%TO.N,Net-(U5-GPA7)*%
X204325002Y-72680600D03*
%TD*%
D28*
%TO.P,CB1,1,1_1*%
%TO.N,+3V3*%
X156170000Y-93250000D03*
%TO.P,CB1,2,2_2*%
%TO.N,GND*%
X157520000Y-93250000D03*
%TD*%
D21*
%TO.P,C2,1*%
%TO.N,GND*%
X211500000Y-105020000D03*
%TO.P,C2,2*%
%TO.N,+3V3*%
X211500000Y-105980000D03*
%TD*%
D14*
%TO.P,R44,1*%
%TO.N,PD5*%
X203835000Y-99500000D03*
%TO.P,R44,2*%
%TO.N,PD5_OUT*%
X205485000Y-99500000D03*
%TD*%
%TO.P,R2,1*%
%TO.N,GND*%
X182700000Y-43662500D03*
%TO.P,R2,2*%
%TO.N,Net-(U1-+)*%
X184350000Y-43662500D03*
%TD*%
D18*
%TO.P,C41,1*%
%TO.N,GND*%
X157625000Y-110574999D03*
%TO.P,C41,2*%
%TO.N,+3V3*%
X156075000Y-110574999D03*
%TD*%
D12*
%TO.P,R3,1*%
%TO.N,Net-(U6-S1B)*%
X201750000Y-91500000D03*
%TO.P,R3,2*%
%TO.N,GND*%
X200100000Y-91500000D03*
%TD*%
D15*
%TO.P,U14,1,OUTA_1*%
%TO.N,PD7_OUT*%
X198325971Y-101653300D03*
%TO.P,U14,2,INA-_2*%
%TO.N,PD7*%
X197675973Y-101653300D03*
%TO.P,U14,3,INA+_3*%
%TO.N,PDGND*%
X197025971Y-101653300D03*
%TO.P,U14,4,V-_4*%
%TO.N,GND*%
X196375973Y-101653300D03*
%TO.P,U14,5,INB+_5*%
%TO.N,PDGND*%
X196375973Y-105996700D03*
%TO.P,U14,6,INB-_6*%
%TO.N,PD8*%
X197025971Y-105996700D03*
%TO.P,U14,7,OUTB_7*%
%TO.N,PD8_OUT*%
X197675973Y-105996700D03*
%TO.P,U14,8,V+_8*%
%TO.N,+3V3*%
X198325971Y-105996700D03*
%TD*%
D12*
%TO.P,R4,1*%
%TO.N,Net-(U6-S2B)*%
X201750000Y-89500000D03*
%TO.P,R4,2*%
%TO.N,GND*%
X200100000Y-89500000D03*
%TD*%
D19*
%TO.P,U4,1,VM_1*%
%TO.N,+3V3*%
X152674998Y-103013985D03*
%TO.P,U4,2,OUT1_2*%
%TO.N,MTQ2+*%
X152674998Y-103513986D03*
%TO.P,U4,3,OUT2_3*%
%TO.N,MTQ2-*%
X152674998Y-104013986D03*
%TO.P,U4,4,GND_4*%
%TO.N,GND*%
X152674998Y-104513987D03*
%TO.P,U4,5,IN2_5*%
%TO.N,MCTRL2_2*%
X154575000Y-104513987D03*
%TO.P,U4,6,IN1_6*%
%TO.N,MCTRL2_1*%
X154575000Y-104013986D03*
%TO.P,U4,7,~{SLEEP}_7*%
%TO.N,MSLEEP2*%
X154575000Y-103513986D03*
%TO.P,U4,8,VCC_8*%
%TO.N,+3V3*%
X154575000Y-103013985D03*
D20*
%TO.P,U4,9,GND_9*%
%TO.N,GND*%
X153624999Y-103763986D03*
%TD*%
D19*
%TO.P,U3,1,VM_1*%
%TO.N,+3V3*%
X152674998Y-95574998D03*
%TO.P,U3,2,OUT1_2*%
%TO.N,MTQ1+*%
X152674998Y-96074999D03*
%TO.P,U3,3,OUT2_3*%
%TO.N,MTQ1-*%
X152674998Y-96574999D03*
%TO.P,U3,4,GND_4*%
%TO.N,GND*%
X152674998Y-97075000D03*
%TO.P,U3,5,IN2_5*%
%TO.N,MCTRL1_2*%
X154575000Y-97075000D03*
%TO.P,U3,6,IN1_6*%
%TO.N,MCTRL1_1*%
X154575000Y-96574999D03*
%TO.P,U3,7,~{SLEEP}_7*%
%TO.N,MSLEEP1*%
X154575000Y-96074999D03*
%TO.P,U3,8,VCC_8*%
%TO.N,+3V3*%
X154575000Y-95574998D03*
D20*
%TO.P,U3,9,GND_9*%
%TO.N,GND*%
X153624999Y-96324999D03*
%TD*%
D27*
%TO.P,U8,1,IN1_1*%
%TO.N,Net-(U5-GPB0)*%
X204325001Y-65776348D03*
%TO.P,U8,2,S1A_2*%
%TO.N,PIXEL+*%
X204975002Y-65776348D03*
%TO.P,U8,3,D1_3*%
%TO.N,PIXEL9+*%
X205625000Y-65776348D03*
%TO.P,U8,4,S1B_4*%
%TO.N,Net-(U8-S1B)*%
X206275002Y-65776348D03*
%TO.P,U8,5,VSS_5*%
%TO.N,GND*%
X206925000Y-65776348D03*
%TO.P,U8,6,GND_6*%
X207574999Y-65776348D03*
%TO.P,U8,7,S2B_7*%
%TO.N,Net-(U8-S2B)*%
X208225000Y-65776348D03*
%TO.P,U8,8,D2_8*%
%TO.N,PIXEL10+*%
X208874999Y-65776348D03*
%TO.P,U8,9,S2A_9*%
%TO.N,PIXEL+*%
X209525000Y-65776348D03*
%TO.P,U8,10,IN2_10*%
%TO.N,Net-(U5-GPB1)*%
X210174999Y-65776348D03*
%TO.P,U8,11,IN3_11*%
%TO.N,Net-(U5-GPB2)*%
X210175001Y-60137548D03*
%TO.P,U8,12,S3A_12*%
%TO.N,PIXEL+*%
X209525003Y-60137548D03*
%TO.P,U8,13,D3_13*%
%TO.N,PIXEL11+*%
X208875002Y-60137548D03*
%TO.P,U8,14,S3B_14*%
%TO.N,Net-(U8-S3B)*%
X208225003Y-60137548D03*
%TO.P,U8,15,NC_15*%
%TO.N,+3V3*%
X207575002Y-60137548D03*
%TO.P,U8,16,VDD_16*%
X206925003Y-60137548D03*
%TO.P,U8,17,S4B_17*%
%TO.N,Net-(U8-S4B)*%
X206275002Y-60137548D03*
%TO.P,U8,18,D4_18*%
%TO.N,PIXEL12+*%
X205625003Y-60137548D03*
%TO.P,U8,19,S4A_19*%
%TO.N,PIXEL+*%
X204975002Y-60137548D03*
%TO.P,U8,20,IN4_20*%
%TO.N,Net-(U5-GPB3)*%
X204325003Y-60137548D03*
%TD*%
D17*
%TO.P,C52,1*%
%TO.N,PD8*%
X195760000Y-109780000D03*
%TO.P,C52,2*%
%TO.N,PD8_OUT*%
X197310000Y-109780000D03*
%TD*%
D32*
%TO.N,+3V3*%
X207731424Y-69900000D03*
X218250000Y-106000000D03*
X156750000Y-112000000D03*
X206688686Y-106000000D03*
X156750000Y-103938987D03*
X177723952Y-106000000D03*
X154500000Y-93750000D03*
X171933411Y-106000000D03*
X207774397Y-44289052D03*
X189326175Y-106000000D03*
X207739399Y-57400000D03*
X200900000Y-106000000D03*
X212500000Y-106000000D03*
X207750000Y-82900000D03*
X195106268Y-106000000D03*
X178950000Y-62800000D03*
X156750000Y-96500000D03*
X183522001Y-106000000D03*
X154500000Y-109250000D03*
X154500000Y-101188987D03*
X174600000Y-78500000D03*
X187250000Y-48675000D03*
%TO.N,GND*%
X199900000Y-104000000D03*
X166000000Y-101750000D03*
X181500000Y-43700000D03*
X206688959Y-101621700D03*
X212488959Y-101646700D03*
X194106268Y-104000000D03*
X185000000Y-50030000D03*
X154500000Y-107750000D03*
X199500000Y-80000000D03*
X154500000Y-99688987D03*
X212489399Y-57750000D03*
X199500000Y-67500000D03*
X159000000Y-102188987D03*
X212500000Y-83250000D03*
X212481424Y-70250000D03*
X183513959Y-101746700D03*
X153625000Y-111424999D03*
X159000000Y-110250000D03*
X212524397Y-44639052D03*
X211500000Y-104000000D03*
X153624999Y-96724999D03*
X200888959Y-101646700D03*
X159000000Y-94750000D03*
X170933411Y-104000000D03*
X154500000Y-92250000D03*
X182522001Y-104000000D03*
X207806473Y-80650000D03*
X153625000Y-103363986D03*
X188326175Y-104000000D03*
X217250000Y-104000000D03*
X189313959Y-101746700D03*
X163000000Y-44000000D03*
X195113959Y-101646700D03*
X153624999Y-112224999D03*
X152500000Y-44000000D03*
X205688686Y-104000000D03*
X177750000Y-101750000D03*
X199500000Y-54250000D03*
X153624999Y-104163986D03*
X207813973Y-68087500D03*
X181400000Y-56600000D03*
X199500000Y-93100000D03*
X207835320Y-54843099D03*
X171200000Y-75300000D03*
X176723952Y-104000000D03*
X153625000Y-95924999D03*
X171899265Y-101849265D03*
X207801473Y-93650000D03*
X177450000Y-62800000D03*
X165500000Y-114000000D03*
%TO.N,Net-(U6-S3B)*%
X208375000Y-83850000D03*
X203000000Y-87500000D03*
%TO.N,PD12*%
X183500000Y-104800000D03*
%TO.N,PD12_OUT*%
X185400000Y-111200000D03*
X158300006Y-45900000D03*
%TO.N,PD17_OUT*%
X171400000Y-96400000D03*
X154300000Y-45900000D03*
%TO.N,PD17*%
X166000000Y-103000000D03*
%TO.N,PDGND*%
X177300000Y-107100000D03*
X183200000Y-107200000D03*
X166000000Y-107000000D03*
X212200000Y-107200000D03*
X200900000Y-100400000D03*
X183500000Y-100400000D03*
X212500000Y-100400000D03*
X171400000Y-107300000D03*
X206700000Y-100400000D03*
X167750000Y-99750000D03*
X189300000Y-100400000D03*
X188800000Y-107200000D03*
X194700000Y-107200000D03*
X200600000Y-107300000D03*
X206400000Y-107300000D03*
X195100000Y-100400000D03*
X172000000Y-100400000D03*
X177700000Y-100400000D03*
%TO.N,PD18*%
X166000000Y-104500000D03*
%TO.N,PD18_OUT*%
X169900000Y-111100000D03*
X153500000Y-45900000D03*
%TO.N,PD8*%
X195100000Y-104800000D03*
%TO.N,PD8_OUT*%
X161500018Y-45900000D03*
X197100000Y-111200000D03*
%TO.N,PD7*%
X195000000Y-102800000D03*
%TO.N,PD7_OUT*%
X162300021Y-45900000D03*
X198800000Y-96400000D03*
%TO.N,Net-(U6-S4B)*%
X206275001Y-83750000D03*
X203000000Y-85500000D03*
%TO.N,PD13*%
X177600000Y-102900000D03*
%TO.N,PD13_OUT*%
X157500003Y-45900000D03*
X181800000Y-96400000D03*
%TO.N,Net-(U7-S4B)*%
X206256425Y-70750000D03*
X202974998Y-72525001D03*
%TO.N,Net-(U8-S4B)*%
X206264400Y-58250000D03*
X202999997Y-59994401D03*
%TO.N,PD2*%
X212500000Y-104800000D03*
%TO.N,PD2_OUT*%
X166300036Y-45900000D03*
X215700000Y-111200000D03*
%TO.N,PD5*%
X200800000Y-102800000D03*
%TO.N,PD5_OUT*%
X163900027Y-45900000D03*
X204700000Y-96400000D03*
%TO.N,PIXEL+*%
X207200000Y-61500000D03*
X207300000Y-76900000D03*
X207300000Y-90000000D03*
X207300000Y-51200000D03*
X207300000Y-64400000D03*
X207200000Y-48400000D03*
X207200000Y-87000000D03*
X179600000Y-49500000D03*
X207200000Y-74100000D03*
%TO.N,PD15_OUT*%
X175900000Y-96400000D03*
X155900000Y-45900000D03*
%TO.N,PD15*%
X171800000Y-103100000D03*
%TO.N,PD16*%
X171900000Y-104750000D03*
%TO.N,PD16_OUT*%
X155100000Y-45900000D03*
X173400000Y-111100000D03*
%TO.N,PD11*%
X183400000Y-102900000D03*
%TO.N,PD11_OUT*%
X187300000Y-96400000D03*
X159100009Y-45900000D03*
%TO.N,PD1_OUT*%
X167100039Y-45900000D03*
X216200000Y-96400000D03*
%TO.N,PD3_OUT*%
X210600000Y-96400000D03*
X165500033Y-45900000D03*
%TO.N,PD4_OUT*%
X164700030Y-45900000D03*
X209000000Y-111200000D03*
%TO.N,PD6_OUT*%
X204000000Y-111200000D03*
X163100024Y-45900000D03*
%TO.N,PD9_OUT*%
X193000000Y-96400000D03*
X160700015Y-45900000D03*
%TO.N,PD10_OUT*%
X159900012Y-45900000D03*
X191400000Y-111200000D03*
%TO.N,PD14_OUT*%
X179700000Y-111200000D03*
X156700000Y-45900000D03*
%TO.N,Net-(U9-S1B)*%
X206783847Y-54443099D03*
X202999997Y-52794401D03*
%TO.N,Net-(U9-S2B)*%
X208971347Y-54605599D03*
X202999997Y-50794401D03*
%TO.N,Net-(U9-S3B)*%
X208399397Y-45239052D03*
X202999997Y-48794401D03*
%TO.N,Net-(U9-S4B)*%
X206299398Y-45139052D03*
X202999997Y-46794401D03*
%TO.N,PD14*%
X177700000Y-104700000D03*
%TO.N,PD6*%
X200900000Y-104800000D03*
%TO.N,Net-(U7-S2B)*%
X209105000Y-80650000D03*
X202974998Y-76525001D03*
%TO.N,PD9*%
X189200000Y-102875000D03*
%TO.N,PD10*%
X189300000Y-104800000D03*
%TO.N,Net-(U7-S1B)*%
X202974998Y-78525001D03*
X206755000Y-80250000D03*
%TO.N,PD3*%
X206600000Y-102800000D03*
%TO.N,PD4*%
X206700000Y-104800000D03*
%TO.N,Net-(U8-S3B)*%
X208364399Y-58350000D03*
X202999997Y-61994401D03*
%TO.N,PD1*%
X212400000Y-102800000D03*
%TO.N,Net-(U8-S2B)*%
X209000000Y-67800000D03*
X202999997Y-63994401D03*
%TO.N,Net-(U8-S1B)*%
X202999997Y-65994401D03*
X206762500Y-67687500D03*
%TO.N,Net-(U6-S1B)*%
X206750000Y-93250000D03*
X203000000Y-91500000D03*
%TO.N,Net-(U6-S2B)*%
X203000000Y-89500000D03*
X209100000Y-93650000D03*
%TO.N,Net-(U7-S3B)*%
X203000000Y-74500000D03*
X208356424Y-70850000D03*
%TD*%
%TO.N,+3V3*%
D33*
X152850000Y-93975000D02*
X152674998Y-94150002D01*
X185487500Y-50762500D02*
X185237500Y-50762500D01*
X207456426Y-70889340D02*
X207456426Y-70174998D01*
X156170000Y-108750000D02*
X155000000Y-108750000D01*
X188326175Y-105977782D02*
X186796173Y-105977782D01*
X156170000Y-100688987D02*
X155000000Y-100688987D01*
X185875000Y-50375000D02*
X185487500Y-50762500D01*
X156075000Y-95074999D02*
X156075000Y-95825000D01*
X178680000Y-63800000D02*
X178680000Y-63070000D01*
X207456426Y-70174998D02*
X207731424Y-69900000D01*
X206914401Y-60180600D02*
X206914401Y-58939340D01*
D34*
X207575001Y-85680600D02*
X206925002Y-85680600D01*
D33*
X217250000Y-105980000D02*
X218230000Y-105980000D01*
X156170000Y-93250000D02*
X155000000Y-93250000D01*
X207739399Y-57400000D02*
X209289399Y-57400000D01*
X156075000Y-102513986D02*
X154985000Y-102513986D01*
X178680000Y-63800000D02*
X178680000Y-65535000D01*
X156075000Y-110574999D02*
X154985000Y-110574999D01*
X206906426Y-71439340D02*
X207456426Y-70889340D01*
X155000000Y-108750000D02*
X154500000Y-109250000D01*
X199900000Y-105980000D02*
X198369998Y-105980000D01*
X218230000Y-105980000D02*
X218250000Y-106000000D01*
X156075000Y-110574999D02*
X156075000Y-111325000D01*
D34*
X207599999Y-47000000D02*
X206950000Y-47000000D01*
D33*
X185875000Y-48662500D02*
X185875000Y-49250000D01*
X205688686Y-105959499D02*
X206668686Y-105959499D01*
X156075000Y-103263987D02*
X156750000Y-103938987D01*
D35*
X185237500Y-50762500D02*
X183850000Y-50762500D01*
D33*
X207464401Y-58389340D02*
X207464401Y-57674998D01*
X170933411Y-105977782D02*
X171913411Y-105977782D01*
X206906426Y-72680600D02*
X206906426Y-71439340D01*
X155000000Y-93250000D02*
X154500000Y-93750000D01*
X156075000Y-111325000D02*
X156750000Y-112000000D01*
X206949399Y-47069652D02*
X206949399Y-45828392D01*
X207475002Y-83174998D02*
X207750000Y-82900000D01*
X176450000Y-79375000D02*
X175475000Y-79375000D01*
X185875000Y-48662500D02*
X186987500Y-48662500D01*
X184412500Y-47412500D02*
X184000000Y-47000000D01*
X185875000Y-48662500D02*
X185875000Y-48187500D01*
X170933411Y-105977782D02*
X169403409Y-105977782D01*
X152850000Y-93975000D02*
X154275000Y-93975000D01*
X207750000Y-82900000D02*
X209300000Y-82900000D01*
X194106268Y-105980000D02*
X192576266Y-105980000D01*
X185100000Y-47412500D02*
X184412500Y-47412500D01*
X176723952Y-105977782D02*
X177703952Y-105977782D01*
X206949399Y-45828392D02*
X207499399Y-45278392D01*
X194106268Y-105980000D02*
X195086268Y-105980000D01*
D34*
X207575002Y-60137548D02*
X206925003Y-60137548D01*
D33*
X156075000Y-102513986D02*
X156075000Y-103263987D01*
X154985000Y-95074999D02*
X154575000Y-95484999D01*
X186125000Y-49000000D02*
X185875000Y-49250000D01*
X207475002Y-83889340D02*
X207475002Y-83174998D01*
X152850000Y-109475000D02*
X152674998Y-109650002D01*
X154275000Y-101413987D02*
X154500000Y-101188987D01*
X206925002Y-84439340D02*
X207475002Y-83889340D01*
X152674998Y-101588989D02*
X152674998Y-102996986D01*
X211500000Y-105960000D02*
X212480000Y-105960000D01*
X152850000Y-109475000D02*
X154275000Y-109475000D01*
X182522001Y-105977782D02*
X183502001Y-105977782D01*
X152674998Y-94150002D02*
X152674998Y-95557999D01*
X154275000Y-109475000D02*
X154500000Y-109250000D01*
X215719998Y-105980000D02*
X215715900Y-105984098D01*
X209281424Y-69900000D02*
X209631424Y-70250000D01*
X209300000Y-82900000D02*
X209650000Y-83250000D01*
X156075000Y-95074999D02*
X154985000Y-95074999D01*
X199900000Y-105980000D02*
X200880000Y-105980000D01*
X185875000Y-48187500D02*
X185100000Y-47412500D01*
X185875000Y-49250000D02*
X185875000Y-50375000D01*
X175475000Y-79375000D02*
X174600000Y-78500000D01*
X207464401Y-57674998D02*
X207739399Y-57400000D01*
X207731424Y-69900000D02*
X209281424Y-69900000D01*
X206914401Y-58939340D02*
X207464401Y-58389340D01*
X206925002Y-85680600D02*
X206925002Y-84439340D01*
X176723952Y-105977782D02*
X175193950Y-105977782D01*
X154985000Y-102513986D02*
X154575000Y-102923986D01*
X152850000Y-101413987D02*
X154275000Y-101413987D01*
X178680000Y-65535000D02*
X178795000Y-65650000D01*
X215715900Y-105984098D02*
X215715900Y-106000000D01*
X217250000Y-105980000D02*
X215719998Y-105980000D01*
X152850000Y-101413987D02*
X152674998Y-101588989D01*
X156075000Y-95825000D02*
X156750000Y-96500000D01*
X207774397Y-44289052D02*
X209324397Y-44289052D01*
X182522001Y-105977782D02*
X180991999Y-105977782D01*
X152674998Y-109650002D02*
X152674998Y-111057999D01*
X209324397Y-44289052D02*
X209674397Y-44639052D01*
D34*
X207575001Y-72680600D02*
X206925002Y-72680600D01*
D33*
X212480000Y-105960000D02*
X212500000Y-105980000D01*
X209289399Y-57400000D02*
X209639399Y-57750000D01*
X154985000Y-110574999D02*
X154575000Y-110984999D01*
X155000000Y-100688987D02*
X154500000Y-101188987D01*
X186987500Y-48662500D02*
X187000000Y-48675000D01*
X207499399Y-45278392D02*
X207499399Y-44564050D01*
X205688686Y-105959499D02*
X204158684Y-105959499D01*
X188326175Y-105977782D02*
X189306175Y-105977782D01*
X207499399Y-44564050D02*
X207774397Y-44289052D01*
X178680000Y-63070000D02*
X178950000Y-62800000D01*
X211500000Y-105960000D02*
X209969998Y-105960000D01*
X154275000Y-93975000D02*
X154500000Y-93750000D01*
%TO.N,GND*%
X200100000Y-79400000D02*
X199500000Y-80000000D01*
X159000000Y-101438987D02*
X159000000Y-102188987D01*
X153025000Y-99688987D02*
X152850000Y-99863987D01*
X153624999Y-111824999D02*
X153624999Y-112268998D01*
X153301998Y-97091999D02*
X152674998Y-97091999D01*
D34*
X172950000Y-68050000D02*
X175700000Y-68050000D01*
X176255000Y-67495000D02*
X176255000Y-65650000D01*
D33*
X195149998Y-101550000D02*
X195149998Y-101610661D01*
X177720000Y-63070000D02*
X177450000Y-62800000D01*
D35*
X183350000Y-49896198D02*
X183350000Y-50762500D01*
D33*
X207587498Y-65756900D02*
X207587498Y-67861025D01*
X181850000Y-55866302D02*
X181850000Y-55062500D01*
X159000000Y-94000000D02*
X159000000Y-94750000D01*
X212524998Y-101550000D02*
X212524998Y-101610661D01*
X207579998Y-78319400D02*
X207579998Y-80423525D01*
X153624999Y-96324999D02*
X153624999Y-95925000D01*
X154500000Y-92250000D02*
X153025000Y-92250000D01*
X181416302Y-56583698D02*
X181400000Y-56600000D01*
X199900000Y-105020000D02*
X199900000Y-104000000D01*
X153624999Y-112268998D02*
X153301998Y-112591999D01*
X183549998Y-101650000D02*
X183549998Y-101710661D01*
X153624999Y-103763986D02*
X153624999Y-103363987D01*
X153624999Y-111824999D02*
X153624999Y-111425000D01*
X200924998Y-101550000D02*
X202125002Y-101550000D01*
X217250000Y-105020000D02*
X217250000Y-104000000D01*
X167403358Y-101653300D02*
X166096700Y-101653300D01*
X200100000Y-72500000D02*
X200100000Y-78500000D01*
X206937499Y-65756900D02*
X207587498Y-65756900D01*
X188326175Y-105017782D02*
X188326175Y-103997782D01*
X153624999Y-103763986D02*
X153624999Y-104207985D01*
X182700000Y-43662500D02*
X181537500Y-43662500D01*
X158250000Y-100688987D02*
X159000000Y-101438987D01*
X211181424Y-70250000D02*
X212481424Y-70250000D01*
X157520000Y-108750000D02*
X158250000Y-108750000D01*
X166096700Y-101653300D02*
X166000000Y-101750000D01*
X170933411Y-105017782D02*
X170933411Y-103997782D01*
X182522001Y-105017782D02*
X182522001Y-103997782D01*
X200924998Y-101550000D02*
X200924998Y-101610661D01*
X211500000Y-105000000D02*
X211500000Y-103980000D01*
X153624999Y-96324999D02*
X153624999Y-96768998D01*
X172445000Y-74950000D02*
X174985000Y-74950000D01*
X207579998Y-80423525D02*
X207806473Y-80650000D01*
X176723952Y-105017782D02*
X176723952Y-103997782D01*
X200100000Y-92500000D02*
X199500000Y-93100000D01*
X158675001Y-95074999D02*
X159000000Y-94750000D01*
X158250000Y-108750000D02*
X159000000Y-109500000D01*
D34*
X175700000Y-68050000D02*
X176255000Y-67495000D01*
D33*
X157625000Y-110574999D02*
X158675001Y-110574999D01*
D34*
X172445000Y-67545000D02*
X172950000Y-68050000D01*
D33*
X154500000Y-99688987D02*
X153025000Y-99688987D01*
X200100000Y-66000000D02*
X200100000Y-66900000D01*
X206724998Y-101525000D02*
X206724998Y-101585661D01*
X157625000Y-102513986D02*
X158675001Y-102513986D01*
X195149998Y-101550000D02*
X196350002Y-101550000D01*
X200100000Y-91500000D02*
X200100000Y-92500000D01*
X158675001Y-110574999D02*
X159000000Y-110250000D01*
X207574998Y-93423525D02*
X207801473Y-93650000D01*
X153025000Y-107750000D02*
X152850000Y-107925000D01*
X177525000Y-65650000D02*
X177525000Y-63995000D01*
X171550000Y-74950000D02*
X171200000Y-75300000D01*
X177525000Y-63995000D02*
X177720000Y-63800000D01*
X177786039Y-101713961D02*
X177750000Y-101750000D01*
X182250000Y-55466302D02*
X182250000Y-55062500D01*
X153624999Y-103363987D02*
X153625000Y-103363986D01*
X153624999Y-96768998D02*
X153301998Y-97091999D01*
X211200000Y-83250000D02*
X212500000Y-83250000D01*
X207835320Y-54843099D02*
X207599996Y-54607775D01*
X153624999Y-111425000D02*
X153625000Y-111424999D01*
X181416302Y-56300000D02*
X181416302Y-56583698D01*
X183350000Y-44312500D02*
X183350000Y-45325000D01*
X153624999Y-104207985D02*
X153301998Y-104530986D01*
X153624999Y-95925000D02*
X153625000Y-95924999D01*
X207574998Y-91319400D02*
X207574998Y-93423525D01*
X181416302Y-56300000D02*
X181850000Y-55866302D01*
X159000000Y-109500000D02*
X159000000Y-110250000D01*
X167000000Y-114000000D02*
X165500000Y-114000000D01*
D35*
X184325000Y-48662500D02*
X184325000Y-48921198D01*
D33*
X158250000Y-93250000D02*
X159000000Y-94000000D01*
X157520000Y-93250000D02*
X158250000Y-93250000D01*
X212524998Y-101550000D02*
X213725002Y-101550000D01*
X189349998Y-101650000D02*
X189349998Y-101710661D01*
X206924999Y-91319400D02*
X207574998Y-91319400D01*
X153301998Y-104530986D02*
X152674998Y-104530986D01*
X184325000Y-49075000D02*
X185000000Y-49750000D01*
X154500000Y-107750000D02*
X153025000Y-107750000D01*
X200100000Y-46750000D02*
X200100000Y-52750000D01*
D34*
X172445000Y-65650000D02*
X172445000Y-67545000D01*
D33*
X153025000Y-92250000D02*
X152850000Y-92425000D01*
X207599996Y-54607775D02*
X207599996Y-52638800D01*
X185000000Y-49750000D02*
X185000000Y-50030000D01*
X177720000Y-63800000D02*
X177720000Y-63070000D01*
X200100000Y-60000000D02*
X200100000Y-66000000D01*
X183549998Y-101650000D02*
X184750002Y-101650000D01*
X200100000Y-78500000D02*
X200100000Y-79400000D01*
X211224397Y-44639052D02*
X212524397Y-44639052D01*
X207599996Y-52638800D02*
X206949997Y-52638800D01*
X153301998Y-112591999D02*
X152674998Y-112591999D01*
X200100000Y-52750000D02*
X200100000Y-53650000D01*
X157625000Y-95074999D02*
X158675001Y-95074999D01*
X189349998Y-101650000D02*
X190550002Y-101650000D01*
X177786039Y-101653300D02*
X177786039Y-101713961D01*
X184325000Y-48662500D02*
X184325000Y-49075000D01*
X194106268Y-105020000D02*
X194106268Y-104000000D01*
X177786039Y-101653300D02*
X178986043Y-101653300D01*
X206724998Y-101525000D02*
X207925002Y-101525000D01*
X200100000Y-66900000D02*
X199500000Y-67500000D01*
X206929999Y-78319400D02*
X207579998Y-78319400D01*
X207587498Y-67861025D02*
X207813973Y-68087500D01*
X172095230Y-101653300D02*
X171899265Y-101849265D01*
X173194701Y-101653300D02*
X172095230Y-101653300D01*
X200100000Y-53650000D02*
X199500000Y-54250000D01*
X172445000Y-74950000D02*
X171550000Y-74950000D01*
X205688686Y-104999499D02*
X205688686Y-103979499D01*
D35*
X184325000Y-48921198D02*
X183350000Y-49896198D01*
D33*
X211189399Y-57750000D02*
X212489399Y-57750000D01*
X200100000Y-91500000D02*
X200100000Y-85500000D01*
X181850000Y-55866302D02*
X182250000Y-55466302D01*
X158675001Y-102513986D02*
X159000000Y-102188987D01*
X157520000Y-100688987D02*
X158250000Y-100688987D01*
X182700000Y-43662500D02*
X183350000Y-44312500D01*
D34*
X176255000Y-65650000D02*
X177525000Y-65650000D01*
D33*
X181537500Y-43662500D02*
X181500000Y-43700000D01*
%TO.N,Net-(U6-S3B)*%
D34*
X208225002Y-85680600D02*
X208225002Y-83999998D01*
X203000000Y-87500000D02*
X201750000Y-87500000D01*
X208225002Y-83999998D02*
X208375000Y-83850000D01*
%TO.N,Net-(U5-~{RESET})*%
X176450000Y-75145000D02*
X176255000Y-74950000D01*
X176450000Y-77725000D02*
X176450000Y-75145000D01*
%TO.N,PD12*%
X184150000Y-109723400D02*
X184200000Y-109773400D01*
X185123688Y-104800000D02*
X185443286Y-105119598D01*
X185449998Y-105993400D02*
X185449998Y-106943402D01*
X183500000Y-104800000D02*
X185123688Y-104800000D01*
X185449998Y-106943402D02*
X184150000Y-108243400D01*
X185443286Y-105119598D02*
X185443286Y-105996700D01*
X184150000Y-108243400D02*
X184150000Y-109723400D01*
%TO.N,PD12_OUT*%
X185800000Y-108243400D02*
X186100000Y-107943400D01*
X186100000Y-107943400D02*
X186100000Y-105993400D01*
X185750000Y-108293400D02*
X185800000Y-108243400D01*
X185750000Y-109780000D02*
X185750000Y-110850000D01*
X185750000Y-109773400D02*
X185750000Y-108293400D01*
X158300006Y-45900000D02*
X158300006Y-45800006D01*
X156500000Y-44000000D02*
X156500000Y-41500000D01*
X185750000Y-110850000D02*
X185400000Y-111200000D01*
X158300006Y-45800006D02*
X156500000Y-44000000D01*
%TO.N,PD17_OUT*%
X154300000Y-45900000D02*
X154050000Y-45650000D01*
X170750000Y-100261598D02*
X169374998Y-101636600D01*
X170700000Y-99430000D02*
X170750000Y-99480000D01*
X170750000Y-99480000D02*
X170750000Y-100261598D01*
X170700000Y-97956600D02*
X170700000Y-97100000D01*
X170700000Y-97950000D02*
X170700000Y-99430000D01*
X170700000Y-97100000D02*
X171400000Y-96400000D01*
X154050000Y-41550000D02*
X154000000Y-41500000D01*
X154050000Y-45650000D02*
X154050000Y-41550000D01*
%TO.N,PD17*%
X168719260Y-102530398D02*
X168719260Y-101653300D01*
X166000000Y-103000000D02*
X168249658Y-103000000D01*
X168725000Y-99855000D02*
X169100000Y-99480000D01*
X169100000Y-99480000D02*
X169100000Y-98000000D01*
X168249658Y-103000000D02*
X168719260Y-102530398D01*
X168725000Y-101636600D02*
X168725000Y-99855000D01*
X169100000Y-98000000D02*
X169150000Y-97950000D01*
%TO.N,PDGND*%
X173860601Y-100760601D02*
X173860601Y-101653300D01*
X185000000Y-100400000D02*
X185443286Y-100843286D01*
X214023801Y-100400000D02*
X214399999Y-100776198D01*
X188800000Y-107200000D02*
X189381330Y-107200000D01*
X168069258Y-100069258D02*
X168069258Y-101653300D01*
X200864015Y-107300000D02*
X202167315Y-105996700D01*
X172000000Y-100400000D02*
X173500000Y-100400000D01*
X191234628Y-100834628D02*
X191234628Y-101653300D01*
X212200000Y-107200000D02*
X212546701Y-107200000D01*
X177898645Y-107100000D02*
X179001945Y-105996700D01*
X196649773Y-100400000D02*
X197025971Y-100776198D01*
X171400000Y-107300000D02*
X171907303Y-107300000D01*
X177700000Y-100400000D02*
X179300000Y-100400000D01*
X173500000Y-100400000D02*
X173860601Y-100760601D01*
X166000000Y-107000000D02*
X166415960Y-107000000D01*
X197025971Y-100776198D02*
X197025971Y-101653300D01*
X185443286Y-100843286D02*
X185443286Y-101653300D01*
X200600000Y-107300000D02*
X200864015Y-107300000D01*
X208608656Y-100776198D02*
X208608656Y-101653300D01*
X202441115Y-100400000D02*
X202817313Y-100776198D01*
X168000000Y-114000000D02*
X168940000Y-114000000D01*
X212500000Y-100400000D02*
X214023801Y-100400000D01*
X183589988Y-107200000D02*
X184793288Y-105996700D01*
X202817313Y-100776198D02*
X202817313Y-101653300D01*
X195172673Y-107200000D02*
X196375973Y-105996700D01*
X206655358Y-107300000D02*
X207958658Y-105996700D01*
X206400000Y-107300000D02*
X206655358Y-107300000D01*
X208232458Y-100400000D02*
X208608656Y-100776198D01*
X171907303Y-107300000D02*
X173210603Y-105996700D01*
X179300000Y-100400000D02*
X179651943Y-100751943D01*
X189300000Y-100400000D02*
X190800000Y-100400000D01*
X183500000Y-100400000D02*
X185000000Y-100400000D01*
X183200000Y-107200000D02*
X183589988Y-107200000D01*
X206700000Y-100400000D02*
X208232458Y-100400000D01*
X177300000Y-107100000D02*
X177898645Y-107100000D01*
X179651943Y-100751943D02*
X179651943Y-101653300D01*
X190800000Y-100400000D02*
X191234628Y-100834628D01*
X166415960Y-107000000D02*
X167419260Y-105996700D01*
X214399999Y-100776198D02*
X214399999Y-101653300D01*
X200900000Y-100400000D02*
X202441115Y-100400000D01*
X189381330Y-107200000D02*
X190584630Y-105996700D01*
X168940000Y-114000000D02*
X212120000Y-114000000D01*
X195100000Y-100400000D02*
X196649773Y-100400000D01*
X167750000Y-99750000D02*
X168069258Y-100069258D01*
X212546701Y-107200000D02*
X213750001Y-105996700D01*
X194700000Y-107200000D02*
X195172673Y-107200000D01*
%TO.N,PD18*%
X166764340Y-108243400D02*
X166764340Y-109723400D01*
X166000000Y-104500000D02*
X167483758Y-104500000D01*
X167483758Y-104500000D02*
X168069258Y-105085500D01*
X168069258Y-105085500D02*
X168069258Y-105996700D01*
X168064338Y-105993400D02*
X168064338Y-106943402D01*
X168064338Y-106943402D02*
X166764340Y-108243400D01*
X166764340Y-109723400D02*
X166814340Y-109773400D01*
%TO.N,PD18_OUT*%
X168364340Y-109780000D02*
X168580000Y-109780000D01*
X168364340Y-109773400D02*
X168364340Y-108293400D01*
X168414340Y-108243400D02*
X168714340Y-107943400D01*
X168364340Y-108293400D02*
X168414340Y-108243400D01*
X153500000Y-45900000D02*
X153500000Y-41500000D01*
X168714340Y-107943400D02*
X168714340Y-105993400D01*
X168580000Y-109780000D02*
X169900000Y-111100000D01*
%TO.N,PD8*%
X197009998Y-106943402D02*
X195710000Y-108243400D01*
X195710000Y-108243400D02*
X195710000Y-109723400D01*
X195710000Y-109723400D02*
X195760000Y-109773400D01*
X196740471Y-104800000D02*
X197025971Y-105085500D01*
X197025971Y-105085500D02*
X197025971Y-105996700D01*
X195100000Y-104800000D02*
X196740471Y-104800000D01*
X197009998Y-105993400D02*
X197009998Y-106943402D01*
%TO.N,PD8_OUT*%
X197310000Y-109780000D02*
X197310000Y-110990000D01*
X197310000Y-109773400D02*
X197310000Y-108293400D01*
X197360000Y-108243400D02*
X197660000Y-107943400D01*
X197310000Y-110990000D02*
X197100000Y-111200000D01*
X197310000Y-108293400D02*
X197360000Y-108243400D01*
X161500018Y-45851474D02*
X158500000Y-42851456D01*
X158500000Y-42851456D02*
X158500000Y-41500000D01*
X197660000Y-107943400D02*
X197660000Y-105993400D01*
X161500018Y-45900000D02*
X161500018Y-45851474D01*
%TO.N,Net-(U1-+)*%
X184350000Y-44975000D02*
X184000000Y-45325000D01*
X184350000Y-43662500D02*
X184350000Y-43737500D01*
X184350000Y-43737500D02*
X184425000Y-43812500D01*
X184350000Y-43662500D02*
X184350000Y-44975000D01*
X184350000Y-41662500D02*
X184350000Y-43662500D01*
%TO.N,VDAC*%
X178290000Y-41500000D02*
X182537500Y-41500000D01*
X182537500Y-41500000D02*
X182700000Y-41662500D01*
%TO.N,PD7*%
X197660000Y-101636600D02*
X197660000Y-99855000D01*
X198035000Y-99480000D02*
X198035000Y-98000000D01*
X195000000Y-102800000D02*
X197300000Y-102800000D01*
X197660000Y-99855000D02*
X198035000Y-99480000D01*
X197675973Y-102424027D02*
X197675973Y-101653300D01*
X198035000Y-98000000D02*
X198085000Y-97950000D01*
X197300000Y-102800000D02*
X197675973Y-102424027D01*
%TO.N,PD7_OUT*%
X199635000Y-97235000D02*
X198800000Y-96400000D01*
X199635000Y-97956600D02*
X199635000Y-97235000D01*
X199685000Y-99480000D02*
X199685000Y-100261598D01*
X199635000Y-97950000D02*
X199635000Y-99430000D01*
X199685000Y-100261598D02*
X198309998Y-101636600D01*
X162300021Y-45900000D02*
X162300021Y-45851474D01*
X162300021Y-45851474D02*
X159000000Y-42551453D01*
X159000000Y-42551453D02*
X159000000Y-41500000D01*
X199635000Y-99430000D02*
X199685000Y-99480000D01*
%TO.N,Net-(U6-S4B)*%
X206275001Y-83750000D02*
X206275001Y-85680600D01*
X206275001Y-83625000D02*
X206275001Y-83750000D01*
X203000000Y-85500000D02*
X201750000Y-85500000D01*
%TO.N,Net-(U5-GPB0)*%
X191805000Y-68500000D02*
X202465686Y-68500000D01*
X188955000Y-65650000D02*
X191805000Y-68500000D01*
X204325001Y-66640685D02*
X204325001Y-65776348D01*
X202465686Y-68500000D02*
X204325001Y-66640685D01*
%TO.N,Net-(U5-GPB1)*%
X202300000Y-68100000D02*
X203847201Y-66552799D01*
X187685000Y-65254448D02*
X188614448Y-64325000D01*
X187685000Y-65650000D02*
X187685000Y-65254448D01*
X209000000Y-63100000D02*
X210174999Y-64274999D01*
X195476471Y-64325000D02*
X199251471Y-68100000D01*
X188614448Y-64325000D02*
X195476471Y-64325000D01*
X203847201Y-66552799D02*
X203847201Y-64752799D01*
X203847201Y-64752799D02*
X205500000Y-63100000D01*
X205500000Y-63100000D02*
X209000000Y-63100000D01*
X199251471Y-68100000D02*
X202300000Y-68100000D01*
X210174999Y-64274999D02*
X210174999Y-65776348D01*
%TO.N,Net-(U5-GPB2)*%
X191815001Y-59225000D02*
X200762648Y-59225000D01*
X204025000Y-61225000D02*
X205500000Y-62700000D01*
X201787352Y-61225000D02*
X204025000Y-61225000D01*
X209000000Y-62700000D02*
X210175001Y-61524999D01*
X186415000Y-65650000D02*
X186415000Y-64625001D01*
X186415000Y-64625001D02*
X191815001Y-59225000D01*
X201050000Y-59512352D02*
X201050000Y-60487648D01*
X200762648Y-59225000D02*
X201050000Y-59512352D01*
X205500000Y-62700000D02*
X209000000Y-62700000D01*
X201050000Y-60487648D02*
X201787352Y-61225000D01*
X210175001Y-61524999D02*
X210175001Y-60137548D01*
%TO.N,Net-(U5-GPB3)*%
X202900000Y-58400000D02*
X204325003Y-59825003D01*
X204325003Y-59825003D02*
X204325003Y-60137548D01*
X191370001Y-58400000D02*
X202900000Y-58400000D01*
X185145000Y-64625001D02*
X191370001Y-58400000D01*
X185145000Y-65650000D02*
X185145000Y-64625001D01*
%TO.N,Net-(U5-GPB4)*%
X192400000Y-56200000D02*
X201725398Y-56200000D01*
X183875000Y-64725000D02*
X192400000Y-56200000D01*
X201725398Y-56200000D02*
X204349998Y-53575400D01*
X204349998Y-53575400D02*
X204349998Y-52638800D01*
X183875000Y-65650000D02*
X183875000Y-64725000D01*
%TO.N,Net-(U5-GPB5)*%
X205500000Y-49900000D02*
X209400000Y-49900000D01*
X203872198Y-51527802D02*
X205500000Y-49900000D01*
X202150000Y-54850000D02*
X203872198Y-53127802D01*
X192380001Y-54850000D02*
X202150000Y-54850000D01*
X209400000Y-49900000D02*
X210199996Y-50699996D01*
X182605000Y-64625001D02*
X192380001Y-54850000D01*
X203872198Y-53127802D02*
X203872198Y-51527802D01*
X210199996Y-50699996D02*
X210199996Y-52638800D01*
X182605000Y-65650000D02*
X182605000Y-64625001D01*
%TO.N,Net-(U5-GPB6)*%
X203872200Y-46800000D02*
X203872200Y-47872200D01*
X181335000Y-65650000D02*
X181335000Y-64327352D01*
X209400000Y-49500000D02*
X210199998Y-48700002D01*
X181335000Y-64327352D02*
X199687352Y-45975000D01*
X199687352Y-45975000D02*
X203047200Y-45975000D01*
X205500000Y-49500000D02*
X209400000Y-49500000D01*
X203047200Y-45975000D02*
X203872200Y-46800000D01*
X203872200Y-47872200D02*
X205500000Y-49500000D01*
X210199998Y-48700002D02*
X210199998Y-47000000D01*
%TO.N,Net-(U5-GPB7)*%
X204350000Y-45950000D02*
X204350000Y-47000000D01*
X180065000Y-64235000D02*
X199600000Y-44700000D01*
X199600000Y-44700000D02*
X203100000Y-44700000D01*
X203100000Y-44700000D02*
X204350000Y-45950000D01*
X180065000Y-65650000D02*
X180065000Y-64235000D01*
%TO.N,SCK*%
X173210000Y-53210000D02*
X173210000Y-41500000D01*
X179734314Y-57800000D02*
X174800000Y-52865686D01*
X181935595Y-57800000D02*
X179734314Y-57800000D01*
X174985000Y-65650000D02*
X174985000Y-54985000D01*
X174800000Y-52865686D02*
X174800000Y-43090000D01*
X174985000Y-54985000D02*
X173210000Y-53210000D01*
X174800000Y-43090000D02*
X173210000Y-41500000D01*
X183850000Y-55062500D02*
X183850000Y-55885595D01*
X183850000Y-55885595D02*
X181935595Y-57800000D01*
%TO.N,SDA*%
X171400000Y-40700000D02*
X172900000Y-39200000D01*
X175700000Y-41550000D02*
X175750000Y-41500000D01*
X173715000Y-65650000D02*
X173715000Y-54280686D01*
X175300000Y-39200000D02*
X175750000Y-39650000D01*
X175700000Y-53200000D02*
X175700000Y-41550000D01*
X171400000Y-51965686D02*
X171400000Y-40700000D01*
X172900000Y-39200000D02*
X175300000Y-39200000D01*
X183350000Y-55062500D02*
X183350000Y-55819910D01*
X173715000Y-54280686D02*
X171400000Y-51965686D01*
X181769910Y-57400000D02*
X179900000Y-57400000D01*
X179900000Y-57400000D02*
X175700000Y-53200000D01*
X175750000Y-39650000D02*
X175750000Y-41500000D01*
X183350000Y-55819910D02*
X181769910Y-57400000D01*
%TO.N,Net-(U5-GPA0)*%
X180065000Y-75365000D02*
X198800000Y-94100000D01*
X180065000Y-74950000D02*
X180065000Y-75365000D01*
X202665686Y-94100000D02*
X204325000Y-92440686D01*
X198800000Y-94100000D02*
X202665686Y-94100000D01*
X204325000Y-92440686D02*
X204325000Y-91319400D01*
%TO.N,Net-(U5-GPA1)*%
X209300000Y-88700000D02*
X210174998Y-89574998D01*
X181335000Y-75783529D02*
X199251471Y-93700000D01*
X205500000Y-88700000D02*
X209300000Y-88700000D01*
X181335000Y-74950000D02*
X181335000Y-75783529D01*
X202500000Y-93700000D02*
X203847200Y-92352800D01*
X203847200Y-92352800D02*
X203847200Y-90352800D01*
X199251471Y-93700000D02*
X202500000Y-93700000D01*
X210174998Y-89574998D02*
X210174998Y-91319400D01*
X203847200Y-90352800D02*
X205500000Y-88700000D01*
%TO.N,Net-(U5-GPA2)*%
X209300000Y-88200000D02*
X210175000Y-87325000D01*
X182605000Y-74950000D02*
X182605000Y-75974999D01*
X203847202Y-85247202D02*
X203847202Y-86547202D01*
X210175000Y-87325000D02*
X210175000Y-85680600D01*
X203847202Y-86547202D02*
X205500000Y-88200000D01*
X205500000Y-88200000D02*
X209300000Y-88200000D01*
X182605000Y-75974999D02*
X191355001Y-84725000D01*
X203325000Y-84725000D02*
X203847202Y-85247202D01*
X191355001Y-84725000D02*
X203325000Y-84725000D01*
%TO.N,Net-(U5-GPA3)*%
X203528202Y-84325000D02*
X204325002Y-85121800D01*
X183875000Y-74950000D02*
X183875000Y-75974999D01*
X204325002Y-85121800D02*
X204325002Y-85680600D01*
X192225001Y-84325000D02*
X203528202Y-84325000D01*
X183875000Y-75974999D02*
X192225001Y-84325000D01*
%TO.N,Net-(U5-GPA4)*%
X202203200Y-81000000D02*
X204325000Y-78878200D01*
X185145000Y-74950000D02*
X185145000Y-75745000D01*
X204325000Y-78878200D02*
X204325000Y-78319400D01*
X185145000Y-75745000D02*
X190400000Y-81000000D01*
X190400000Y-81000000D02*
X202203200Y-81000000D01*
%TO.N,Net-(U5-GPA5)*%
X203847200Y-77452800D02*
X205400000Y-75900000D01*
X205400000Y-75900000D02*
X209200000Y-75900000D01*
X186415000Y-74950000D02*
X186415000Y-75974999D01*
X210174998Y-76874998D02*
X210174998Y-78319400D01*
X186415000Y-75974999D02*
X191040001Y-80600000D01*
X191040001Y-80600000D02*
X201748528Y-80600000D01*
X203847200Y-78501328D02*
X203847200Y-77452800D01*
X201748528Y-80600000D02*
X203847200Y-78501328D01*
X209200000Y-75900000D02*
X210174998Y-76874998D01*
%TO.N,Net-(U5-GPA6)*%
X187985001Y-76275000D02*
X195137352Y-76275000D01*
X210175000Y-74325000D02*
X210175000Y-72680600D01*
X187685000Y-74950000D02*
X187685000Y-75974999D01*
X187685000Y-75974999D02*
X187985001Y-76275000D01*
X195137352Y-76275000D02*
X199687352Y-71725000D01*
X199687352Y-71725000D02*
X200512648Y-71725000D01*
X200800000Y-72012352D02*
X200800000Y-72900000D01*
X209200000Y-75300000D02*
X210175000Y-74325000D01*
X205400000Y-75300000D02*
X209200000Y-75300000D01*
X201617200Y-73717200D02*
X203817200Y-73717200D01*
X200800000Y-72900000D02*
X201617200Y-73717200D01*
X200512648Y-71725000D02*
X200800000Y-72012352D01*
X203817200Y-73717200D02*
X205400000Y-75300000D01*
%TO.N,Net-(U5-GPA7)*%
X193105000Y-70800000D02*
X202444402Y-70800000D01*
X202444402Y-70800000D02*
X204325002Y-72680600D01*
X188955000Y-74950000D02*
X193105000Y-70800000D01*
%TO.N,PD13*%
X180650000Y-99480000D02*
X180650000Y-98000000D01*
X177600000Y-102900000D02*
X180000000Y-102900000D01*
X180000000Y-102900000D02*
X180301945Y-102598055D01*
X180650000Y-98000000D02*
X180700000Y-97950000D01*
X180301945Y-102598055D02*
X180301945Y-101653300D01*
X180275000Y-101636600D02*
X180275000Y-99855000D01*
X180275000Y-99855000D02*
X180650000Y-99480000D01*
%TO.N,PD13_OUT*%
X182300000Y-100261598D02*
X180924998Y-101636600D01*
X182300000Y-99480000D02*
X182300000Y-100261598D01*
X157500003Y-45900000D02*
X157500003Y-45800003D01*
X182250000Y-97956600D02*
X182250000Y-96850000D01*
X157500003Y-45800003D02*
X156000000Y-44300000D01*
X156000000Y-44300000D02*
X156000000Y-41500000D01*
X182250000Y-96850000D02*
X181800000Y-96400000D01*
X182250000Y-97950000D02*
X182250000Y-99430000D01*
X182250000Y-99430000D02*
X182300000Y-99480000D01*
%TO.N,Net-(U7-S4B)*%
X202974998Y-72525001D02*
X201724998Y-72525001D01*
X206256425Y-70625000D02*
X206256425Y-70750000D01*
X206256425Y-70750000D02*
X206256425Y-72680600D01*
%TO.N,Net-(U8-S4B)*%
X202999997Y-59994401D02*
X201749997Y-59994401D01*
X206264400Y-58250000D02*
X206264400Y-60180600D01*
X206264400Y-58125000D02*
X206264400Y-58250000D01*
%TO.N,PD2*%
X213100000Y-109730000D02*
X213150000Y-109780000D01*
X214399998Y-106000000D02*
X214399998Y-106950002D01*
X212500000Y-104800000D02*
X214080401Y-104800000D01*
X213100000Y-108250000D02*
X213100000Y-109730000D01*
X214399998Y-106950002D02*
X213100000Y-108250000D01*
X214399999Y-105119598D02*
X214399999Y-105996700D01*
X214080401Y-104800000D02*
X214399999Y-105119598D01*
%TO.N,PD2_OUT*%
X161500000Y-42150000D02*
X161850000Y-42500000D01*
X166300036Y-44368664D02*
X166300036Y-45900000D01*
X214750000Y-108250000D02*
X215050000Y-107950000D01*
X214700000Y-109780000D02*
X214700000Y-110200000D01*
X161850000Y-42500000D02*
X164431372Y-42500000D01*
X214700000Y-109780000D02*
X214700000Y-108300000D01*
X214700000Y-108300000D02*
X214750000Y-108250000D01*
X164431372Y-42500000D02*
X166300036Y-44368664D01*
X161500000Y-41500000D02*
X161500000Y-42150000D01*
X214700000Y-110200000D02*
X215700000Y-111200000D01*
X215050000Y-107950000D02*
X215050000Y-106000000D01*
%TO.N,PD5*%
X203835000Y-98013400D02*
X203885000Y-97963400D01*
X203197713Y-102800000D02*
X203467315Y-102530398D01*
X203835000Y-99493400D02*
X203835000Y-98013400D01*
X200800000Y-102800000D02*
X203197713Y-102800000D01*
X203460000Y-99868400D02*
X203835000Y-99493400D01*
X203460000Y-101650000D02*
X203460000Y-99868400D01*
X203467315Y-102530398D02*
X203467315Y-101653300D01*
%TO.N,PD5_OUT*%
X163900027Y-45900000D02*
X163900027Y-45851474D01*
X205435000Y-97963400D02*
X205435000Y-99443400D01*
X205435000Y-97970000D02*
X205435000Y-97135000D01*
X205485000Y-99493400D02*
X205485000Y-100274998D01*
X205435000Y-99443400D02*
X205485000Y-99493400D01*
X205435000Y-97135000D02*
X204700000Y-96400000D01*
X160000000Y-42420081D02*
X160000000Y-41500000D01*
X162379919Y-44800000D02*
X160000000Y-42420081D01*
X163900027Y-45851474D02*
X162848553Y-44800000D01*
X205485000Y-100274998D02*
X204109998Y-101650000D01*
X162848553Y-44800000D02*
X162379919Y-44800000D01*
%TO.N,MTQ3+*%
X151390166Y-111145000D02*
X151845165Y-111599999D01*
X152274997Y-111599999D02*
X152299997Y-111574999D01*
D36*
X143500000Y-107500000D02*
X147145000Y-111145000D01*
D34*
X151845165Y-111599999D02*
X152274997Y-111599999D01*
X152299997Y-111574999D02*
X152674998Y-111574999D01*
D36*
X147145000Y-111145000D02*
X151390166Y-111145000D01*
%TO.N,MTQ3-*%
D34*
X151735167Y-112049999D02*
X152274997Y-112049999D01*
X152274997Y-112049999D02*
X152299997Y-112074999D01*
D36*
X144272233Y-110040000D02*
X146627233Y-112395000D01*
X143500000Y-110040000D02*
X144272233Y-110040000D01*
D34*
X151390166Y-112395000D02*
X151735167Y-112049999D01*
X152299997Y-112074999D02*
X152674998Y-112074999D01*
D36*
X146627233Y-112395000D02*
X151390166Y-112395000D01*
%TO.N,MCTRL3_2*%
D34*
X162800000Y-90320000D02*
X143500000Y-71020000D01*
X154575000Y-112575000D02*
X155400000Y-113400000D01*
X157829901Y-113400000D02*
X162800000Y-108429899D01*
X162800000Y-108429899D02*
X162800000Y-90320000D01*
X155400000Y-113400000D02*
X157829901Y-113400000D01*
%TO.N,MCTRL3_1*%
X145474314Y-73560000D02*
X143500000Y-73560000D01*
X154999314Y-112074999D02*
X155924316Y-113000000D01*
X162400000Y-90485686D02*
X145474314Y-73560000D01*
X154575000Y-112074999D02*
X154999314Y-112074999D01*
X162400000Y-108264214D02*
X162400000Y-90485686D01*
X157664215Y-113000000D02*
X162400000Y-108264214D01*
X155924316Y-113000000D02*
X157664215Y-113000000D01*
%TO.N,MSLEEP3*%
X162000000Y-90651372D02*
X147448628Y-76100000D01*
X162000000Y-108098529D02*
X162000000Y-90651372D01*
X155065000Y-111574999D02*
X155125000Y-111634999D01*
X157498529Y-112600000D02*
X162000000Y-108098529D01*
X155125000Y-111634999D02*
X156090001Y-112600000D01*
X147448628Y-76100000D02*
X143500000Y-76100000D01*
X156090001Y-112600000D02*
X157498529Y-112600000D01*
X154575000Y-111574999D02*
X155065000Y-111574999D01*
%TO.N,FOLLOW*%
X182287500Y-44912500D02*
X182100000Y-44912500D01*
X182100000Y-44912500D02*
X181600000Y-45412500D01*
X181850000Y-47412500D02*
X182287500Y-47412500D01*
X181600000Y-47162500D02*
X181850000Y-47412500D01*
X181600000Y-47162500D02*
X181600000Y-45412500D01*
X182700000Y-45325000D02*
X182287500Y-44912500D01*
X182700000Y-47000000D02*
X182700000Y-48387500D01*
X182287500Y-47412500D02*
X182700000Y-47000000D01*
X182700000Y-48387500D02*
X182425000Y-48662500D01*
X182425000Y-48662500D02*
X182350000Y-48737500D01*
X182350000Y-48737500D02*
X182350000Y-50762500D01*
%TO.N,PIXEL+*%
X209524999Y-77382800D02*
X209042199Y-76900000D01*
X209042199Y-90000000D02*
X207300000Y-90000000D01*
X209524999Y-78319400D02*
X209524999Y-77382800D01*
X209042199Y-76900000D02*
X207300000Y-76900000D01*
X205500000Y-76900000D02*
X204974998Y-77425002D01*
X209000000Y-61500000D02*
X209525002Y-60974998D01*
X179937500Y-49500000D02*
X180775000Y-48662500D01*
X209000000Y-87000000D02*
X209525002Y-86474998D01*
X204975001Y-85580600D02*
X204975001Y-86517200D01*
X205500000Y-64400000D02*
X204974998Y-64925002D01*
X181850000Y-52162500D02*
X181850000Y-50762500D01*
X204974998Y-77425002D02*
X204974998Y-78319400D01*
X205457801Y-48400000D02*
X207200000Y-48400000D01*
X205500000Y-51200000D02*
X204974998Y-51725002D01*
X209524999Y-90482800D02*
X209042199Y-90000000D01*
X182850000Y-52162500D02*
X182600000Y-52412500D01*
X204975001Y-47917200D02*
X205457801Y-48400000D01*
X209525002Y-73574998D02*
X209525002Y-72680600D01*
X207200000Y-48400000D02*
X209000000Y-48400000D01*
X182100000Y-52412500D02*
X181850000Y-52162500D01*
X204975001Y-73617200D02*
X205457801Y-74100000D01*
X204974998Y-51725002D02*
X204974998Y-52619400D01*
X209525002Y-47874998D02*
X209525002Y-46980600D01*
X209525002Y-86474998D02*
X209525002Y-85580600D01*
X207300000Y-90000000D02*
X205500000Y-90000000D01*
X204975001Y-60080600D02*
X204975001Y-61017200D01*
X180775000Y-49687500D02*
X181850000Y-50762500D01*
X207200000Y-87000000D02*
X209000000Y-87000000D01*
X204975001Y-46980600D02*
X204975001Y-47917200D01*
X209042199Y-64400000D02*
X207300000Y-64400000D01*
X209042199Y-51200000D02*
X207300000Y-51200000D01*
X209524999Y-64882800D02*
X209042199Y-64400000D01*
X205457801Y-87000000D02*
X207200000Y-87000000D01*
X205457801Y-74100000D02*
X207200000Y-74100000D01*
X182850000Y-50762500D02*
X182850000Y-52162500D01*
X209524999Y-52619400D02*
X209524999Y-51682800D01*
X209524999Y-65819400D02*
X209524999Y-64882800D01*
X209524999Y-91419400D02*
X209524999Y-90482800D01*
X204975001Y-61017200D02*
X205457801Y-61500000D01*
X207200000Y-61500000D02*
X209000000Y-61500000D01*
X207300000Y-64400000D02*
X205500000Y-64400000D01*
X209000000Y-74100000D02*
X209525002Y-73574998D01*
X182600000Y-52412500D02*
X182100000Y-52412500D01*
X207300000Y-76900000D02*
X205500000Y-76900000D01*
X204975001Y-86517200D02*
X205457801Y-87000000D01*
X180775000Y-49687500D02*
X180775000Y-48662500D01*
X204975001Y-72680600D02*
X204975001Y-73617200D01*
X204974998Y-64925002D02*
X204974998Y-65819400D01*
X205500000Y-90000000D02*
X204974998Y-90525002D01*
X207300000Y-51200000D02*
X205500000Y-51200000D01*
X204974998Y-90525002D02*
X204974998Y-91419400D01*
X209524999Y-51682800D02*
X209042199Y-51200000D01*
X209000000Y-48400000D02*
X209525002Y-47874998D01*
X179600000Y-49500000D02*
X179937500Y-49500000D01*
X209525002Y-60974998D02*
X209525002Y-60080600D01*
X205457801Y-61500000D02*
X207200000Y-61500000D01*
X207200000Y-74100000D02*
X209000000Y-74100000D01*
%TO.N,PD15_OUT*%
X155900000Y-45900000D02*
X155900000Y-45600000D01*
X176500000Y-99430000D02*
X176550000Y-99480000D01*
X176550000Y-100261598D02*
X175174998Y-101636600D01*
X176550000Y-99480000D02*
X176550000Y-100261598D01*
X176500000Y-97000000D02*
X175900000Y-96400000D01*
X176500000Y-97956600D02*
X176500000Y-97000000D01*
X155900000Y-45600000D02*
X155000000Y-44700000D01*
X176500000Y-97950000D02*
X176500000Y-99430000D01*
X155000000Y-44700000D02*
X155000000Y-41500000D01*
%TO.N,PD15*%
X174525000Y-101636600D02*
X174525000Y-99855000D01*
X171800000Y-103100000D02*
X173941001Y-103100000D01*
X174525000Y-99855000D02*
X174900000Y-99480000D01*
X174900000Y-98000000D02*
X174950000Y-97950000D01*
X174510603Y-102530398D02*
X174510603Y-101653300D01*
X173941001Y-103100000D02*
X174510603Y-102530398D01*
X174900000Y-99480000D02*
X174900000Y-98000000D01*
%TO.N,PD16*%
X173441003Y-104700000D02*
X173860601Y-105119598D01*
X173860601Y-105119598D02*
X173860601Y-105996700D01*
X173859998Y-105993400D02*
X173859998Y-106943402D01*
X173859998Y-106943402D02*
X172560000Y-108243400D01*
X172560000Y-108243400D02*
X172560000Y-109723400D01*
X172560000Y-109723400D02*
X172610000Y-109773400D01*
X171950000Y-104700000D02*
X173441003Y-104700000D01*
X171900000Y-104750000D02*
X171950000Y-104700000D01*
%TO.N,PD16_OUT*%
X174160000Y-109780000D02*
X174160000Y-110340000D01*
X174160000Y-110340000D02*
X173400000Y-111100000D01*
X155100000Y-45900000D02*
X155100000Y-45800000D01*
X174210000Y-108243400D02*
X174510000Y-107943400D01*
X154500000Y-45200000D02*
X154500000Y-41500000D01*
X174160000Y-108293400D02*
X174210000Y-108243400D01*
X174160000Y-109773400D02*
X174160000Y-108293400D01*
X155100000Y-45800000D02*
X154500000Y-45200000D01*
X174510000Y-107943400D02*
X174510000Y-105993400D01*
%TO.N,PD11*%
X186075000Y-99855000D02*
X186450000Y-99480000D01*
X186450000Y-99480000D02*
X186450000Y-98000000D01*
X185523686Y-103100000D02*
X186093288Y-102530398D01*
X183600000Y-103100000D02*
X185523686Y-103100000D01*
X186450000Y-98000000D02*
X186500000Y-97950000D01*
X186075000Y-101636600D02*
X186075000Y-99855000D01*
X183400000Y-102900000D02*
X183600000Y-103100000D01*
X186093288Y-102530398D02*
X186093288Y-101653300D01*
%TO.N,PD11_OUT*%
X188050000Y-97950000D02*
X188050000Y-99430000D01*
X188050000Y-99430000D02*
X188100000Y-99480000D01*
X188050000Y-97956600D02*
X188050000Y-97150000D01*
X159100009Y-45851474D02*
X157000000Y-43751465D01*
X188100000Y-100261598D02*
X186724998Y-101636600D01*
X188100000Y-99480000D02*
X188100000Y-100261598D01*
X157000000Y-43751465D02*
X157000000Y-41500000D01*
X159100009Y-45900000D02*
X159100009Y-45851474D01*
X188050000Y-97150000D02*
X187300000Y-96400000D01*
%TO.N,PD1_OUT*%
X217075000Y-99500000D02*
X217075000Y-100281598D01*
X217075000Y-100281598D02*
X215699998Y-101656600D01*
X217025000Y-97225000D02*
X216200000Y-96400000D01*
X217025000Y-99450000D02*
X217075000Y-99500000D01*
X164200000Y-41500000D02*
X162000000Y-41500000D01*
X217025000Y-97970000D02*
X217025000Y-97225000D01*
X167100039Y-44400039D02*
X164200000Y-41500000D01*
X217025000Y-97970000D02*
X217025000Y-99450000D01*
X167100039Y-45900000D02*
X167100039Y-44400039D01*
%TO.N,PD3_OUT*%
X161000000Y-41500000D02*
X161000000Y-42288709D01*
X211285000Y-99493400D02*
X211285000Y-100274998D01*
X211285000Y-100274998D02*
X209909998Y-101650000D01*
X164000000Y-42900000D02*
X165500033Y-44400033D01*
X211235000Y-97963400D02*
X211235000Y-99443400D01*
X165500033Y-44400033D02*
X165500033Y-45900000D01*
X211235000Y-99443400D02*
X211285000Y-99493400D01*
X161000000Y-42288709D02*
X161611291Y-42900000D01*
X211235000Y-97970000D02*
X211235000Y-97035000D01*
X211235000Y-97035000D02*
X210600000Y-96400000D01*
X161611291Y-42900000D02*
X164000000Y-42900000D01*
%TO.N,PD4_OUT*%
X164700030Y-44500030D02*
X163500000Y-43300000D01*
X160500000Y-42354395D02*
X160500000Y-41500000D01*
X163500000Y-43300000D02*
X161445605Y-43300000D01*
X208960000Y-108243400D02*
X209260000Y-107943400D01*
X208910000Y-111110000D02*
X209000000Y-111200000D01*
X209260000Y-107943400D02*
X209260000Y-105993400D01*
X208910000Y-109780000D02*
X208910000Y-111110000D01*
X161445605Y-43300000D02*
X160500000Y-42354395D01*
X164700030Y-45900000D02*
X164700030Y-44500030D01*
X208910000Y-109773400D02*
X208910000Y-108293400D01*
X208910000Y-108293400D02*
X208960000Y-108243400D01*
%TO.N,PD6_OUT*%
X203160000Y-108243400D02*
X203460000Y-107943400D01*
X159500000Y-42485767D02*
X159500000Y-41500000D01*
X203110000Y-109773400D02*
X203110000Y-108293400D01*
X203110000Y-110310000D02*
X204000000Y-111200000D01*
X203110000Y-108293400D02*
X203160000Y-108243400D01*
X162900021Y-45651471D02*
X162548550Y-45300000D01*
X162548550Y-45300000D02*
X162314233Y-45300000D01*
X162900021Y-45900000D02*
X162900021Y-45651471D01*
X162314233Y-45300000D02*
X159500000Y-42485767D01*
X203460000Y-107943400D02*
X203460000Y-105993400D01*
X203110000Y-109780000D02*
X203110000Y-110310000D01*
X163100024Y-45900000D02*
X162900021Y-45900000D01*
%TO.N,PD9_OUT*%
X160700015Y-45851474D02*
X158000000Y-43151459D01*
X158000000Y-43151459D02*
X158000000Y-41500000D01*
X160700015Y-45900000D02*
X160700015Y-45851474D01*
X193900000Y-100261598D02*
X192524998Y-101636600D01*
X193850000Y-99430000D02*
X193900000Y-99480000D01*
X193850000Y-97950000D02*
X193850000Y-99430000D01*
X193850000Y-97250000D02*
X193000000Y-96400000D01*
X193850000Y-97956600D02*
X193850000Y-97250000D01*
X193900000Y-99480000D02*
X193900000Y-100261598D01*
%TO.N,PD10_OUT*%
X191550000Y-111050000D02*
X191400000Y-111200000D01*
X191600000Y-108243400D02*
X191900000Y-107943400D01*
X191550000Y-109780000D02*
X191550000Y-111050000D01*
X159900012Y-45900000D02*
X159900012Y-45851474D01*
X191550000Y-108293400D02*
X191600000Y-108243400D01*
X191550000Y-109773400D02*
X191550000Y-108293400D01*
X159900012Y-45851474D02*
X157500000Y-43451462D01*
X157500000Y-43451462D02*
X157500000Y-41500000D01*
X191900000Y-107943400D02*
X191900000Y-105993400D01*
%TO.N,PD14_OUT*%
X179950000Y-109780000D02*
X179950000Y-110950000D01*
X179950000Y-108293400D02*
X180000000Y-108243400D01*
X180300000Y-107943400D02*
X180300000Y-105993400D01*
X156700000Y-45900000D02*
X156700000Y-45700000D01*
X156700000Y-45700000D02*
X155500000Y-44500000D01*
X155500000Y-44500000D02*
X155500000Y-41500000D01*
X179950000Y-109773400D02*
X179950000Y-108293400D01*
X179950000Y-110950000D02*
X179700000Y-111200000D01*
X180000000Y-108243400D02*
X180300000Y-107943400D01*
%TO.N,PIXEL13+*%
X206271344Y-55500000D02*
X215770000Y-55500000D01*
X205646343Y-52569400D02*
X205646343Y-54874999D01*
X215770000Y-55500000D02*
X217250000Y-56980000D01*
X205646343Y-54874999D02*
X206271344Y-55500000D01*
%TO.N,Net-(U9-S1B)*%
X206308848Y-53968100D02*
X206783847Y-54443099D01*
X202999997Y-52794401D02*
X201749997Y-52794401D01*
X206308848Y-52512499D02*
X206308848Y-53968100D01*
%TO.N,Net-(U9-S2B)*%
X202999997Y-50794401D02*
X201749997Y-50794401D01*
X208246347Y-53880599D02*
X208971347Y-54605599D01*
X208246347Y-52531947D02*
X208246347Y-53880599D01*
%TO.N,PIXEL14+*%
X210074596Y-54750000D02*
X208899996Y-53575400D01*
X208899996Y-53575400D02*
X208899996Y-52638800D01*
X217250000Y-54440000D02*
X216940000Y-54750000D01*
X216940000Y-54750000D02*
X210074596Y-54750000D01*
%TO.N,PIXEL15+*%
X208899999Y-47000000D02*
X208899999Y-46063400D01*
X209213399Y-45750000D02*
X211100000Y-45750000D01*
X208899999Y-46063400D02*
X209213399Y-45750000D01*
X211100000Y-45750000D02*
X217250000Y-51900000D01*
%TO.N,Net-(U9-S3B)*%
X202999997Y-48794401D02*
X201749997Y-48794401D01*
X208249399Y-45389050D02*
X208399397Y-45239052D01*
X208249399Y-47069652D02*
X208249399Y-45389050D01*
%TO.N,Net-(U9-S4B)*%
X206299398Y-45139052D02*
X206299398Y-47069652D01*
X202999997Y-46794401D02*
X201749997Y-46794401D01*
X206299398Y-45014052D02*
X206299398Y-45139052D01*
%TO.N,PIXEL16+*%
X212422926Y-43439052D02*
X217250000Y-48266126D01*
X217250000Y-48266126D02*
X217250000Y-49360000D01*
X206234998Y-43439052D02*
X212422926Y-43439052D01*
X205660001Y-44014049D02*
X206234998Y-43439052D01*
X205660001Y-47026600D02*
X205660001Y-44014049D01*
%TO.N,PD14*%
X179651943Y-105085500D02*
X179651943Y-105996700D01*
X179649998Y-105993400D02*
X179649998Y-106943402D01*
X179266443Y-104700000D02*
X179651943Y-105085500D01*
X178350000Y-108243400D02*
X178350000Y-109723400D01*
X177700000Y-104700000D02*
X179266443Y-104700000D01*
X178350000Y-109723400D02*
X178400000Y-109773400D01*
X179649998Y-106943402D02*
X178350000Y-108243400D01*
%TO.N,PD6*%
X202497715Y-104800000D02*
X202817313Y-105119598D01*
X202809998Y-106943402D02*
X201510000Y-108243400D01*
X201510000Y-109723400D02*
X201560000Y-109773400D01*
X202809998Y-105993400D02*
X202809998Y-106943402D01*
X201510000Y-108243400D02*
X201510000Y-109723400D01*
X202817313Y-105119598D02*
X202817313Y-105996700D01*
X200900000Y-104800000D02*
X202497715Y-104800000D01*
%TO.N,Net-(U7-S2B)*%
X209105000Y-80650000D02*
X208229999Y-79774999D01*
X202974998Y-76525001D02*
X201724998Y-76525001D01*
X208229999Y-79774999D02*
X208229999Y-78319400D01*
%TO.N,PD9*%
X191500000Y-102800000D02*
X191884630Y-102415370D01*
X191884630Y-102415370D02*
X191884630Y-101653300D01*
X192250000Y-99480000D02*
X192250000Y-98000000D01*
X192250000Y-98000000D02*
X192300000Y-97950000D01*
X191875000Y-99855000D02*
X192250000Y-99480000D01*
X191875000Y-101636600D02*
X191875000Y-99855000D01*
X189200000Y-102800000D02*
X191500000Y-102800000D01*
%TO.N,PD10*%
X189300000Y-104800000D02*
X190915030Y-104800000D01*
X189950000Y-108243400D02*
X189950000Y-109723400D01*
X191249998Y-106943402D02*
X189950000Y-108243400D01*
X189950000Y-109723400D02*
X190000000Y-109773400D01*
X191249998Y-105993400D02*
X191249998Y-106943402D01*
X190915030Y-104800000D02*
X191234628Y-105119598D01*
X191234628Y-105119598D02*
X191234628Y-105996700D01*
%TO.N,Net-(U7-S1B)*%
X206280001Y-79775001D02*
X206755000Y-80250000D01*
X202974998Y-78525001D02*
X201724998Y-78525001D01*
X206280001Y-78319400D02*
X206280001Y-79775001D01*
%TO.N,PD3*%
X206600000Y-102800000D02*
X208989056Y-102800000D01*
X209260000Y-101650000D02*
X209260000Y-99868400D01*
X209635000Y-99493400D02*
X209635000Y-98013400D01*
X209635000Y-98013400D02*
X209685000Y-97963400D01*
X208989056Y-102800000D02*
X209258658Y-102530398D01*
X209258658Y-102530398D02*
X209258658Y-101653300D01*
X209260000Y-99868400D02*
X209635000Y-99493400D01*
%TO.N,PD4*%
X207310000Y-108243400D02*
X207310000Y-109723400D01*
X208609998Y-105993400D02*
X208609998Y-106943402D01*
X208609998Y-106943402D02*
X207310000Y-108243400D01*
X208200000Y-104800000D02*
X208608656Y-105208656D01*
X206700000Y-104800000D02*
X208200000Y-104800000D01*
X208608656Y-105208656D02*
X208608656Y-105996700D01*
X207310000Y-109723400D02*
X207360000Y-109773400D01*
%TO.N,Net-(U8-S3B)*%
X208214401Y-58499998D02*
X208364399Y-58350000D01*
X202999997Y-61994401D02*
X201749997Y-61994401D01*
X208214401Y-60180600D02*
X208214401Y-58499998D01*
%TO.N,PD1*%
X214700000Y-102800000D02*
X215050001Y-102449999D01*
X215050000Y-99875000D02*
X215425000Y-99500000D01*
X215050000Y-101656600D02*
X215050000Y-99875000D01*
X215050001Y-102449999D02*
X215050001Y-101653300D01*
X215425000Y-99500000D02*
X215425000Y-98020000D01*
X215425000Y-98020000D02*
X215475000Y-97970000D01*
X212400000Y-102800000D02*
X214700000Y-102800000D01*
%TO.N,Net-(U8-S2B)*%
X208225000Y-65776348D02*
X208225000Y-67025000D01*
X208225000Y-67025000D02*
X209000000Y-67800000D01*
X202999997Y-63994401D02*
X201749997Y-63994401D01*
%TO.N,Net-(U8-S1B)*%
X206287501Y-65756900D02*
X206287501Y-67212501D01*
X202999997Y-65994401D02*
X201749997Y-65994401D01*
X206287501Y-67212501D02*
X206762500Y-67687500D01*
%TO.N,PIXEL1+*%
X213450000Y-94300000D02*
X206300000Y-94300000D01*
X217250000Y-90500000D02*
X213450000Y-94300000D01*
X205624999Y-93624999D02*
X205624999Y-91319400D01*
X206300000Y-94300000D02*
X205624999Y-93624999D01*
%TO.N,Net-(U6-S1B)*%
X203000000Y-91500000D02*
X201750000Y-91500000D01*
X206275001Y-91319400D02*
X206275001Y-92775001D01*
X206275001Y-92775001D02*
X206750000Y-93250000D01*
%TO.N,Net-(U6-S2B)*%
X209100000Y-93650000D02*
X208224999Y-92774999D01*
X203000000Y-89500000D02*
X201750000Y-89500000D01*
X208224999Y-92774999D02*
X208224999Y-91319400D01*
%TO.N,PIXEL2+*%
X208874998Y-92374998D02*
X208874998Y-91319400D01*
X211000000Y-93750000D02*
X210250000Y-93750000D01*
X217250000Y-87960000D02*
X216790000Y-87960000D01*
X216790000Y-87960000D02*
X211000000Y-93750000D01*
X210250000Y-93750000D02*
X208874998Y-92374998D01*
%TO.N,PIXEL3+*%
X208875001Y-84816201D02*
X209441202Y-84250000D01*
X209441202Y-84250000D02*
X216580000Y-84250000D01*
X208875001Y-85680600D02*
X208875001Y-84816201D01*
X216580000Y-84250000D02*
X217250000Y-84920000D01*
%TO.N,PIXEL4+*%
X205625002Y-83074998D02*
X205625002Y-85680600D01*
X217120000Y-82250000D02*
X217250000Y-82380000D01*
X206450000Y-82250000D02*
X205625002Y-83074998D01*
X206450000Y-82250000D02*
X217120000Y-82250000D01*
%TO.N,MSLEEP1*%
X159600000Y-93822182D02*
X157117818Y-91340000D01*
X154575000Y-96074999D02*
X155074999Y-96074999D01*
X157117818Y-91340000D02*
X143500000Y-91340000D01*
X155074999Y-96074999D02*
X156100000Y-97100000D01*
X159600000Y-94998529D02*
X159600000Y-93822182D01*
X157498529Y-97100000D02*
X159600000Y-94998529D01*
X156100000Y-97100000D02*
X157498529Y-97100000D01*
%TO.N,MCTRL1_1*%
X155009313Y-96574999D02*
X155934315Y-97500000D01*
X160000000Y-93656496D02*
X155143504Y-88800000D01*
X155143504Y-88800000D02*
X143500000Y-88800000D01*
X155934315Y-97500000D02*
X157664215Y-97500000D01*
X154575000Y-96574999D02*
X155009313Y-96574999D01*
X157664215Y-97500000D02*
X160000000Y-95164214D01*
X160000000Y-95164214D02*
X160000000Y-93656496D01*
%TO.N,MCTRL1_2*%
X154575000Y-97075000D02*
X155400000Y-97900000D01*
X153169190Y-86260000D02*
X143500000Y-86260000D01*
X155400000Y-97900000D02*
X157829901Y-97900000D01*
X160400000Y-93490810D02*
X153169190Y-86260000D01*
X160400000Y-95329899D02*
X160400000Y-93490810D01*
X157829901Y-97900000D02*
X160400000Y-95329899D01*
%TO.N,MSLEEP2*%
X160800000Y-92115686D02*
X152404314Y-83720000D01*
X155476470Y-103513986D02*
X156501471Y-104538987D01*
X160800000Y-101237516D02*
X160800000Y-92115686D01*
X152404314Y-83720000D02*
X143500000Y-83720000D01*
X156501471Y-104538987D02*
X157498529Y-104538987D01*
X154575000Y-103513986D02*
X155476470Y-103513986D01*
X157498529Y-104538987D02*
X160800000Y-101237516D01*
%TO.N,MCTRL2_1*%
X161200000Y-91950000D02*
X150430000Y-81180000D01*
X154575000Y-104013986D02*
X155410785Y-104013986D01*
X156335786Y-104938987D02*
X157664215Y-104938987D01*
X161200000Y-101403201D02*
X161200000Y-91950000D01*
X150430000Y-81180000D02*
X143500000Y-81180000D01*
X157664215Y-104938987D02*
X161200000Y-101403201D01*
X155410785Y-104013986D02*
X156335786Y-104938987D01*
%TO.N,MCTRL2_2*%
X155400000Y-105338987D02*
X157829901Y-105338987D01*
X161600000Y-91784314D02*
X148455686Y-78640000D01*
X157829901Y-105338987D02*
X161600000Y-101568886D01*
X148455686Y-78640000D02*
X143500000Y-78640000D01*
X154575000Y-104513987D02*
X155400000Y-105338987D01*
X161600000Y-101568886D02*
X161600000Y-91784314D01*
%TO.N,PIXEL5+*%
X205629999Y-78319400D02*
X205629999Y-80624999D01*
X215790000Y-81300000D02*
X217250000Y-79840000D01*
X206305000Y-81300000D02*
X215790000Y-81300000D01*
X205629999Y-80624999D02*
X206305000Y-81300000D01*
%TO.N,PIXEL6+*%
X211465000Y-80750000D02*
X210255000Y-80750000D01*
X208879998Y-79374998D02*
X208879998Y-78319400D01*
X215084998Y-77125001D02*
X211465000Y-80744999D01*
X210255000Y-80750000D02*
X208879998Y-79374998D01*
X217250000Y-77125001D02*
X215084998Y-77125001D01*
X211465000Y-80744999D02*
X211465000Y-80750000D01*
%TO.N,PIXEL7+*%
X208875001Y-72680600D02*
X208875001Y-71874999D01*
X208875001Y-71874999D02*
X209500000Y-71250000D01*
X213740000Y-71250000D02*
X217250000Y-74760000D01*
X209500000Y-71250000D02*
X213740000Y-71250000D01*
%TO.N,PIXEL8+*%
X206242025Y-69250000D02*
X205617028Y-69874997D01*
X205617028Y-69874997D02*
X205617028Y-72637548D01*
X214280000Y-69250000D02*
X206242025Y-69250000D01*
X217250000Y-72220000D02*
X214280000Y-69250000D01*
%TO.N,PIXEL9+*%
X214895599Y-68744401D02*
X206249997Y-68744401D01*
X205624996Y-68119400D02*
X206249997Y-68744401D01*
X205624996Y-65813801D02*
X205624996Y-68119400D01*
X217250000Y-66390000D02*
X214895599Y-68744401D01*
%TO.N,PIXEL10+*%
X208874999Y-66640747D02*
X208874999Y-65776348D01*
X212855599Y-68244401D02*
X217250000Y-63850000D01*
X210478653Y-68244401D02*
X208874999Y-66640747D01*
X212855599Y-68244401D02*
X210478653Y-68244401D01*
%TO.N,PIXEL11+*%
X208875002Y-60137548D02*
X208875002Y-59200948D01*
X209325950Y-58750000D02*
X214690000Y-58750000D01*
X208875002Y-59200948D02*
X209325950Y-58750000D01*
X214690000Y-58750000D02*
X217250000Y-61310000D01*
%TO.N,PIXEL12+*%
X205625003Y-57374997D02*
X205625003Y-60137548D01*
X206250000Y-56750000D02*
X205625003Y-57374997D01*
X214500000Y-56750000D02*
X206250000Y-56750000D01*
X214500000Y-56770000D02*
X217250000Y-59520000D01*
X214500000Y-56750000D02*
X214500000Y-56770000D01*
%TO.N,Net-(U7-S3B)*%
X203000000Y-74500000D02*
X201750000Y-74500000D01*
X208206426Y-70999998D02*
X208356424Y-70850000D01*
X208206426Y-72680600D02*
X208206426Y-70999998D01*
%TO.N,MTQ1+*%
X152299997Y-96074999D02*
X152274997Y-96099999D01*
X152274997Y-96099999D02*
X151690144Y-96099999D01*
D36*
X144145000Y-97985000D02*
X145131116Y-97985000D01*
X143500000Y-97340000D02*
X144145000Y-97985000D01*
X145131116Y-97985000D02*
X147456261Y-95659855D01*
D34*
X151690144Y-96099999D02*
X151250000Y-95659855D01*
D36*
X147456261Y-95659855D02*
X151250000Y-95659855D01*
D34*
X152674998Y-96074999D02*
X152299997Y-96074999D01*
%TO.N,MTQ1-*%
D36*
X145648884Y-99235000D02*
X147974029Y-96909855D01*
D34*
X152274997Y-96549999D02*
X151609856Y-96549999D01*
X151609856Y-96549999D02*
X151250000Y-96909855D01*
D36*
X143500000Y-99880000D02*
X144145000Y-99235000D01*
X147974029Y-96909855D02*
X151250000Y-96909855D01*
D34*
X152299997Y-96574999D02*
X152274997Y-96549999D01*
X152674998Y-96574999D02*
X152299997Y-96574999D01*
D36*
X144145000Y-99235000D02*
X145648884Y-99235000D01*
%TO.N,MTQ2+*%
D34*
X152309831Y-103529873D02*
X152334831Y-103504873D01*
D36*
X143500000Y-102420000D02*
X144145000Y-103065000D01*
X144145000Y-103065000D02*
X151225000Y-103065000D01*
D34*
X152334831Y-103504873D02*
X152709832Y-103504873D01*
X151879999Y-103529873D02*
X152309831Y-103529873D01*
X151425000Y-103074874D02*
X151879999Y-103529873D01*
%TO.N,MTQ2-*%
D36*
X143500000Y-104960000D02*
X144145000Y-104315000D01*
D34*
X152309831Y-103979873D02*
X152334831Y-104004873D01*
X151425000Y-104324874D02*
X151770001Y-103979873D01*
X151770001Y-103979873D02*
X152309831Y-103979873D01*
D36*
X144145000Y-104315000D02*
X151225000Y-104315000D01*
D34*
X152334831Y-104004873D02*
X152709832Y-104004873D01*
%TD*%
M02*
